<svg width="24" height="24" viewBox="0 0 24 24" fill="none" xmlns="http://www.w3.org/2000/svg">
<path d="M5.56834 5.56834C5.25446 5.88223 5.25446 6.39114 5.56834 6.70503L10.8617 11.9984L5.56834 17.2918C5.25446 17.6057 5.25446 18.1146 5.56834 18.4285C5.88223 18.7424 6.39114 18.7424 6.70503 18.4285L12 13.1335L17.295 18.4285C17.6089 18.7424 18.1178 18.7424 18.4317 18.4285C18.7455 18.1146 18.7455 17.6057 18.4317 17.2918L13.1383 11.9984L18.4317 6.70503C18.7455 6.39114 18.7455 5.88223 18.4317 5.56834C18.1178 5.25446 17.6089 5.25446 17.295 5.56834L12 10.8633L6.70503 5.56834C6.39114 5.25446 5.88223 5.25446 5.56834 5.56834Z" fill="white"/>
</svg>
