<svg width="33" height="33" viewBox="0 0 33 33" fill="none" xmlns="http://www.w3.org/2000/svg">
<path d="M16.0955 32.966C24.9847 32.966 32.1909 25.7598 32.1909 16.8705C32.1909 7.98121 24.9847 0.775024 16.0955 0.775024C7.26243 0.775024 0.0912691 7.89032 0.000868639 16.702L0 16.7011V32.966H15.7566L15.7532 32.9624C15.867 32.9648 15.9811 32.966 16.0955 32.966Z" fill="url(#paint0_linear)"/>
<path fill-rule="evenodd" clip-rule="evenodd" d="M24.2278 16.701C24.2278 21.1925 20.5868 24.8335 16.0953 24.8335C11.6039 24.8335 7.96289 21.1925 7.96289 16.701C7.96289 12.2096 11.6039 8.5686 16.0953 8.5686C20.5868 8.5686 24.2278 12.2096 24.2278 16.701ZM13.5463 21.5139C14.8427 20.1178 17.056 20.105 18.3607 21.4933C18.7655 21.924 18.9134 22.5648 18.4242 22.8966C17.9904 23.1908 17.2399 23.4638 15.9487 23.4638C14.6382 23.4638 13.8927 23.1826 13.4704 22.8834C13.0042 22.553 13.1575 21.9325 13.5463 21.5139ZM21.9611 16.6032C22.507 16.9609 22.7436 17.6406 22.234 18.9284C21.7245 20.2161 21.5971 20.5381 21.0511 20.717C19.9592 20.8064 19.3223 20.091 18.6853 18.839C18.2304 17.5869 19.3223 16.7821 20.0502 16.6032C20.0502 16.6032 21.3241 16.2455 21.9611 16.6032ZM9.95665 18.9284C9.4471 17.6406 9.68367 16.9609 10.2296 16.6032C10.8666 16.2455 12.1405 16.6032 12.1405 16.6032C12.8684 16.7821 13.9603 17.5869 13.5053 18.839C12.8684 20.091 12.2315 20.8064 11.1396 20.717C10.5936 20.5381 10.4662 20.2161 9.95665 18.9284ZM20.0752 14.625C21.086 14.8883 21.724 15.0545 21.8079 14.6677C22.1177 13.2399 19.2506 10.4519 16.096 10.4519C12.9414 10.4519 10.0655 13.2416 10.3841 14.6822C10.4675 15.0594 11.0982 14.894 12.0983 14.6317C13.1128 14.3656 14.5074 13.9999 16.096 13.9999C17.675 13.9999 19.0623 14.3612 20.0752 14.625Z" fill="white"/>
<defs>
<linearGradient id="paint0_linear" x1="27.6164" y1="5.34953" x2="-8.23034e-07" y2="32.966" gradientUnits="userSpaceOnUse">
<stop stop-color="#FF6900"/>
<stop offset="0.0001" stop-color="#F77D22"/>
<stop offset="1" stop-color="#E40046"/>
</linearGradient>
</defs>
</svg>
