<svg width="68" height="67" viewBox="0 0 68 67" fill="none" xmlns="http://www.w3.org/2000/svg">
<path d="M56.6667 13.4772V7.59848C58.3522 6.63025 59.5 4.84952 59.5 2.79162V1.39588C59.5 0.62433 58.8664 0 58.0833 0H9.91671C9.13365 0 8.5 0.62433 8.5 1.39588V2.79175C8.5 4.84952 9.64777 6.63025 11.3333 7.59861V13.4772C11.3333 19.0088 13.7267 24.3031 17.8993 28.0026L24.0986 33.5L17.8993 38.9974C13.7267 42.6969 11.3333 47.9912 11.3333 53.5228V59.4014C9.64777 60.3698 8.5 62.1505 8.5 64.2084V65.6043C8.5 66.3757 9.13365 67 9.91671 67H58.0834C58.8665 67 59.5001 66.3757 59.5001 65.6041V64.2082C59.5001 62.1505 58.3524 60.3698 56.6668 59.4014V53.5228C56.6668 47.9912 54.2734 42.6969 50.1009 38.9974L43.9014 33.5L50.1007 28.0026C54.2733 24.3031 56.6667 19.0086 56.6667 13.4772ZM46.3101 23.8532L37.7713 31.4254C37.1737 31.9543 36.8333 32.708 36.8333 33.5C36.8333 34.292 37.1737 35.0458 37.7713 35.5746L46.3101 43.1468C49.29 45.7899 51 49.5725 51 53.5228V58.625H47.4576L35.133 42.4339C34.599 41.7305 33.4009 41.7305 32.8668 42.4339L20.5424 58.625H17V53.5228C17 49.5724 18.71 45.7898 21.69 43.1467L30.2288 35.5745C30.8264 35.0456 31.1668 34.2918 31.1668 33.4999C31.1668 32.7079 30.8264 31.954 30.2288 31.4252L21.69 23.853C18.71 21.2101 17 17.4275 17 13.4772V8.375H51V13.4772C51 17.4275 49.29 21.2101 46.3101 23.8532Z" fill="#23C1B8"/>
<path d="M43.7642 19.543H24.2339C23.6735 19.543 23.1658 19.8688 22.939 20.3731C22.7121 20.8789 22.8075 21.4678 23.1852 21.8767L33.0493 30.8433C33.3191 31.0846 33.6595 31.2045 33.9997 31.2045C34.34 31.2045 34.6804 31.0845 34.9501 30.8433L44.8128 21.8767C45.1905 21.4678 45.286 20.8789 45.059 20.3731C44.8323 19.8688 44.3246 19.543 43.7642 19.543Z" fill="#23C1B8"/>
</svg>
