<svg width="82" height="82" viewBox="0 0 82 82" fill="none" xmlns="http://www.w3.org/2000/svg">
<path fill-rule="evenodd" clip-rule="evenodd" d="M29.1499 10.0346C36.6148 5.69717 45.7904 5.77298 53.1853 10.2332C60.5075 14.7843 64.9577 22.9066 64.9163 31.6439C64.7458 40.3239 59.9739 48.4832 54.009 54.7906C50.5663 58.4475 46.7149 61.6812 42.5337 64.4255C42.1031 64.6745 41.6314 64.8412 41.1419 64.9173C40.6708 64.8973 40.212 64.7581 39.8069 64.5123C33.4235 60.3888 27.8232 55.1253 23.2756 48.975C19.4703 43.8411 17.3084 37.6387 17.0835 31.2099C17.0786 22.4558 21.6849 14.3721 29.1499 10.0346ZM33.4637 34.8364C34.7194 37.9321 37.6833 39.9514 40.9716 39.9514C43.1258 39.9669 45.1966 39.104 46.7225 37.555C48.2485 36.0061 49.1028 33.8998 49.0952 31.7054C49.1067 28.3559 47.1347 25.3297 44.1001 24.0397C41.0654 22.7498 37.5667 23.4506 35.2374 25.8149C32.9082 28.1793 32.208 31.7407 33.4637 34.8364Z" fill="#23C1B8"/>
<ellipse opacity="0.4" cx="41.0003" cy="71.7507" rx="17.0833" ry="3.41667" fill="#23C1B8"/>
</svg>
