<svg width="82" height="82" viewBox="0 0 82 82" fill="none" xmlns="http://www.w3.org/2000/svg">
<path d="M41.2957 75.1673C40.8726 75.1673 40.4495 75.0702 40.0677 74.8725L27.764 68.5035C24.2727 66.6943 21.5416 64.664 19.409 62.2986C14.7413 57.1257 12.1444 50.4853 12.1031 43.597L11.9586 20.9252C11.9414 18.3086 13.6303 15.96 16.155 15.0755L38.7469 7.19884C40.0884 6.71974 41.5846 6.71304 42.9502 7.17539L65.628 14.784C68.1665 15.6317 69.8829 17.9635 69.8966 20.5768L70.0411 43.2653C70.0858 50.1436 67.5783 56.8108 62.9829 62.0407C60.8744 64.4395 58.1673 66.5 54.7104 68.3427L42.5168 74.8557C42.1384 75.0601 41.7188 75.164 41.2957 75.1673Z" fill="#23C1B8"/>
<path d="M38.6733 48.9273C38.0129 48.9307 37.3525 48.6928 36.8434 48.2037L30.2942 41.905C29.283 40.9267 29.2727 39.3387 30.2736 38.3537C31.2746 37.3653 32.9084 37.3552 33.9231 38.3302L38.6355 42.8599L50.1412 31.5156C51.1456 30.5272 52.7794 30.5172 53.7907 31.4921C54.8054 32.4704 54.8157 34.0619 53.8148 35.0435L40.4929 48.1802C39.9907 48.6761 39.3337 48.924 38.6733 48.9273Z" fill="white"/>
</svg>
