<svg width="82" height="82" viewBox="0 0 82 82" fill="none" xmlns="http://www.w3.org/2000/svg">
<path d="M75.1664 41.0007C75.1664 59.8743 59.8699 75.1673 40.9997 75.1673C22.1294 75.1673 6.83301 59.8743 6.83301 41.0007C6.83301 22.1338 22.1294 6.83398 40.9997 6.83398C59.8699 6.83398 75.1664 22.1338 75.1664 41.0007Z" fill="#23C1B8"/>
<path d="M53.2088 54.0309C52.7612 54.0309 52.3102 53.9147 51.8968 53.6722L38.4829 45.6703C37.7108 45.2057 37.2358 44.3686 37.2358 43.4666V26.2227C37.2358 24.8082 38.3838 23.6602 39.7983 23.6602C41.2128 23.6602 42.3608 24.8082 42.3608 26.2227V42.0111L54.5242 49.2647C55.7371 49.9924 56.1368 51.5641 55.4125 52.7804C54.9308 53.5833 54.08 54.0309 53.2088 54.0309Z" fill="white"/>
</svg>
