<svg width="77" height="77" viewBox="0 0 77 77" fill="none" xmlns="http://www.w3.org/2000/svg">
<path d="M49.6239 13.3879C36.3272 36.4185 36.3272 36.4185 23.0305 59.449C10.3111 52.1055 5.95313 35.8412 13.2967 23.1218C20.6403 10.4024 36.9045 6.04438 49.6239 13.3879Z" fill="#9DA4FF"/>
<path d="M21.0913 61.8047C35.8933 36.167 35.8933 36.167 50.6953 10.5292C65.0946 18.8426 70.1405 37.0605 61.9656 51.2198C53.7907 65.3792 35.4906 70.1182 21.0913 61.8047Z" fill="#767EFC"/>
<path d="M37.6576 27.1432C37.5341 26.8928 37.2792 26.7344 37 26.7344C36.7209 26.7344 36.466 26.8928 36.3424 27.1432L33.3403 33.2261L26.628 34.2009C26.3517 34.241 26.1222 34.4345 26.0359 34.7C25.9496 34.9655 26.0216 35.2569 26.2215 35.4517L31.0787 40.1864L29.9318 46.8726C29.8846 47.1477 29.9977 47.4258 30.2235 47.5899C30.4493 47.7539 30.7487 47.7756 30.9958 47.6457L37 44.4889L43.0042 47.6457C43.2513 47.7756 43.5507 47.7539 43.7765 47.5899C44.0024 47.4258 44.1155 47.1477 44.0683 46.8726L42.9213 40.1864L47.7786 35.4517C47.9785 35.2569 48.0504 34.9655 47.9641 34.7C47.8778 34.4345 47.6483 34.241 47.3721 34.2009L40.6597 33.2261L37.6576 27.1432Z" fill="white"/>
</svg>
