<svg width="77" height="77" viewBox="0 0 77 77" fill="none" xmlns="http://www.w3.org/2000/svg">
<path d="M49.6239 13.2981C36.3272 36.3286 36.3272 36.3286 23.0305 59.3592C10.3111 52.0156 5.95313 35.7514 13.2967 23.032C20.6403 10.3125 36.9045 5.95454 49.6239 13.2981Z" fill="#FEDA6E"/>
<path d="M21.0913 61.7149C35.8933 36.0771 35.8933 36.0771 50.6953 10.4393C65.0946 18.7528 70.1405 36.9706 61.9656 51.13C53.7907 65.2893 35.4906 70.0283 21.0913 61.7149Z" fill="#FFC518"/>
<g clip-path="url(#clip0_8874:1539)">
<path d="M44.8529 32.6769C44.8529 28.4438 41.409 25 37.176 25C32.9429 25 29.499 28.4438 29.499 32.6769C29.499 36.91 32.9429 40.3538 37.1759 40.3538C41.409 40.3538 44.8529 36.91 44.8529 32.6769ZM34.1978 34.5152H35.7211C35.7211 35.043 36.1505 35.4723 36.6783 35.4723H37.6565C38.2014 35.4723 38.6447 35.029 38.6447 34.4842C38.6447 33.9393 38.2014 33.4961 37.6565 33.4961H36.6954C35.3106 33.4961 34.1839 32.3694 34.1839 30.9846C34.1839 29.6948 35.1613 28.6295 36.4143 28.4892V27.2216H37.9376V28.4921C39.1805 28.6423 40.1471 29.7029 40.1471 30.9857H38.6237C38.6237 30.4402 38.18 29.9965 37.6346 29.9965H36.6955C36.1506 29.9965 35.7073 30.4397 35.7073 30.9846C35.7073 31.5294 36.1506 31.9727 36.6955 31.9727H37.6566C39.0414 31.9727 40.1681 33.0994 40.1681 34.4841C40.1681 35.7739 39.1906 36.8392 37.9377 36.9795V38.2472H36.4144V36.9814C35.1702 36.8492 34.1978 35.7937 34.1978 34.5152Z" fill="white"/>
<path d="M42.2379 40.3555C40.7846 41.3171 39.0441 41.878 37.1748 41.878C35.3055 41.878 33.5649 41.3171 32.1116 40.3555V43.6897H29.5205V44.7911L37.1748 51.0008L44.829 44.7911V43.6897H42.2379V40.3555H42.2379Z" fill="white"/>
</g>
<defs>
<clipPath id="clip0_8874:1539">
<rect width="26" height="26" fill="white" transform="translate(24.1758 25)"/>
</clipPath>
</defs>
</svg>
