<svg width="77" height="77" viewBox="0 0 77 77" fill="none" xmlns="http://www.w3.org/2000/svg">
<path d="M49.6239 13.2981C36.3272 36.3286 36.3272 36.3286 23.0305 59.3592C10.3111 52.0156 5.95313 35.7514 13.2967 23.032C20.6403 10.3125 36.9045 5.95454 49.6239 13.2981Z" fill="#65DCD5"/>
<path d="M21.0913 61.7149C35.8933 36.0771 35.8933 36.0771 50.6953 10.4393C65.0946 18.7528 70.1405 36.9706 61.9656 51.13C53.7907 65.2893 35.4906 70.0283 21.0913 61.7149Z" fill="#34CBC2"/>
<path fill-rule="evenodd" clip-rule="evenodd" d="M36.9993 47.6003C31.0193 47.6003 26.166 42.7578 26.166 36.7669C26.166 30.7869 31.0193 25.9336 36.9993 25.9336C42.9902 25.9336 47.8327 30.7869 47.8327 36.7669C47.8327 42.7578 42.9902 47.6003 36.9993 47.6003ZM40.4561 40.7851C40.5861 40.8609 40.7269 40.9043 40.8786 40.9043C41.1494 40.9043 41.4203 40.7634 41.5719 40.5034C41.7994 40.1243 41.6803 39.6259 41.2903 39.3876L37.4336 37.0909V32.0859C37.4336 31.6309 37.0653 31.2734 36.6211 31.2734C36.1769 31.2734 35.8086 31.6309 35.8086 32.0859V37.5568C35.8086 37.8384 35.9603 38.0984 36.2094 38.2501L40.4561 40.7851Z" fill="white"/>
</svg>
