<svg width="77" height="77" viewBox="0 0 77 77" fill="none" xmlns="http://www.w3.org/2000/svg">
<path d="M49.6239 13.2981C36.3272 36.3286 36.3272 36.3286 23.0305 59.3592C10.3111 52.0156 5.95313 35.7514 13.2967 23.032C20.6403 10.3125 36.9045 5.95454 49.6239 13.2981Z" fill="#FF8888"/>
<path d="M21.0913 61.7149C35.8933 36.0771 35.8933 36.0771 50.6953 10.4393C65.0946 18.7528 70.1405 36.9706 61.9656 51.13C53.7907 65.2893 35.4906 70.0283 21.0913 61.7149Z" fill="#FF6C6C"/>
<path d="M38.1001 34.6016H37.1981C35.9771 34.6016 34.8001 35.9216 34.8001 36.9776V39.0016L31.5001 42.3016V39.0016H29.3001C28.0901 39.0016 27.1001 38.0116 27.1001 36.8016V31.3016C27.1001 30.0916 28.0901 29.1016 29.3001 29.1016H35.9001C37.1101 29.1016 38.1001 30.0916 38.1001 31.3016V34.6016ZM38.1001 35.7016H44.7001C45.9101 35.7016 46.9001 36.6916 46.9001 37.9016V43.4016C46.9001 44.6116 45.9101 45.6016 44.7001 45.6016H42.5001V48.9016L39.2001 45.6016H38.1001C36.8901 45.6016 35.9001 44.6116 35.9001 43.4016V37.9016C35.9001 36.6916 36.8901 35.7016 38.1001 35.7016Z" fill="white"/>
</svg>
