<svg width="215" height="89" viewBox="0 0 215 89" fill="none" xmlns="http://www.w3.org/2000/svg">
<g style="mix-blend-mode:multiply">
<path d="M-4.57764e-05 80.7212C-4.57764e-05 82.9811 48.1266 84.813 107.494 84.813C166.862 84.813 214.989 82.9811 214.989 80.7212C214.989 78.4613 166.862 76.6309 107.494 76.6309C48.1266 76.6309 -4.57764e-05 78.4699 -4.57764e-05 80.7212Z" fill="#D6D6D6"/>
</g>
<path d="M128.23 32.8814C165.814 31.4276 180.669 31.8827 192.071 41.4987C203.472 51.1147 199.62 68.455 194.862 69.4137C172.499 70.819 164.505 69.037 153.573 69.1041C96.2905 64.1106 57.6082 68.8559 53.3285 68.9429C41.255 70.1485 18.6107 66.7101 13.7188 64.2347C10.7203 55.8857 17.0738 44.1867 22.068 40.6056C27.0622 37.0246 72.3351 29.6399 90.329 32.8843C108.323 36.1286 128.23 32.8814 128.23 32.8814Z" fill="#595959"/>
<path d="M7.30553 51.6464C8.79129 46.573 8.493 45.3803 11.6136 43.5898C12.5043 41.9476 10.8708 40.451 11.6136 37.1696C12.3565 33.8882 14.284 23.5945 19.041 22.3989C20.818 20.908 34.9369 3.45078 37.3133 2.25662C38.5022 2.25662 51.3896 0.653005 84.0337 0.093735C116.678 -0.465535 124.374 1.58607 128.23 3.37516C132.086 5.16426 154.56 23.4832 154.56 23.4832C154.56 23.4832 167.151 24.4904 179.741 26.0513C192.332 27.6121 204.587 32.7711 207.707 37.0241C210.826 41.2771 211.722 45.5287 211.722 64.3298C211.722 64.3298 210.386 66.5683 205.558 67.1647C200.73 67.7611 199.615 69.1792 196.346 69.3704C196.062 69.3861 195.559 69.4004 194.866 69.4146C195.913 66.487 196.311 63.3647 196.03 60.2666C195.75 57.1685 194.798 54.1694 193.242 51.4795C191.686 48.7896 189.564 46.4739 187.023 44.6947C184.483 42.9154 181.585 41.7156 178.535 41.1794C175.484 40.6431 172.353 40.7833 169.362 41.5901C166.371 42.397 163.591 43.851 161.218 45.8503C158.846 47.8496 156.937 50.3458 155.625 53.1641C154.314 55.9824 153.632 59.0546 153.627 62.1655C153.627 64.2428 153.512 66.6839 153.567 69.105C151.011 69.1222 65.3978 69.6928 56.4719 69.105C55.4421 69.0366 54.3981 68.9866 53.3228 68.9438C54.3044 66.1259 54.662 63.1269 54.3707 60.1559C54.0794 57.1849 53.1461 54.3135 51.636 51.7421C50.1259 49.1708 48.0754 46.9614 45.6275 45.2681C43.1796 43.5748 40.3934 42.4384 37.4632 41.9382C34.533 41.4381 31.5294 41.5862 28.662 42.3722C25.7947 43.1582 23.1326 44.5632 20.8616 46.4892C18.5906 48.4151 16.7654 50.8157 15.5133 53.5232C14.2612 56.2308 13.6124 59.1801 13.6122 62.1655C13.6122 62.8789 13.6477 63.5637 13.713 64.2328C12.0412 63.8975 9.25293 63.2527 8.3396 62.5393C7.00867 61.4907 5.81976 56.7198 7.30553 51.6464Z" fill="#E7E7E7"/>
<path d="M79.1311 23.8814L77.5686 4.64648H117.681C117.681 4.64648 119.761 6.73519 135.36 24.9386H139.371C139.371 24.9386 141.896 26.7291 144.57 33.4446C147.162 39.9532 144.729 54.0348 144.577 69.1622C129.866 69.2493 100.307 69.4005 79.3271 69.3662C78.4749 60.8146 77.2377 56.4617 74.4522 46.2022C71.1086 33.8911 74.0062 28.2956 79.1311 23.8814Z" fill="#F4F4F4"/>
<path d="M37.313 2.25663C38.5019 2.25663 51.3894 0.653005 84.0334 0.0937351C116.677 -0.465535 124.373 1.58607 128.23 3.37517C132.086 5.16426 154.56 23.4832 154.56 23.4832C152.003 25.6832 138.629 25.385 118.425 24.6388C101.189 24.0025 37.4608 22.7142 19.099 22.3561C21.1018 20.567 34.9594 3.43937 37.313 2.25663Z" fill="#051C2C"/>
<path d="M11.8818 35.9512C11.8705 36.2021 11.8162 36.4492 11.7213 36.6817C11.7706 36.4582 11.8241 36.2147 11.8818 35.9512Z" fill="#DBC8B1"/>
<path d="M189.127 29.0214C188.092 30.3054 190.16 32.9049 194.499 36.1121C198.838 39.3194 202.311 39.7645 203.416 39.7645C207.205 39.7645 208.514 37.0238 199.013 32.0988C194.228 29.6177 189.741 28.2666 189.127 29.0214Z" fill="#FF7C33"/>
<path d="M161.537 75.5654C154.169 68.1651 154.169 56.1669 161.537 48.7667C168.904 41.3664 180.85 41.3664 188.217 48.7667C195.585 56.1669 195.585 68.1651 188.217 75.5654C180.85 82.9656 168.904 82.9656 161.537 75.5654Z" fill="#1A202B"/>
<path d="M161.178 65.4108C159.392 57.811 164.078 50.1961 171.645 48.4024C179.211 46.6087 186.792 51.3154 188.578 58.9152C190.364 66.5149 185.678 74.1299 178.112 75.9236C170.545 77.7173 162.964 73.0105 161.178 65.4108Z" fill="#387391"/>
<path d="M170.27 62.1664C170.269 63.0815 170.539 63.9762 171.045 64.7373C171.551 65.4983 172.271 66.0916 173.112 66.442C173.954 66.7924 174.88 66.8842 175.774 66.7059C176.667 66.5275 177.488 66.087 178.133 65.4399C178.777 64.7929 179.216 63.9685 179.394 63.071C179.572 62.1734 179.481 61.2431 179.132 60.3975C178.783 59.552 178.193 58.8293 177.435 58.3209C176.678 57.8124 175.787 57.541 174.876 57.541C173.655 57.541 172.483 58.0283 171.619 58.8957C170.755 59.763 170.27 60.9395 170.27 62.1664Z" fill="#1A202B"/>
<path d="M20.7048 75.5653C13.3372 68.1651 13.3372 56.1669 20.7048 48.7667C28.0724 41.3664 40.0177 41.3664 47.3853 48.7667C54.753 56.1669 54.7529 68.1651 47.3853 75.5653C40.0177 82.9656 28.0724 82.9656 20.7048 75.5653Z" fill="#1A202B"/>
<path d="M196.133 69.3804H195.991H195.849H195.738H195.572H195.529L194.858 69.3961C195.63 67.2428 196.051 64.9785 196.104 62.6906C196.192 62.6906 196.275 62.6906 196.339 62.6792C199.606 62.4894 200.722 61.0713 205.55 60.4749C209.875 59.9585 211.396 58.1109 211.669 57.7285C211.669 57.9739 211.678 58.2222 211.68 58.4733V58.4804C211.68 58.7329 211.688 58.9883 211.69 59.2465C211.69 59.5048 211.69 59.7659 211.699 60.0312V60.0412C211.699 60.2994 211.699 60.562 211.706 60.8273V60.8573C211.706 61.0998 211.706 61.3467 211.706 61.5949V61.7033C211.706 61.9345 211.706 62.1699 211.706 62.4053C211.706 62.4581 211.706 62.508 211.706 62.5594C211.706 62.7876 211.706 63.0202 211.706 63.2527V63.4339C211.706 63.7278 211.706 64.0232 211.706 64.3242C211.706 64.3242 210.369 66.5627 205.541 67.1591C200.713 67.7554 199.598 69.1736 196.33 69.3648H196.178L196.133 69.3804Z" fill="#051C2C"/>
<path d="M8.18576 62.3935L8.10623 62.3094L8.06076 62.2551L7.98974 62.1681L7.94145 62.1011C7.91873 62.0697 7.89743 62.0397 7.87612 62.0069C7.85481 61.9741 7.84203 61.9555 7.82641 61.9298C7.81078 61.9042 7.78379 61.8628 7.7639 61.8286C7.74402 61.7943 7.72982 61.7715 7.71419 61.7429L7.65453 61.6331L7.60482 61.5389C7.58635 61.5004 7.56646 61.4605 7.54799 61.4191C7.52953 61.3777 7.51533 61.352 7.49971 61.3178C7.48408 61.2835 7.46277 61.2336 7.44573 61.1922L7.39886 61.081C7.3804 61.0382 7.36335 60.9925 7.34631 60.9468C7.32926 60.9012 7.31647 60.8698 7.30226 60.8299C7.28806 60.7899 7.26818 60.7314 7.25113 60.6872C7.22272 60.6059 7.19574 60.5217 7.16875 60.4361C7.15455 60.3919 7.14034 60.3476 7.12756 60.3034C7.11477 60.2592 7.09631 60.1935 7.08211 60.1393C7.06791 60.0851 7.05796 60.0552 7.0466 60.0124C7.03524 59.9696 7.01676 59.8968 7.00256 59.8383C6.98835 59.7798 6.98126 59.7527 6.97131 59.7085C6.96137 59.6642 6.94432 59.5872 6.93154 59.5258C6.91875 59.4645 6.91166 59.4374 6.90314 59.3932L6.86478 59.1991C6.85626 59.1563 6.84915 59.1121 6.84063 59.0679L6.80654 58.8639L6.78523 58.7312C6.77529 58.6598 6.76393 58.5885 6.75398 58.5157C6.75398 58.4729 6.74404 58.4301 6.73836 58.3859C6.72842 58.3103 6.71848 58.2347 6.70996 58.1576C6.70996 58.1191 6.70995 58.0792 6.69859 58.0406C6.69006 57.9565 6.68155 57.8737 6.67445 57.7895C6.67445 57.761 6.67445 57.731 6.67445 57.7025C6.64036 57.2631 6.62188 56.8065 6.62614 56.3329C6.62614 56.3158 6.62614 56.2972 6.62614 56.2787C6.62614 56.1788 6.62614 56.0775 6.62614 55.9762C6.62614 55.942 6.62614 55.9063 6.62614 55.872C6.62614 55.775 6.63326 55.678 6.63894 55.5867C6.63894 55.5453 6.63894 55.504 6.63894 55.4626C6.63894 55.3684 6.65171 55.2728 6.65881 55.1772C6.65881 55.1344 6.66592 55.0902 6.66876 55.046C6.67728 54.9504 6.6858 54.8548 6.69574 54.7606C6.69574 54.715 6.7057 54.6693 6.70996 54.618C6.7199 54.5224 6.73127 54.4254 6.74405 54.3326L6.76109 54.1971C6.7753 54.0987 6.78807 54.0002 6.8037 53.9003C6.8037 53.8575 6.81648 53.8147 6.82358 53.7719C6.84063 53.6692 6.85625 53.5665 6.87472 53.4623C6.87472 53.4281 6.88892 53.3939 6.8946 53.3582C6.91591 53.2469 6.93579 53.1342 6.95994 53.0215C7.28521 54.4282 7.79942 55.4554 8.33776 55.8749C9.33205 56.6496 12.5252 57.3416 14.1104 57.6469C13.7775 59.1326 13.6098 60.6509 13.6104 62.1738C13.6104 62.8872 13.6459 63.572 13.7112 64.2411L13.4158 64.1812L13.3561 64.1684L13.0607 64.107H13.0322L12.6928 64.0328L12.6303 64.02L12.3462 63.9543L12.261 63.9344L11.9201 63.8531H11.9073L11.5564 63.766L11.4613 63.7418L11.1914 63.6704L11.0962 63.6447L10.7496 63.5492L10.7084 63.5363C10.6076 63.5078 10.5096 63.4778 10.4116 63.4479L10.3121 63.4179L10.0579 63.3366L9.97976 63.3123L9.67154 63.2053L9.60618 63.1811C9.52806 63.1525 9.45136 63.124 9.37608 63.094L9.29228 63.0598L9.06786 62.9656L9.02239 62.9457C8.93859 62.9086 8.86048 62.87 8.78519 62.8315L8.72837 62.8016C8.67156 62.7716 8.619 62.7416 8.56786 62.7117L8.51247 62.6774C8.44997 62.6375 8.39031 62.5975 8.33918 62.5576C8.28804 62.5177 8.25964 62.4905 8.21987 62.4535L8.18576 62.3935Z" fill="#051C2C"/>
<path d="M54.9006 69.0144C54.3765 68.9888 53.8524 68.9645 53.3282 68.9445C54.0673 66.8143 54.4512 64.5761 54.4646 62.3203C55.9475 62.3902 57.4247 62.4887 58.9076 62.5272C60.4133 62.5657 61.9203 62.5871 63.426 62.6057C65.4581 62.6313 67.4903 62.6489 69.5224 62.6584C71.9778 62.6727 74.4337 62.6827 76.8901 62.6884C79.6675 62.6941 82.4439 62.697 85.2194 62.697C88.2137 62.697 91.2084 62.697 94.2036 62.697C97.3124 62.6913 100.422 62.6846 103.533 62.677L112.899 62.647L121.99 62.6099C124.831 62.5985 127.671 62.5852 130.512 62.57C133.057 62.5586 135.6 62.5457 138.143 62.5315L144.579 62.4901L149.508 62.4587L152.632 62.4387H153.637C153.627 64.663 153.527 66.8858 153.578 69.1115L149.231 69.1386C145.892 69.1595 142.553 69.179 139.214 69.1971C134.564 69.2237 129.915 69.2475 125.265 69.2684C119.883 69.2922 114.501 69.3136 109.119 69.3326C103.532 69.3507 97.9454 69.364 92.3585 69.3725C86.9164 69.3782 81.4743 69.3754 76.0322 69.364C70.7851 69.3497 65.5367 69.3397 60.2897 69.2356C58.4914 69.2013 56.7017 69.1086 54.9063 69.0201C54.3836 68.9888 54.9077 69.0159 54.9006 69.0144Z" fill="#051C2C"/>
<path d="M174.876 35.6055C189.48 35.6055 201.319 47.4971 201.319 62.1651C201.32 64.244 201.079 66.3159 200.6 68.3384C199.202 68.8249 198.076 69.2715 196.339 69.3728C196.055 69.3885 195.552 69.4027 194.859 69.417C195.909 66.4889 196.31 63.3653 196.031 60.2654C195.753 57.1655 194.803 54.1642 193.248 51.4721C191.693 48.7799 189.57 46.4621 187.029 44.6811C184.487 42.9001 181.589 41.6991 178.536 41.1622C175.484 40.6254 172.352 40.7657 169.359 41.5734C166.367 42.381 163.586 43.8365 161.213 45.8376C158.839 47.8388 156.93 50.3372 155.62 53.1577C154.31 55.9782 153.629 59.0526 153.627 62.1651C153.627 64.2423 153.512 66.6834 153.567 69.1046L149.349 69.1317C148.736 66.8607 148.426 64.518 148.427 62.1651C148.432 47.4971 160.272 35.6055 174.876 35.6055Z" fill="#051C2C"/>
<path d="M34.0448 36.127C38.0461 36.1298 41.9926 37.0624 45.5755 38.8518C49.1585 40.6411 52.2807 43.2388 54.6981 46.4415C57.1155 49.6442 58.7625 53.3652 59.5103 57.3135C60.2581 61.2618 60.0864 65.3303 59.0086 69.2009C57.8922 69.1724 57.0342 69.1396 56.4774 69.1039C55.4476 69.0354 54.4036 68.9855 53.3284 68.9427C54.31 66.1248 54.6676 63.1257 54.3763 60.1547C54.0849 57.1837 53.1517 54.3123 51.6416 51.741C50.1315 49.1696 48.0809 46.9602 45.6331 45.2669C43.1852 43.5736 40.3989 42.4373 37.4687 41.9371C34.5385 41.4369 31.5349 41.585 28.6676 42.371C25.8002 43.1571 23.1382 44.5621 20.8672 46.488C18.5962 48.414 16.771 50.8145 15.5189 53.5221C14.2668 56.2296 13.618 59.179 13.6178 62.1644C13.6178 62.8777 13.6533 63.5626 13.7186 64.2317C12.5013 63.9877 10.6974 63.5797 9.45735 63.1003C11.2797 45.9755 19.7284 36.127 34.0448 36.127Z" fill="#051C2C"/>
<path d="M11.4731 39.8667C11.3611 38.968 11.4092 38.0564 11.6151 37.1745C12.152 34.8005 13.3111 28.7569 15.7087 25.1459C18.3975 22.6264 20.156 24.4925 19.9699 25.4612C18.8933 28.2219 15.2826 38.8909 14.1193 40.0137C13.1974 40.8925 12.1932 41.1237 11.4731 39.8667Z" fill="#FF7C33"/>
<path d="M117.681 4.64648C117.681 4.64648 119.963 6.94777 135.56 25.1511C135.56 25.1511 138.63 25.1911 139.668 25.1911C133.937 25.1797 126.763 24.9485 118.424 24.6404C111.214 24.3736 95.868 23.9941 79.1099 23.6146L77.5716 4.64648H117.681Z" fill="#2D457B"/>
<path d="M28.7718 22.5401C28.7718 22.5401 35.121 12.6145 41.5839 5.51378C46.0412 2.77735 69.2153 3.8859 69.2153 5.51378V23.3961C54.3151 23.0651 39.3383 22.7556 28.7718 22.5401Z" fill="#2D457B"/>
<path d="M33.8759 5.51523C35.0698 4.29484 35.9659 3.26562 36.6191 2.70091C37.036 2.34045 37.5835 2.24821 38.1328 2.20262C41.555 1.91859 54.9572 0.591884 84.0337 0.093735C116.678 -0.465535 124.374 1.58607 128.23 3.37516C124.219 4.64351 117.682 4.64351 117.682 4.64351C104.907 5.14285 51.2746 5.43248 33.8759 5.51523Z" fill="#051C2C"/>
<path d="M154.56 23.4814C153.499 24.3916 150.583 24.8753 146.097 25.075C141.803 21.2814 126.332 7.61635 122.699 4.37629L124.869 2.17773C126.022 2.47651 127.147 2.87708 128.23 3.37474C132.092 5.16527 154.56 23.4814 154.56 23.4814Z" fill="#2D457B"/>
<path d="M76.9035 33.4421H83.9406C84.0633 33.4421 84.181 33.3582 84.2678 33.2089C84.3546 33.0596 84.4033 32.8571 84.4033 32.6459C84.4033 32.4347 84.3546 32.2322 84.2678 32.0828C84.181 31.9335 84.0633 31.8496 83.9406 31.8496H76.9035C76.7808 31.8496 76.6631 31.9335 76.5763 32.0828C76.4895 32.2322 76.4408 32.4347 76.4408 32.6459C76.4408 32.8571 76.4895 33.0596 76.5763 33.2089C76.6631 33.3582 76.7808 33.4421 76.9035 33.4421Z" fill="#696259"/>
<path d="M132.485 23.582C134.342 25.5224 135.567 26.2685 135.381 27.3129C135.195 28.3572 132.522 29.0663 129.477 28.6554C126.431 28.2445 126.514 27.1517 126.548 26.658C126.582 26.1644 127.806 25.374 128.288 24.5565C128.769 23.739 132.485 23.582 132.485 23.582Z" fill="#051C2C"/>
<path d="M21.3524 74.9147C14.3426 67.8738 14.3426 56.4583 21.3524 49.4174C28.3622 42.3765 39.7274 42.3765 46.7373 49.4174C53.7471 56.4583 53.7471 67.8738 46.7373 74.9147C39.7274 81.9555 28.3622 81.9555 21.3524 74.9147Z" fill="#1A202B"/>
<path d="M31.7146 75.6548C24.2911 74.3628 19.3159 67.2709 20.6022 59.8145C21.8884 52.3582 28.9491 47.3609 36.3726 48.6529C43.796 49.9448 48.7712 57.0368 47.485 64.4931C46.1987 71.9495 39.1381 76.9468 31.7146 75.6548Z" fill="#387391"/>
<path d="M31.7146 75.6548C24.2911 74.3628 19.3159 67.2709 20.6022 59.8145C21.8884 52.3582 28.9491 47.3609 36.3726 48.6529C43.796 49.9448 48.7712 57.0368 47.485 64.4931C46.1987 71.9495 39.1381 76.9468 31.7146 75.6548Z" fill="#414445"/>
<path d="M28.9853 64.0014C27.9722 61.1904 29.4196 58.0868 32.2182 57.0692C35.0168 56.0517 38.1067 57.5055 39.1198 60.3165C40.1328 63.1275 38.6854 66.2311 35.8868 67.2487C33.0883 68.2663 29.9983 66.8124 28.9853 64.0014Z" fill="#1A202B"/>
<path d="M21.4073 56.9951C21.4683 56.8525 21.5308 56.6984 21.5962 56.5529L32.9965 61.4522L24.2268 52.6437C24.3376 52.5281 24.4512 52.4154 24.5663 52.3027L33.3828 61.1597L28.7437 49.5292C28.8858 49.4678 29.0392 49.4079 29.1897 49.3508L33.8004 60.9072V48.4648H34.0405H34.2805V60.9899L39.1866 49.4721C39.3358 49.5334 39.4821 49.5948 39.6284 49.6619L34.7492 61.1112L43.5147 52.307C43.6297 52.4197 43.7434 52.5324 43.8541 52.648L35.0376 61.5035L46.6154 56.8439C46.6779 56.9866 46.7362 57.1421 46.793 57.2919L35.2876 61.9244H47.6836C47.6836 62.0043 47.6836 62.0842 47.6836 62.1641C47.6836 62.244 47.6836 62.3253 47.6836 62.4052H35.2151L46.6808 67.3388C46.6211 67.4814 46.5586 67.6355 46.4933 67.781L35.093 62.8817L43.8584 71.6859C43.7476 71.8015 43.634 71.9142 43.5189 72.0269L34.7024 63.1699L39.3415 74.8004C39.1994 74.8618 39.046 74.9217 38.8955 74.9788L34.2848 63.4224V75.8719H34.0447H33.8047V63.344L28.8985 74.8618C28.7494 74.8004 28.6031 74.7377 28.4568 74.672L33.3345 63.2227L24.5705 72.0269C24.4555 71.9142 24.3418 71.8015 24.231 71.6859L33.0476 62.8289L21.4697 67.4814C21.4072 67.3388 21.349 67.1847 21.2922 67.0349L32.7976 62.4024H20.4016C20.4016 62.3225 20.4016 62.2426 20.4016 62.1612C20.4016 62.0799 20.4016 62.0014 20.4016 61.9216H32.87L21.4073 56.9951Z" fill="#A1A1A1"/>
<path d="M37.6338 62.1658C37.6338 62.8789 37.4233 63.5759 37.0289 64.1688C36.6345 64.7617 36.0739 65.2238 35.418 65.4966C34.7621 65.7695 34.0404 65.8409 33.3441 65.7018C32.6479 65.5627 32.0083 65.2193 31.5063 64.7151C31.0043 64.2109 30.6625 63.5685 30.524 62.8692C30.3855 62.1698 30.4566 61.4449 30.7282 60.7861C30.9999 60.1274 31.46 59.5643 32.0502 59.1681C32.6405 58.772 33.3345 58.5605 34.0444 58.5605C34.9964 58.5605 35.9093 58.9404 36.5825 59.6165C37.2556 60.2926 37.6338 61.2096 37.6338 62.1658Z" fill="#A1A1A1"/>
<path d="M162.185 74.9147C155.175 67.8738 155.175 56.4583 162.185 49.4174C169.195 42.3765 180.56 42.3765 187.57 49.4174C194.58 56.4582 194.58 67.8738 187.57 74.9147C180.56 81.9556 169.195 81.9556 162.185 74.9147Z" fill="#1A202B"/>
<path d="M165.231 71.8549C159.903 66.5039 159.903 57.8282 165.231 52.4772C170.558 47.1262 179.195 47.1262 184.523 52.4772C189.85 57.8282 189.85 66.5039 184.523 71.8549C179.195 77.2059 170.558 77.2059 165.231 71.8549Z" fill="#387391"/>
<path d="M165.231 71.8549C159.903 66.5039 159.903 57.8282 165.231 52.4772C170.558 47.1262 179.195 47.1262 184.523 52.4772C189.85 57.8282 189.85 66.5039 184.523 71.8549C179.195 77.2059 170.558 77.2059 165.231 71.8549Z" fill="#414445"/>
<path d="M169.897 64.2357C168.758 61.4738 170.064 58.3074 172.814 57.1634C175.563 56.0194 178.716 57.3309 179.855 60.0928C180.994 62.8548 179.688 66.0212 176.938 67.1652C174.188 68.3092 171.036 66.9977 169.897 64.2357Z" fill="#1A202B"/>
<path d="M162.238 56.9951C162.299 56.8525 162.362 56.6984 162.427 56.5529L173.826 61.4522L165.062 52.6437C165.173 52.5281 165.285 52.4154 165.4 52.3027L174.222 61.164L169.583 49.5335C169.725 49.4721 169.879 49.4122 170.028 49.3551L174.64 60.9114V48.4648H174.88H175.119V60.9899L180.026 49.4721C180.168 49.5334 180.322 49.5948 180.467 49.6619L175.589 61.1112L184.35 52.307C184.465 52.4197 184.579 52.5324 184.689 52.648L175.872 61.5035L187.451 56.8439C187.513 56.9866 187.571 57.1421 187.628 57.2919L176.123 61.9244H188.515C188.515 62.0043 188.515 62.0842 188.515 62.1641C188.515 62.244 188.515 62.3253 188.515 62.4052H176.045L187.512 67.3388C187.452 67.4814 187.39 67.6355 187.324 67.781L175.927 62.8774L184.692 71.6817C184.582 71.7972 184.468 71.9099 184.353 72.0226L175.536 63.1656L180.175 74.7962C180.033 74.8575 179.879 74.9174 179.729 74.9745L175.117 63.4182V75.8676H174.879C174.798 75.8676 174.718 75.8676 174.639 75.8676V63.344L169.731 74.8618C169.589 74.8004 169.436 74.7377 169.291 74.672L174.166 63.2184L165.4 72.0226C165.285 71.9099 165.173 71.7972 165.062 71.6817L173.879 62.8247L162.299 67.4814C162.238 67.3388 162.179 67.1847 162.122 67.0349L173.627 62.4024H161.233C161.233 62.3225 161.233 62.2426 161.233 62.1612C161.233 62.0799 161.233 62.0014 161.233 61.9216H173.705L162.238 56.9951Z" fill="#A1A1A1"/>
<path d="M178.466 62.1658C178.466 62.8793 178.256 63.5768 177.861 64.1701C177.467 64.7635 176.906 65.226 176.25 65.4991C175.594 65.7723 174.872 65.8438 174.175 65.7047C173.478 65.5656 172.838 65.222 172.336 64.7176C171.834 64.2131 171.492 63.5703 171.353 62.8705C171.215 62.1708 171.286 61.4455 171.558 60.7864C171.83 60.1273 172.29 59.564 172.881 59.1678C173.472 58.7716 174.166 58.5603 174.876 58.5605C175.828 58.5609 176.741 58.9409 177.414 59.6169C178.087 60.293 178.465 61.2098 178.466 62.1658Z" fill="#A1A1A1"/>
<path d="M128.823 18.0541C123.971 17.6689 122.362 17.9429 121.803 19.3981C121.245 20.8534 120.69 24.3773 121.971 25.9995C123.252 27.6217 128.914 26.9982 131.587 25.0479C133.809 23.4257 133.657 20.7677 133.197 20.0687C132.64 19.2298 130.332 18.174 128.823 18.0541Z" fill="#E7E7E7"/>
<path d="M91.5815 33.9963H97.7543C99.3465 33.9963 100.608 34.3943 101.539 35.1904C102.47 35.9865 102.935 37.1439 102.935 38.6626C102.935 39.6179 102.745 40.4323 102.365 41.1059C101.986 41.7673 101.447 42.2878 100.749 42.6675L102.77 46.8378H98.3789L96.6888 43.3289H95.862V46.8378H91.5815V33.9963ZM96.8357 40.0772C97.9502 40.0772 98.5075 39.6056 98.5075 38.6626C98.5075 37.7195 97.9502 37.248 96.8357 37.248H95.862V40.0772H96.8357Z" fill="#051C2C"/>
<path d="M111.072 47.1134C109.762 47.1134 108.574 46.8317 107.508 46.2683C106.455 45.7049 105.622 44.921 105.01 43.9168C104.397 42.9002 104.091 41.7367 104.091 40.4262C104.091 39.1157 104.397 37.9522 105.01 36.9357C105.622 35.9191 106.455 35.1292 107.508 34.5658C108.574 34.0024 109.762 33.7207 111.072 33.7207C112.371 33.7207 113.546 34.0024 114.6 34.5658C115.665 35.1292 116.504 35.9191 117.116 36.9357C117.729 37.9522 118.035 39.1157 118.035 40.4262C118.035 41.7367 117.729 42.9002 117.116 43.9168C116.504 44.921 115.665 45.7049 114.6 46.2683C113.546 46.8317 112.371 47.1134 111.072 47.1134ZM111.072 43.0166C111.807 43.0166 112.413 42.7839 112.891 42.3185C113.369 41.853 113.608 41.2223 113.608 40.4262C113.608 39.6301 113.369 38.9994 112.891 38.534C112.413 38.0686 111.807 37.8359 111.072 37.8359C110.325 37.8359 109.713 38.0686 109.235 38.534C108.758 38.9994 108.519 39.6301 108.519 40.4262C108.519 41.2223 108.758 41.853 109.235 42.3185C109.725 42.7839 110.337 43.0166 111.072 43.0166Z" fill="#051C2C"/>
<path d="M118.966 33.9963H122.806L126.057 40.7936L129.309 33.9963H133.149V46.8378H129.125V42.0796L126.756 46.8378H125.359L122.989 42.0796V46.8378H118.966V33.9963Z" fill="#051C2C"/>
<path d="M91.5347 47.6036H93.9424C94.6372 47.6036 95.2451 47.7258 95.7662 47.9701C96.2933 48.2145 96.7006 48.5636 96.9881 49.0174C97.2756 49.4713 97.4193 50.0065 97.4193 50.6233C97.4193 51.6357 97.1079 52.4037 96.485 52.9273C95.8681 53.4452 95.0205 53.7041 93.9424 53.7041H91.5347V47.6036ZM94.0862 51.784C94.8648 51.784 95.2541 51.3971 95.2541 50.6233C95.2541 50.2684 95.1523 49.9978 94.9487 49.8116C94.745 49.6196 94.4575 49.5236 94.0862 49.5236H93.6639V51.784H94.0862Z" fill="#051C2C"/>
<path d="M101.104 53.835C100.463 53.835 99.8817 53.7012 99.3606 53.4335C98.8455 53.1659 98.4382 52.7935 98.1388 52.3164C97.8393 51.8335 97.6896 51.2808 97.6896 50.6582C97.6896 50.0356 97.8393 49.4829 98.1388 49C98.4382 48.517 98.8455 48.1418 99.3606 47.8741C99.8817 47.6065 100.463 47.4727 101.104 47.4727C101.738 47.4727 102.313 47.6065 102.829 47.8741C103.35 48.1418 103.76 48.517 104.059 49C104.359 49.4829 104.509 50.0356 104.509 50.6582C104.509 51.2808 104.359 51.8335 104.059 52.3164C103.76 52.7935 103.35 53.1659 102.829 53.4335C102.313 53.7012 101.738 53.835 101.104 53.835ZM101.104 51.8888C101.463 51.8888 101.759 51.7782 101.993 51.5571C102.227 51.336 102.343 51.0364 102.343 50.6582C102.343 50.28 102.227 49.9804 101.993 49.7593C101.759 49.5382 101.463 49.4276 101.104 49.4276C100.738 49.4276 100.439 49.5382 100.205 49.7593C99.9715 49.9804 99.8547 50.28 99.8547 50.6582C99.8547 51.0364 99.9715 51.336 100.205 51.5571C100.445 51.7782 100.744 51.8888 101.104 51.8888Z" fill="#051C2C"/>
<path d="M104.958 47.6036H106.836L108.426 50.8327L110.016 47.6036H111.894V53.7041H109.927V51.4437L108.768 53.7041H108.085L106.926 51.4437V53.7041H104.958V47.6036Z" fill="#051C2C"/>
<path d="M112.785 47.6036H115.192C115.887 47.6036 116.495 47.7258 117.016 47.9701C117.543 48.2145 117.951 48.5636 118.238 49.0174C118.526 49.4713 118.669 50.0065 118.669 50.6233C118.669 51.6357 118.358 52.4037 117.735 52.9273C117.118 53.4452 116.271 53.7041 115.192 53.7041H112.785V47.6036ZM115.336 51.784C116.115 51.784 116.504 51.3971 116.504 50.6233C116.504 50.2684 116.402 49.9978 116.199 49.8116C115.995 49.6196 115.708 49.5236 115.336 49.5236H114.914V51.784H115.336Z" fill="#051C2C"/>
<path d="M122.354 53.835C121.713 53.835 121.132 53.7012 120.611 53.4335C120.096 53.1659 119.688 52.7935 119.389 52.3164C119.089 51.8335 118.94 51.2808 118.94 50.6582C118.94 50.0356 119.089 49.4829 119.389 49C119.688 48.517 120.096 48.1418 120.611 47.8741C121.132 47.6065 121.713 47.4727 122.354 47.4727C122.988 47.4727 123.563 47.6065 124.079 47.8741C124.6 48.1418 125.01 48.517 125.309 49C125.609 49.4829 125.759 50.0356 125.759 50.6582C125.759 51.2808 125.609 51.8335 125.309 52.3164C125.01 52.7935 124.6 53.1659 124.079 53.4335C123.563 53.7012 122.988 53.835 122.354 53.835ZM122.354 51.8888C122.713 51.8888 123.009 51.7782 123.243 51.5571C123.477 51.336 123.593 51.0364 123.593 50.6582C123.593 50.28 123.477 49.9804 123.243 49.7593C123.009 49.5382 122.713 49.4276 122.354 49.4276C121.988 49.4276 121.689 49.5382 121.455 49.7593C121.222 49.9804 121.105 50.28 121.105 50.6582C121.105 51.0364 121.222 51.336 121.455 51.5571C121.695 51.7782 121.994 51.8888 122.354 51.8888Z" fill="#051C2C"/>
<path d="M126.208 47.6036H128.086L129.676 50.8327L131.266 47.6036H133.144V53.7041H131.177V51.4437L130.018 53.7041H129.335L128.176 51.4437V53.7041H126.208V47.6036Z" fill="#051C2C"/>
<path d="M111.148 47.5501C116.06 47.5501 120.042 43.568 120.042 38.6559C120.042 33.7438 116.06 29.7617 111.148 29.7617C106.267 29.7617 102.304 33.6936 102.254 38.5628L102.253 38.5623V47.5501H110.96L110.958 47.5481C111.021 47.5494 111.084 47.5501 111.148 47.5501Z" fill="white"/>
<path d="M111.147 46.7921C115.642 46.7921 119.285 43.1489 119.285 38.6548C119.285 34.1607 115.642 30.5176 111.147 30.5176C106.682 30.5176 103.056 34.1148 103.011 38.5696L103.01 38.5692V46.7921H110.976L110.974 46.7903C111.032 46.7915 111.09 46.7921 111.147 46.7921Z" fill="url(#paint0_linear)"/>
<path fill-rule="evenodd" clip-rule="evenodd" d="M115.259 38.5685C115.259 40.8392 113.418 42.6799 111.148 42.6799C108.877 42.6799 107.036 40.8392 107.036 38.5685C107.036 36.2978 108.877 34.457 111.148 34.457C113.418 34.457 115.259 36.2978 115.259 38.5685ZM109.859 41.0017C110.514 40.2959 111.633 40.2894 112.293 40.9912C112.498 41.209 112.572 41.533 112.325 41.7007C112.106 41.8495 111.726 41.9875 111.073 41.9875C110.411 41.9875 110.034 41.8453 109.821 41.694C109.585 41.527 109.662 41.2133 109.859 41.0017ZM114.113 38.5194C114.389 38.7002 114.508 39.0438 114.251 39.6949C113.993 40.3459 113.929 40.5087 113.653 40.5991C113.101 40.6443 112.779 40.2826 112.457 39.6497C112.227 39.0167 112.779 38.6098 113.147 38.5194C113.147 38.5194 113.791 38.3385 114.113 38.5194ZM108.044 39.6949C107.786 39.0438 107.906 38.7002 108.182 38.5194C108.504 38.3385 109.148 38.5194 109.148 38.5194C109.516 38.6098 110.068 39.0167 109.838 39.6497C109.516 40.2826 109.194 40.6443 108.642 40.5991C108.366 40.5087 108.302 40.3459 108.044 39.6949ZM113.16 37.5186C113.671 37.6517 113.993 37.7357 114.036 37.5402C114.192 36.8183 112.743 35.4088 111.148 35.4088C109.553 35.4088 108.099 36.8192 108.26 37.5475C108.302 37.7382 108.621 37.6545 109.127 37.5219C109.64 37.3874 110.345 37.2025 111.148 37.2025C111.946 37.2025 112.648 37.3852 113.16 37.5186Z" fill="white"/>
<path d="M91.5347 58.665H91.924V57.2749H92.6217V58.665H93.011V56.9304H91.5347V58.665Z" fill="#051C2C"/>
<path d="M93.4356 58.665H94.783V58.3255H93.8224V57.9612H94.6566V57.6218H93.8224V57.2699H94.7704V56.9304H93.4356V58.665Z" fill="#051C2C"/>
<path d="M95.1291 58.665H95.5184V58.1446H95.8142C96.2111 58.1446 96.5296 57.9365 96.5296 57.535C96.5296 57.1757 96.2743 56.9304 95.8521 56.9304H95.1291V58.665ZM95.5184 57.8051V57.2749H95.8193C96.0139 57.2749 96.1353 57.3665 96.1353 57.5375C96.1353 57.6911 96.0215 57.8051 95.8269 57.8051H95.5184Z" fill="#051C2C"/>
<path d="M99.2471 56.9304H98.8578V58.3205H98.2258V56.9304H97.8365V58.3205H97.207V56.9304H96.8177V58.665H99.2471V56.9304Z" fill="#051C2C"/>
<path d="M99.5199 58.665H99.9168L100.079 58.2759H100.827L100.989 58.665H101.396L100.637 56.918H100.278L99.5199 58.665ZM100.218 57.9389L100.453 57.3764L100.688 57.9389H100.218Z" fill="#051C2C"/>
<path d="M103.286 58.6947C103.832 58.6947 104.229 58.2908 104.229 57.7977C104.229 57.2996 103.837 56.9007 103.291 56.9007C102.745 56.9007 102.348 57.3046 102.348 57.7977C102.348 58.2957 102.74 58.6947 103.286 58.6947ZM103.291 58.3428C102.978 58.3428 102.755 58.095 102.755 57.7977C102.755 57.4954 102.973 57.2526 103.286 57.2526C103.6 57.2526 103.822 57.5003 103.822 57.7977C103.822 58.1 103.605 58.3428 103.291 58.3428Z" fill="#051C2C"/>
<path d="M104.574 58.665H104.964V57.9687H105.682V58.665H106.071V56.9304H105.682V57.6168H104.964V56.9304H104.574V58.665Z" fill="#051C2C"/>
<path d="M106.73 56.9304V57.2897C106.73 58.2239 106.611 58.3552 106.402 58.3552C106.376 58.3552 106.359 58.3527 106.341 58.3503L106.316 58.665C106.364 58.6773 106.457 58.6873 106.52 58.6873C106.925 58.6873 107.094 58.4271 107.094 57.4062V57.2749H107.605V58.665H107.994V56.9304H106.73Z" fill="#051C2C"/>
<path d="M108.267 58.665H108.663L108.825 58.2759H109.574L109.735 58.665H110.142L109.384 56.918H109.025L108.267 58.665ZM108.964 57.9389L109.199 57.3764L109.435 57.9389H108.964Z" fill="#051C2C"/>
<path d="M111.94 56.9304H111.578L110.8 58.0678V56.9304H110.415V58.665H110.782L111.556 57.5276V58.665H111.94V56.9304ZM111.184 56.7991C111.417 56.7991 111.573 56.6603 111.609 56.4225L111.384 56.3828C111.351 56.4844 111.29 56.5488 111.184 56.5488C111.078 56.5488 111.017 56.4844 110.984 56.3828L110.759 56.4225C110.795 56.6603 110.951 56.7991 111.184 56.7991Z" fill="#051C2C"/>
<path d="M112.366 58.665H112.755V57.9687H113.473V58.665H113.862V56.9304H113.473V57.6168H112.755V56.9304H112.366V58.665Z" fill="#051C2C"/>
<path d="M114.893 58.665H115.29L115.451 58.2759H116.2L116.361 58.665H116.768L116.01 56.918H115.651L114.893 58.665ZM115.59 57.9389L115.825 57.3764L116.061 57.9389H115.59Z" fill="#051C2C"/>
<path d="M117.042 58.665H117.883C118.283 58.665 118.546 58.5064 118.546 58.1892C118.546 57.9513 118.419 57.8349 118.215 57.758C118.341 57.6887 118.447 57.5796 118.447 57.3839C118.447 57.26 118.407 57.1633 118.326 57.0841C118.225 56.9849 118.065 56.9304 117.863 56.9304H117.042V58.665ZM117.421 57.6317V57.2649H117.805C117.969 57.2649 118.06 57.3294 118.06 57.4434C118.06 57.5772 117.952 57.6317 117.78 57.6317H117.421ZM117.421 58.3304V57.9488H117.871C118.07 57.9488 118.159 58.0207 118.159 58.1372C118.159 58.271 118.055 58.3304 117.883 58.3304H117.421Z" fill="#051C2C"/>
<path d="M119.278 58.665H119.667V57.2823H120.206V56.9304H118.74V57.2823H119.278V58.665Z" fill="#051C2C"/>
<path d="M121.365 58.6947C121.911 58.6947 122.308 58.2908 122.308 57.7977C122.308 57.2996 121.916 56.9007 121.37 56.9007C120.824 56.9007 120.427 57.3046 120.427 57.7977C120.427 58.2957 120.819 58.6947 121.365 58.6947ZM121.37 58.3428C121.056 58.3428 120.834 58.095 120.834 57.7977C120.834 57.4954 121.051 57.2526 121.365 57.2526C121.678 57.2526 121.901 57.5003 121.901 57.7977C121.901 58.1 121.683 58.3428 121.37 58.3428Z" fill="#051C2C"/>
<path d="M125.082 56.9304H124.693V58.3205H124.061V56.9304H123.672V58.3205H123.042V56.9304H122.653V58.665H125.082V56.9304Z" fill="#051C2C"/>
<path d="M125.507 58.665H125.896V58.1347L126.101 57.9265L126.649 58.665H127.117L126.364 57.6664L127.084 56.9304H126.614L125.896 57.6887V56.9304H125.507V58.665Z" fill="#051C2C"/>
<path d="M128.213 58.6947C128.759 58.6947 129.156 58.2908 129.156 57.7977C129.156 57.2996 128.764 56.9007 128.218 56.9007C127.672 56.9007 127.275 57.3046 127.275 57.7977C127.275 58.2957 127.667 58.6947 128.213 58.6947ZM128.218 58.3428C127.904 58.3428 127.682 58.095 127.682 57.7977C127.682 57.4954 127.899 57.2526 128.213 57.2526C128.526 57.2526 128.749 57.5003 128.749 57.7977C128.749 58.1 128.531 58.3428 128.218 58.3428Z" fill="#051C2C"/>
<path d="M129.736 56.9304V57.2897C129.736 58.2239 129.617 58.3552 129.408 58.3552C129.382 58.3552 129.365 58.3527 129.347 58.3503L129.322 58.665C129.37 58.6773 129.463 58.6873 129.526 58.6873C129.931 58.6873 130.1 58.4271 130.1 57.4062V57.2749H130.611V58.665H131V56.9304H129.736Z" fill="#051C2C"/>
<path d="M131.273 58.665H131.67L131.831 58.2759H132.58L132.741 58.665H133.148L132.39 56.918H132.031L131.273 58.665ZM131.97 57.9389L132.205 57.3764L132.441 57.9389H131.97Z" fill="#051C2C"/>
<defs>
<linearGradient id="paint0_linear" x1="116.972" y1="32.8303" x2="103.01" y2="46.7921" gradientUnits="userSpaceOnUse">
<stop stop-color="#FF6900"/>
<stop offset="0.0001" stop-color="#F77D22"/>
<stop offset="1" stop-color="#E40046"/>
</linearGradient>
</defs>
</svg>
