<svg width="124" height="55" viewBox="0 0 124 55" fill="none" xmlns="http://www.w3.org/2000/svg">
<path d="M101.491 36.3242H94.3994C94.0575 36.3242 93.7803 36.6013 93.7803 36.9432V42.203C93.7803 42.5448 94.0575 42.8219 94.3994 42.8219H101.491C101.833 42.8219 102.11 42.5448 102.11 42.203V36.9432C102.11 36.6013 101.833 36.3242 101.491 36.3242Z" fill="#FE5858"/>
<path d="M100.037 41.8547C100.254 41.8034 100.389 41.5855 100.338 41.368C100.286 41.1506 100.068 41.0159 99.8509 41.0672C99.6334 41.1185 99.4986 41.3364 99.55 41.5539C99.6013 41.7713 99.8193 41.906 100.037 41.8547Z" fill="#1C2942"/>
<path d="M96.3513 41.4592C96.3513 41.5393 96.3276 41.6175 96.2831 41.684C96.2386 41.7505 96.1754 41.8024 96.1015 41.833C96.0276 41.8636 95.9462 41.8716 95.8677 41.856C95.7892 41.8404 95.7171 41.8019 95.6605 41.7453C95.6039 41.6887 95.5654 41.6166 95.5498 41.5382C95.5342 41.4597 95.5422 41.3783 95.5728 41.3044C95.6034 41.2305 95.6553 41.1673 95.7218 41.1229C95.7884 41.0784 95.8666 41.0547 95.9466 41.0547C96.054 41.0547 96.1569 41.0973 96.2328 41.1732C96.3087 41.249 96.3513 41.3519 96.3513 41.4592Z" fill="#1C2942"/>
<path d="M91.6489 46.9063L93.2567 47.5004L119.129 45.3248C119.129 45.3248 121.336 39.122 120.048 37.0933C118.76 35.0645 115.434 29.0254 111.526 28.4637C107.618 27.9019 97.0968 26.9918 94.5457 28.7213C91.9946 30.4508 88.967 44.3704 91.6489 46.9063Z" fill="#1C2942"/>
<path d="M7.96094 45.4499L34.2141 46.7575C34.2141 46.7575 36.7755 36.7765 35.4853 34.5123C34.1952 32.2481 29.9639 27.7542 26.3912 27.4782C22.8185 27.2022 18.7088 26.405 14.8335 27.9833C10.9583 29.5615 6.40015 38.3893 7.96094 45.4499Z" fill="#1C2942"/>
<path d="M8.8189 45.2623C8.81154 45.4276 8.76787 45.5892 8.69098 45.7357C8.61408 45.8822 8.50585 46.01 8.37398 46.11C8.24212 46.21 8.08984 46.2797 7.92798 46.3142C7.76612 46.3487 7.59865 46.3471 7.43746 46.3096C4.93338 45.7241 -0.174199 44.3532 0.00354479 42.9019C0.239096 40.9823 0.829596 40.709 0.748557 39.7195C0.667519 38.73 0.262867 33.8467 0.971683 32.7124C1.6805 31.5782 2.59623 30.9041 2.65242 30.2424C2.7086 29.5808 4.06249 25.9873 5.58871 24.7504C8.45963 22.4241 13.6158 20.3538 16.9632 19.5204C22.0417 18.2554 28.2303 17.3015 28.2303 17.3015C28.2303 17.3015 40.8782 5.87786 54.3657 1.90793C67.8532 -2.062 95.5083 1.30137 97.5651 1.89011C102.521 3.3128 108.953 10.5273 110.228 11.8284C111.504 13.1296 116.965 20.1199 118.094 20.6325C119.223 21.1451 121.051 28.2521 122.05 28.7652C123.049 29.2783 123.471 30.9905 123.913 33.9569C124.354 36.9233 122.985 42.4941 122.411 43.8904C121.838 45.2866 119.129 45.3276 119.129 45.3276C119.129 45.3276 119.864 37.1236 114.985 33.4989C110.105 29.8741 103.814 29.0434 97.9378 33.757C92.0615 38.4707 93.256 47.5049 93.256 47.5049L33.7004 46.7525C33.7004 46.7525 33.8862 37.2355 28.8029 33.2158C23.7197 29.1962 16.7191 29.5008 12.7336 32.5342C9.60551 34.9156 8.95396 42.2257 8.8189 45.2623Z" fill="#FE5858"/>
<path d="M8.25598 23.3749C8.25598 23.3749 8.77949 23.0146 9.36459 23.8426C9.94968 24.6706 6.4364 29.7451 4.81185 30.1221C3.1873 30.4991 3.66759 28.7718 4.17867 27.5992C4.68975 26.4266 6.28783 24.3298 8.25598 23.3749Z" fill="#FCF8EB"/>
<path d="M5.53759 32.9942C5.53759 32.9942 6.63755 31.4144 5.24477 31.1038C3.85199 30.7932 2.3463 31.6979 2.0605 33.2222C1.77471 34.7464 2.77526 35.3038 3.6494 34.8501C4.52353 34.3964 5.53759 32.9942 5.53759 32.9942Z" fill="#FCF8EB"/>
<path d="M26.7854 34.9991C24.553 33.6909 20.3688 32.4205 16.1423 34.8959C11.9159 37.3713 10.5502 40.8325 10.4599 43.606C10.3697 46.3796 11.4864 52.5759 18.0597 54.4917C24.633 56.4075 29.5407 52.4419 30.7816 50.1367C32.4851 46.9726 32.8865 38.5753 26.7854 34.9991Z" fill="#1C2942"/>
<path d="M27.1719 50.284C30.27 47.1867 30.27 42.1649 27.1719 39.0676C24.0739 35.9702 19.0509 35.9702 15.9528 39.0676C12.8547 42.1649 12.8547 47.1867 15.9528 50.284C19.0509 53.3813 24.0739 53.3813 27.1719 50.284Z" fill="#FCF8EB"/>
<path d="M24.3612 41.1567C24.9792 40.5625 25.4114 39.4925 24.9193 38.9281C24.3115 38.2324 21.0019 37.5999 19.7263 38.456C18.9505 38.9767 19.2941 39.9273 19.6809 40.5939C20.4366 40.245 21.2744 40.1128 22.1008 40.2122C22.9273 40.3116 23.7098 40.6386 24.3612 41.1567V41.1567Z" fill="#1C2942"/>
<path d="M27.7372 43.8438C27.4255 43.0407 26.5486 43.085 25.8355 43.2789C26.1176 44.1455 26.1298 45.0772 25.8705 45.9509C25.6111 46.8246 25.0925 47.5989 24.3833 48.1713C24.876 48.7163 25.6021 49.095 26.137 48.8054C26.9506 48.3647 28.2931 45.2757 27.7372 43.8438Z" fill="#1C2942"/>
<path d="M18.0306 47.4492C17.3861 47.9677 16.8869 48.8816 17.2651 49.4763C17.761 50.2573 20.9388 51.3813 22.3273 50.7278C23.0355 50.3923 23.015 49.6432 22.8205 48.988C21.9598 49.2387 21.0438 49.2262 20.1903 48.9523C19.3367 48.6784 18.5846 48.1555 18.0306 47.4508V47.4492Z" fill="#1C2942"/>
<path d="M18.2434 41.6479C17.668 40.976 16.4822 40.4699 15.8895 41.0063C15.2034 41.6269 14.6302 44.9459 15.5113 46.2055C15.9803 46.8774 16.7658 46.683 17.3968 46.3551C17.08 45.5704 16.9915 44.7121 17.1416 43.8792C17.2917 43.0463 17.6742 42.2728 18.245 41.6479H18.2434Z" fill="#1C2942"/>
<path d="M112.276 34.9991C110.044 33.6909 105.86 32.4205 101.633 34.8959C97.4064 37.3713 96.0417 40.8324 95.9498 43.606C95.858 46.3795 96.9763 52.5759 103.55 54.4917C110.123 56.4075 115.03 52.4419 116.272 50.1367C117.976 46.9726 118.377 38.5753 112.276 34.9991Z" fill="#1C2942"/>
<path d="M112.663 50.284C115.761 47.1867 115.761 42.1649 112.663 39.0676C109.565 35.9702 104.542 35.9702 101.444 39.0676C98.3455 42.1649 98.3455 47.1867 101.444 50.284C104.542 53.3813 109.565 53.3813 112.663 50.284Z" fill="#FCF8EB"/>
<path d="M109.852 41.1582C110.469 40.5641 110.902 39.4941 110.409 38.9297C109.801 38.2324 106.492 37.5999 105.216 38.456C104.441 38.9766 104.784 39.9273 105.171 40.5938C105.927 40.2451 106.765 40.1133 107.591 40.2129C108.418 40.3126 109.2 40.6399 109.852 41.1582V41.1582Z" fill="#1C2942"/>
<path d="M113.227 43.8438C112.916 43.0407 112.039 43.085 111.326 43.2789C111.608 44.1454 111.621 45.0773 111.361 45.9511C111.102 46.8249 110.583 47.5992 109.874 48.1713C110.366 48.7163 111.093 49.095 111.628 48.8054C112.441 48.3647 113.783 45.2757 113.227 43.8438Z" fill="#1C2942"/>
<path d="M103.52 47.4475C102.876 47.966 102.378 48.8783 102.756 49.4724C103.253 50.2534 106.43 51.3774 107.819 50.7239C108.527 50.3906 108.504 49.6393 108.312 48.9825C107.451 49.2332 106.535 49.2207 105.682 48.9468C104.828 48.6729 104.076 48.15 103.522 47.4453L103.52 47.4475Z" fill="#1C2942"/>
<path d="M103.733 41.6479C103.158 40.976 101.972 40.4699 101.379 41.0063C100.693 41.6269 100.12 44.9459 101.001 46.2055C101.47 46.8774 102.255 46.683 102.886 46.3551C102.57 45.5703 102.482 44.7121 102.632 43.8793C102.782 43.0465 103.164 42.2731 103.735 41.6479H103.733Z" fill="#1C2942"/>
<path d="M118.76 20.9167C118.76 20.9167 115.167 19.4843 114.204 20.193C113.241 20.9016 118.05 26.345 118.856 27.2578C119.663 28.1706 120.565 28.5433 121.582 28.1863C122.599 27.8293 120.82 21.5811 118.76 20.9167Z" fill="#D2961D"/>
<path d="M98.2725 10.5994C96.3865 8.24927 91.4383 4.44786 87.3226 3.23311C83.207 2.01837 70.2576 2.38998 64.7529 2.56174C59.2483 2.7335 56.3541 3.61498 48.4307 6.99347C41.5819 9.91448 34.2523 15.8046 32.3895 17.3488C32.0816 17.6046 31.8592 17.9483 31.7519 18.334C31.404 19.5763 30.8011 22.4006 32.0318 23.8006C33.6358 25.6262 38.9795 39.7289 39.2712 41.4368C39.563 43.1447 64.7594 43.0383 66.7216 42.126C68.6838 41.2137 68.6049 22.6998 69.8821 16.1967C69.8821 16.1967 73.7509 15.9904 74.035 15.986C75.5769 15.9628 100.907 15.7992 100.717 14.8772C100.527 13.9552 100.157 12.9489 98.2725 10.5994Z" fill="#1C2942"/>
<path d="M71.6643 1.55588L69.6318 18.2339L74.6006 17.9633L74.8356 1.50781L71.6643 1.55588Z" fill="#FE5858"/>
<path d="M100.387 33.4679C100.349 33.4679 100.313 33.4563 100.283 33.4347C100.253 33.4131 100.231 33.3826 100.219 33.3475C99.675 31.7168 100.198 30.1451 100.751 28.4804C101.174 27.2105 101.611 25.8975 101.663 24.3976C101.753 21.8287 101.123 18.003 100.745 15.9516C100.695 15.6799 100.565 15.4294 100.371 15.2326C100.177 15.0357 99.9286 14.9016 99.6577 14.8476C99.6139 14.8362 99.5762 14.8085 99.5522 14.7702C99.5283 14.7318 99.5199 14.6858 99.5289 14.6415C99.5379 14.5972 99.5636 14.558 99.6006 14.532C99.6376 14.5061 99.6832 14.4953 99.7279 14.5019C100.068 14.5697 100.38 14.738 100.623 14.9849C100.866 15.2318 101.029 15.546 101.092 15.8868C101.477 17.9528 102.108 21.8077 102.018 24.41C101.964 25.9607 101.518 27.2986 101.088 28.5922C100.53 30.2666 100.049 31.7168 100.556 33.2373C100.563 33.2593 100.566 33.2825 100.564 33.3056C100.563 33.3287 100.556 33.3513 100.546 33.372C100.536 33.3928 100.521 33.4112 100.504 33.4264C100.486 33.4415 100.466 33.4531 100.444 33.4604C100.425 33.4662 100.406 33.4687 100.387 33.4679V33.4679Z" fill="#1C2942"/>
<path d="M90.8052 17.9153C90.8052 17.9153 99.3358 17.0846 99.6654 17.4832C99.9949 17.8818 100.22 19.0404 99.6508 19.2527C99.0813 19.465 90.8765 19.7582 90.7906 19.5768C90.7047 19.3953 90.8052 17.9153 90.8052 17.9153Z" fill="#1C2942"/>
<path d="M31.9289 38.305C31.8847 38.305 31.842 38.2883 31.8095 38.2583C31.7769 38.2283 31.7569 38.1871 31.7534 38.1429C31.6518 36.6673 30.7885 33.6885 30.158 31.5134C29.8063 30.2976 29.528 29.3373 29.4502 28.8911C29.2341 27.6413 28.8522 19.3628 28.836 19.0106C28.8341 18.987 28.8371 18.9632 28.8446 18.9408C28.8521 18.9183 28.8641 18.8976 28.8798 18.8799C28.8955 18.8621 28.9146 18.8477 28.936 18.8375C28.9574 18.8273 28.9806 18.8215 29.0043 18.8205C29.0279 18.8194 29.0516 18.8232 29.0738 18.8314C29.096 18.8397 29.1163 18.8523 29.1335 18.8686C29.1507 18.8849 29.1645 18.9045 29.174 18.9262C29.1835 18.9479 29.1885 18.9712 29.1888 18.9949C29.1925 19.0808 29.5842 27.6029 29.7976 28.8306C29.8722 29.2579 30.1618 30.2576 30.4973 31.4151C31.1321 33.6053 32.0013 36.6052 32.1056 38.1186C32.1087 38.165 32.0935 38.2107 32.0631 38.2459C32.0328 38.281 31.9898 38.3029 31.9435 38.3066L31.9289 38.305Z" fill="#1C2942"/>
<path d="M34.7472 14.5039L34.6462 16.1734C34.5333 18.045 36.1849 18.0525 38.0585 17.9748L71.8482 16.5704L72.979 42.5608L50.2812 44.9103L37.3199 42.9075C37.3199 42.9075 32.6446 34.413 32.2761 33.3327C31.9077 32.2525 30.2334 19.6907 30.2334 19.6907L34.7472 14.5039Z" fill="#FE5858"/>
<path d="M59.4819 20.8216C59.4819 20.8216 68.012 19.9909 68.3421 20.3895C68.6722 20.7881 68.897 21.9467 68.3275 22.1589C67.7581 22.3712 59.5532 22.6645 59.4673 22.483C59.3814 22.3015 59.4819 20.8216 59.4819 20.8216Z" fill="#1C2942"/>
</svg>
