<svg width="626" height="626" viewBox="0 0 626 626" fill="none" xmlns="http://www.w3.org/2000/svg">
<circle cx="312.631" cy="313.45" r="255.195" transform="rotate(-15 312.631 313.45)" fill="#636DF9"/>
<mask id="mask0" style="mask-type:alpha" maskUnits="userSpaceOnUse" x="0" y="0" width="626" height="626">
<circle cx="312.631" cy="313.45" r="255.195" transform="rotate(-15 312.631 313.45)" fill="#636DF9"/>
</mask>
<g mask="url(#mask0)">
<path d="M462.228 102.284C442.381 96.3996 421.296 113.25 431.141 127.061C443.931 145.004 464.138 171.866 435.236 179.61C406.617 187.278 377.543 172.743 380.111 207.767C382.68 242.79 403.84 274.697 356.056 290.297C308.272 305.896 295.639 330.284 314.307 356.003C332.975 381.723 390.362 354.058 387.095 406.134C384.285 450.92 433.627 461 460.029 439.329C486.43 417.657 522.609 422.56 543.768 432.737" stroke="#9097FE" stroke-width="0.5"/>
<path d="M484.808 118.828C465.016 113.574 443.642 121.155 453.382 133.753C466.034 150.12 476.245 181.982 447.305 189.295C418.649 196.537 395.413 176.614 397.726 208.724C400.039 240.835 429.966 281.201 382.099 295.857C334.233 310.513 312.266 325.072 330.736 348.531C349.206 371.99 410.987 342.284 407.345 390.08C404.213 431.184 427.418 438.663 453.96 418.592C480.501 398.52 537.476 407.768 558.548 416.95" stroke="#9097FE" stroke-width="0.5"/>
<path d="M507.812 134.677C488.02 129.423 465.414 127.757 475.154 140.356C487.806 156.723 491.716 190.703 464.777 200.993C437.166 211.54 412.087 193.095 413.824 217.206C416.137 249.316 447.741 286.16 399.874 300.816C352.008 315.472 341.312 325.725 350.161 340.763C359.01 355.801 424.125 329.934 420.483 377.73C418.014 410.136 435.442 418.267 456.605 399.796C481.675 377.915 560.705 401.539 581.777 410.722" stroke="#9097FE" stroke-width="0.5"/>
<path d="M533.58 140.575C513.788 135.321 486.58 137.961 496.32 150.56C508.972 166.927 504.282 203.209 477.343 213.499C449.731 224.046 428.253 205.661 429.99 229.772C432.303 261.882 469.058 291.199 421.193 305.859C385.705 316.728 368.284 317.474 377.133 332.512C385.982 347.55 435.23 319.79 431.588 367.586C429.597 393.72 442.908 398.366 462.411 381.343C487.482 359.462 584.937 395.047 606.009 404.23" stroke="#9097FE" stroke-width="0.5"/>
<path d="M558.186 133.983C538.394 128.729 506.082 141.951 515.822 154.549C528.474 170.916 517.806 215.461 490.867 225.751C463.256 236.298 449.16 221.056 447.558 239.916C446.267 255.11 467.035 278.218 450.242 299.615C439.91 312.78 405.405 315.723 408.221 326.234C411.038 336.744 450.255 307.065 446.613 354.861C444.621 380.995 456.143 369.955 479.303 358.39C501.431 347.341 557.82 376.263 568.841 375.357" stroke="#9097FE" stroke-width="0.5"/>
<path d="M596.182 123.803C576.39 118.548 530.732 156.703 532.731 175.623C534.905 196.196 530.619 221.246 503.679 231.537C476.068 242.084 465.987 238.704 465.762 252.445C465.584 263.245 476.488 269.543 470.713 290.035C466.174 306.142 447.288 309.62 450.104 320.131C452.92 330.641 462.116 326.64 460.523 347.547C459.288 363.751 475.005 342.274 502.189 341.504C527.83 340.778 568.678 372.84 576.969 352.187" stroke="#9097FE" stroke-width="0.5"/>
<path d="M613.606 119.139C593.814 113.885 543.58 164.525 545.579 183.446C547.753 204.018 544.901 228.686 517.962 238.976C490.351 249.523 480.426 242.009 480.2 255.75C480.023 266.55 493.911 264.88 488.137 285.371C483.598 301.478 464.492 307.066 467.527 315.467C470.562 323.868 475.024 325.231 477.132 329.276C484.643 343.687 487.884 324.491 515.069 323.721C540.71 322.995 559.901 357.277 568.191 336.623" stroke="#9097FE" stroke-width="0.5"/>
<path d="M632.413 114.094C612.621 108.84 557.354 149.054 559.354 167.974C561.527 188.547 563.534 236.486 535.678 243.95C482.653 258.158 499.337 251.638 500.518 278.97C501.24 295.689 483.373 300.974 486.189 311.484C489.005 321.994 503.769 312.125 520.662 314.023C547.585 317.049 562.175 342.837 569.329 304.567" stroke="#9097FE" stroke-width="0.5"/>
<path d="M628.559 134.098C611.328 129.523 567.595 173.61 569.336 190.082C571.228 207.992 569.143 245.152 544.672 250.758C505.115 259.822 512.939 259.261 513.733 277.637C514.362 292.192 501.345 293.521 503.797 302.672C506.249 311.822 516.491 303.915 531.198 305.568C554.637 308.203 561.104 318.963 567.333 285.646" stroke="#9097FE" stroke-width="0.5"/>
<path d="M599.192 184.805C588.15 181.874 566.51 228.421 567.626 238.976C568.839 250.453 565.543 251.803 550.004 255.967C520.423 263.893 524.953 261.536 525.612 276.784C526.015 286.111 519.701 287.518 521.272 293.381C522.843 299.245 530.548 295.467 539.972 296.526C554.992 298.214 561.735 297.189 565.726 275.839" stroke="#9097FE" stroke-width="0.5"/>
<path d="M581.025 220.369C574.396 218.609 561.404 246.555 562.074 252.892C562.802 259.782 560.824 260.593 551.494 263.093C533.734 267.852 536.454 266.436 536.849 275.591C537.091 281.191 533.301 282.035 534.244 285.556C535.187 289.076 539.813 286.808 545.471 287.444C554.488 288.457 556.651 278.271 563.995 265.551" stroke="#9097FE" stroke-width="0.5"/>
<path d="M451.267 87.2097C429.23 80.6761 401.629 105.445 412.561 120.781C426.763 140.703 445.056 157.641 412.964 166.24C381.187 174.755 361.79 168.243 364.105 199.813C366.956 238.702 391.552 264.621 338.494 281.942C285.436 299.263 277.089 338.522 297.817 367.081C318.546 395.639 376.257 370.62 372.629 428.445C369.509 478.174 423.774 482.329 453.09 458.265C482.405 434.201 515.93 433.893 539.424 445.193" stroke="#9097FE" stroke-width="0.5"/>
<path d="M430.158 78.5324C408.12 71.9989 380.519 96.7674 391.451 112.103C405.653 132.026 423.947 148.963 391.855 157.562C360.077 166.077 340.681 159.566 342.996 191.135C345.847 230.025 370.443 255.943 317.384 273.265C264.326 290.586 255.979 329.845 276.708 358.404C297.436 386.962 278.236 429.67 196.295 400.937C149.276 384.449 205.245 315.154 115.409 320.72C75.6204 323.186 123.362 258.686 50.1585 235.806" stroke="#9097FE" stroke-width="0.5"/>
<path d="M380.114 53.1827C412.522 61.3918 365.268 91.4036 375.11 105.211C387.896 123.148 392.627 142.915 363.734 150.657C335.124 158.323 322.155 163.244 324.239 191.666C326.807 226.679 348.95 250.014 301.181 265.609C253.412 281.204 237.336 322.875 255.998 348.587C274.66 374.298 258.461 409.37 205.61 384.106C165.137 364.759 211.338 297.339 130.456 302.35C94.6336 304.57 130.306 229.177 62.2463 219.764" stroke="#9097FE" stroke-width="0.5"/>
<path d="M342.415 44.3426C397.466 72.0881 344.092 86.7716 353.057 99.3481C364.704 115.686 365.558 126.719 339.24 133.77C313.18 140.753 302.268 162.337 304.166 188.226C306.505 220.118 326.988 242.03 283.477 256.235C239.966 270.44 218.115 310.287 235.114 333.707C252.113 357.127 249.834 388.643 212.758 366.834C177.538 346.116 224.882 283.525 151.21 288.09C114.947 290.337 129.849 194.996 71.3979 200.417" stroke="#9097FE" stroke-width="0.5"/>
<path d="M170.755 87.7754C203.539 89.7432 214.86 128.179 250.116 91.5985C285.371 55.0175 285.332 102.643 321.706 96.9922C339.607 94.2114 350.373 117.985 320.755 125.921C297.226 132.226 284.991 160.824 286.705 184.198C288.816 212.991 302.551 232.95 263.267 245.775C223.984 258.6 218.608 302.798 198.189 278.061C177.77 253.324 155.126 285.503 144.58 257.609C134.034 229.714 124.169 185.253 82.9394 180.427" stroke="#9097FE" stroke-width="0.5"/>
<path d="M165.669 99.3769C192.489 100.987 218.682 138.602 247.523 108.676C276.364 78.7507 273.578 101.528 303.271 106.539C316.141 108.711 320.404 116.62 297.37 126.553C278.552 134.667 272.088 165.091 273.49 184.212C275.217 207.767 286.454 224.095 254.317 234.587C222.18 245.078 217.782 281.235 201.078 260.999C184.374 240.762 165.85 267.087 157.223 244.267C148.595 221.448 140.069 189.183 100.535 163.935" stroke="#9097FE" stroke-width="0.5"/>
<path d="M153.098 107.869C176.513 109.271 222.399 151.348 245.146 127.746C267.892 104.144 259.917 108.441 283.336 112.393C289.235 113.388 291.366 120.74 274.534 131.136C261.354 139.275 259.005 168.516 260.111 183.597C261.473 202.174 270.335 215.051 244.989 223.326C219.644 231.6 216.175 260.116 203.001 244.156C189.827 228.196 170.804 261.845 164.001 221.173C157.198 180.501 124.558 165.691 110.865 143.249" stroke="#9097FE" stroke-width="0.5"/>
<path d="M141.64 118.62C159.025 110.89 220.884 163.867 238.074 146.031C252.845 130.704 266.437 129.557 253.208 147.095C246.158 156.44 246.692 170.019 247.528 181.416C248.558 195.455 254.044 204.488 234.889 210.741C215.734 216.995 212.413 239.757 202.457 227.695C192.501 215.634 176.861 245.391 172.983 210.326C169.104 175.261 125.553 146.482 127.061 129.185" stroke="#9097FE" stroke-width="0.5"/>
<path d="M162.458 158.095C129.012 116.239 174.955 137.854 198.134 153.657C221.314 169.461 229.904 159.477 234.399 162.881C238.893 166.285 235.595 176.898 238.539 187.886C242.379 202.216 226.921 196.119 219.636 205.239C212.352 214.359 209.041 217.294 192.884 212.407C182.113 209.149 189.419 191.833 162.458 158.095Z" stroke="#9097FE" stroke-width="0.5"/>
<path d="M181.934 168.804C161.928 144.162 186.374 156.847 200.28 166.118C214.186 175.388 220.581 167.76 223.277 169.759C225.972 171.757 223.953 178.042 225.691 184.529C227.958 192.989 218.67 189.433 214.256 194.848C209.842 200.263 207.84 202.008 198.128 199.17C191.653 197.277 198.06 188.667 181.934 168.804Z" stroke="#9097FE" stroke-width="0.5"/>
<path d="M197.868 177.149C190.313 167.851 199.547 172.636 204.799 176.133C210.051 179.63 212.467 176.751 213.485 177.505C214.503 178.259 213.74 180.631 214.396 183.079C215.251 186.271 211.743 184.93 210.075 186.974C208.407 189.018 207.651 189.677 203.982 188.607C201.537 187.893 203.958 184.643 197.868 177.149Z" stroke="#9097FE" stroke-width="0.5"/>
<path d="M206.83 340.752C203.281 325.41 208.129 284.779 218.054 311.34C227.98 337.901 238.024 348.131 232.792 357.959C228.68 365.683 210.38 356.093 206.83 340.752Z" stroke="#9097FE" stroke-width="0.5"/>
<path d="M215.092 340.621C213.823 335.135 215.557 320.607 219.106 330.104C222.655 339.602 226.247 343.26 224.376 346.774C222.905 349.536 216.362 346.107 215.092 340.621Z" stroke="#9097FE" stroke-width="0.5"/>
<path d="M47.8574 255.875C55.0574 255.994 80.0105 263.132 83.0599 308.908C86.8191 365.338 126.318 323.998 146.114 341.677C171.691 364.521 142.52 406.531 217.515 428.532C265.86 442.714 287.478 409.785 312.102 403.187C337.421 396.403 350.771 398.458 362.207 450.691C373.643 502.923 423.777 495.122 459.843 471.122C489.719 451.241 509.841 455.165 548.538 473.469" stroke="#9097FE" stroke-width="0.5"/>
<path d="M29.0586 279.348C36.2586 279.466 68.9145 280.957 71.9639 326.732C75.7231 383.163 119.044 340.799 138.839 358.478C164.416 381.321 135.246 423.332 210.241 445.332C258.586 459.515 280.203 426.586 304.828 419.988C330.146 413.204 343.497 415.258 354.933 467.491C366.369 519.724 416.503 511.923 452.569 487.923C482.445 468.042 502.567 471.966 541.264 490.269" stroke="#9097FE" stroke-width="0.5"/>
<path d="M22.3281 300.094C29.5281 300.213 62.184 301.703 65.2334 347.478C68.9926 403.909 112.313 361.545 132.109 379.224C157.686 402.067 128.515 444.078 203.51 466.078C251.855 480.261 273.473 447.332 298.097 440.734C323.416 433.95 336.767 436.004 348.202 488.237C359.638 540.47 409.773 532.669 445.839 508.669C475.714 488.788 495.836 492.712 534.533 511.016" stroke="#9097FE" stroke-width="0.5"/>
<path d="M14.7026 317.496C21.9026 317.615 54.5585 319.105 57.6079 364.881C61.3671 421.311 104.688 378.947 124.483 396.627C150.06 419.47 120.89 461.48 195.885 483.481C244.23 497.663 265.847 464.734 290.472 458.136C315.79 451.352 327.23 453.919 338.666 506.152C350.102 558.385 402.147 550.071 438.213 526.071C468.089 506.19 488.211 510.114 526.908 528.418" stroke="#9097FE" stroke-width="0.5"/>
<path d="M9.68945 333.176C16.8894 333.295 49.5453 334.785 52.5947 380.56C56.3539 436.991 92.9866 396.419 112.782 414.098C138.359 436.941 115.877 477.16 190.872 499.16C239.217 513.343 259.472 491.877 281.961 479.873C301.223 469.592 316.8 468.49 328.236 520.723C339.671 572.956 397.134 565.751 433.2 541.751C463.075 521.87 483.197 525.794 521.895 544.098" stroke="#9097FE" stroke-width="0.5"/>
<path d="M1.36328 351.793C8.56325 351.912 41.2191 353.402 44.2686 399.178C48.0278 455.608 84.6605 415.036 104.456 432.715C130.033 455.559 107.551 495.777 182.545 517.778C230.89 531.96 251.146 510.494 273.635 498.49C292.897 488.209 308.474 487.107 319.91 539.34C331.345 591.573 388.808 584.368 424.874 560.368C454.749 540.487 474.871 544.411 513.568 562.715" stroke="#9097FE" stroke-width="0.5"/>
<path d="M-3.39453 368.43C3.80544 368.549 36.4613 370.039 39.5107 415.814C43.2699 472.245 79.9026 431.673 99.6982 449.352C125.275 472.195 102.793 512.414 177.788 534.414C226.133 548.597 246.388 527.131 268.877 515.127C288.139 504.846 303.716 503.744 315.152 555.977C326.587 608.21 384.05 601.005 420.116 577.005C449.991 557.124 470.113 561.048 508.811 579.351" stroke="#9097FE" stroke-width="0.5"/>
<path d="M-10.5083 387.742C-3.30833 387.861 29.3476 389.351 32.397 435.127C36.1562 491.557 72.7889 450.985 92.5844 468.665C118.162 491.508 95.6791 531.726 170.674 553.727C219.019 567.909 239.274 546.444 261.764 534.439C281.025 524.158 296.602 523.056 308.038 575.289C319.474 627.522 376.936 620.317 413.002 596.317C442.878 576.436 463 580.36 501.697 598.664" stroke="#9097FE" stroke-width="0.5"/>
<path d="M-13.6113 402.91C-6.41135 403.029 26.2445 404.519 29.2939 450.295C33.0531 506.725 69.6858 466.153 89.4814 483.833C115.059 506.676 92.576 546.894 167.571 568.895C215.916 583.077 236.171 561.612 258.661 549.607C277.922 539.326 293.499 538.224 304.935 590.457C316.371 642.69 373.833 635.485 409.899 611.485C439.775 591.604 459.897 595.528 498.594 613.832" stroke="#9097FE" stroke-width="0.5"/>
</g>
</svg>
