<svg width="345" height="213" viewBox="0 0 345 213" fill="none" xmlns="http://www.w3.org/2000/svg">
<g filter="url(#filter0_dd)">
<rect x="54" y="21" width="236.291" height="91.6811" rx="20" fill="white"/>
</g>
<path d="M137.221 62.5195H140.325V54.0395H144.149V62.5195H147.253V51.3195H137.221V62.5195ZM153.477 62.7275C156.261 62.7275 158.277 60.6635 158.277 58.1995C158.277 55.7035 156.277 53.6715 153.509 53.6715C150.725 53.6715 148.709 55.7355 148.709 58.1995C148.709 60.6955 150.709 62.7275 153.477 62.7275ZM153.509 60.1515C152.437 60.1515 151.669 59.2555 151.669 58.1995C151.669 57.1275 152.373 56.2475 153.477 56.2475C154.549 56.2475 155.317 57.1435 155.317 58.1995C155.317 59.2715 154.613 60.1515 153.509 60.1515ZM159.561 62.5195H164.649C166.713 62.5195 167.929 61.6235 167.929 60.1355C167.929 58.9355 167.337 58.3435 166.281 57.9915C167.049 57.6555 167.625 57.0635 167.625 56.0555C167.625 55.4475 167.417 54.9835 167.065 54.6475C166.553 54.1355 165.785 53.8635 164.697 53.8635H159.561V62.5195ZM162.521 60.5515V58.9355H163.737C164.521 58.9355 164.889 59.3035 164.889 59.7355C164.889 60.2315 164.489 60.5515 163.769 60.5515H162.521ZM162.521 57.3035V55.7995H163.593C164.265 55.7995 164.633 56.1035 164.633 56.5355C164.633 56.9995 164.249 57.3035 163.545 57.3035H162.521ZM169.311 62.5195H172.351V59.3835H174.847V62.5195H177.887V53.8635H174.847V56.9355H172.351V53.8635H169.311V62.5195ZM179.514 62.5195H182.314L185.194 58.1835V62.5195H188.138V53.8635H185.338L182.458 58.1995V53.8635H179.514V62.5195ZM189.764 62.5195H192.564L195.444 58.1835V62.5195H198.388V53.8635H195.588L192.708 58.1995V53.8635H189.764V62.5195ZM194.148 53.1595C195.588 53.1595 196.564 52.2955 196.788 50.7755L195.204 50.4875C195.012 51.0475 194.708 51.4155 194.148 51.4155C193.588 51.4155 193.284 51.0475 193.092 50.4875L191.508 50.7755C191.732 52.2955 192.708 53.1595 194.148 53.1595ZM204.452 62.5195H207.492V60.8075L208.372 59.7515L210.02 62.5195H213.364L210.324 57.4155L213.284 53.8635H209.844L207.492 57.0795V53.8635H204.452V62.5195ZM216.652 65.1275C218.38 65.1275 219.196 64.3275 219.948 62.3115L223.116 53.8635H219.996L218.364 59.0795L216.636 53.8635H213.452L216.844 62.3595C216.652 62.6315 216.444 62.7115 216.14 62.7115C215.804 62.7115 215.292 62.5355 214.812 62.2475L213.868 64.3755C214.668 64.8235 215.58 65.1275 216.652 65.1275ZM224.108 65.0795H227.148V61.4635C227.708 62.1195 228.476 62.7115 229.788 62.7115C231.836 62.7115 233.612 60.9995 233.612 58.1835C233.612 55.3835 231.836 53.6715 229.772 53.6715C228.476 53.6715 227.74 54.2955 227.148 55.0155V53.8635H224.108V65.0795ZM228.844 60.1675C227.868 60.1675 227.084 59.3515 227.084 58.1995C227.084 57.0315 227.868 56.2155 228.844 56.2155C229.836 56.2155 230.62 57.0315 230.62 58.1675C230.62 59.3675 229.836 60.1675 228.844 60.1675ZM239.096 62.7275C241 62.7275 242.152 61.9275 242.952 60.7435L240.888 59.2555C240.408 59.8155 239.976 60.1675 239.256 60.1675C238.232 60.1675 237.528 59.3195 237.528 58.1995C237.528 57.1115 238.2 56.2475 239.304 56.2475C239.96 56.2475 240.456 56.5195 240.872 57.0955L242.904 55.6235C242.168 54.4555 240.984 53.6875 239.208 53.6875C236.472 53.6875 234.568 55.7515 234.568 58.1995C234.568 60.6795 236.488 62.7275 239.096 62.7275ZM251.555 62.7435C254.515 62.7435 255.779 61.5595 255.779 60.0075C255.779 58.9195 255.091 58.3115 254.163 57.9915C254.979 57.6395 255.539 57.0475 255.539 56.0235C255.539 54.6795 254.275 53.6715 251.891 53.6715C250.195 53.6715 248.867 54.2315 247.955 55.0795L249.171 56.7435C249.715 56.2635 250.723 55.8795 251.507 55.8795C252.211 55.8795 252.547 56.1835 252.547 56.4715C252.547 56.7915 252.355 57.2075 251.539 57.2075H250.467V59.1115H251.555C252.547 59.1115 252.755 59.5115 252.755 59.8315C252.755 60.2795 252.403 60.5195 251.523 60.5195C250.867 60.5195 249.635 60.1995 248.931 59.6555L247.731 61.5435C248.899 62.4395 249.811 62.7435 251.555 62.7435ZM137.045 84.5195H140.085V78.3115H142.453V84.5195H145.493V75.8635H137.045V84.5195ZM147.124 87.0795H150.164V83.4635C150.724 84.1195 151.492 84.7115 152.804 84.7115C154.852 84.7115 156.628 82.9995 156.628 80.1835C156.628 77.3835 154.852 75.6715 152.788 75.6715C151.492 75.6715 150.756 76.2955 150.164 77.0155V75.8635H147.124V87.0795ZM151.86 82.1675C150.884 82.1675 150.1 81.3515 150.1 80.1995C150.1 79.0315 150.884 78.2155 151.86 78.2155C152.852 78.2155 153.636 79.0315 153.636 80.1675C153.636 81.3675 152.852 82.1675 151.86 82.1675ZM160.416 84.7115C161.552 84.7115 162.368 84.2795 162.96 83.6235V84.5195H165.968V79.5435C165.968 78.3275 165.696 77.4315 165.04 76.7915C164.352 76.1035 163.296 75.7355 161.744 75.7355C160.256 75.7355 159.216 76.0075 158.24 76.4075L158.864 78.5515C159.632 78.2475 160.336 78.0715 161.248 78.0715C162.416 78.0715 162.976 78.5835 162.976 79.4795V79.6235C162.48 79.4475 161.696 79.2875 160.896 79.2875C158.864 79.2875 157.504 80.2155 157.504 82.0075C157.504 83.7675 158.768 84.7115 160.416 84.7115ZM161.504 82.8075C160.88 82.8075 160.432 82.4555 160.432 81.8635C160.432 81.1915 160.944 80.7595 161.824 80.7595C162.272 80.7595 162.704 80.8555 163.008 80.9835V81.3835C163.008 82.2475 162.384 82.8075 161.504 82.8075ZM167.514 84.5195H170.554V82.8075L171.434 81.7515L173.082 84.5195H176.426L173.386 79.4155L176.346 75.8635H172.906L170.554 79.0795V75.8635H167.514V84.5195ZM179.027 84.5195H182.067V78.3115H184.595V75.8635H176.499V78.3115H179.027V84.5195ZM185.577 84.5195H188.377L191.257 80.1835V84.5195H194.201V75.8635H191.401L188.521 80.1995V75.8635H185.577V84.5195ZM195.827 84.5195H198.867V82.8075L199.747 81.7515L201.395 84.5195H204.739L201.699 79.4155L204.659 75.8635H201.219L198.867 79.0795V75.8635H195.827V84.5195ZM209.883 84.7275C212.667 84.7275 214.683 82.6635 214.683 80.1995C214.683 77.7035 212.683 75.6715 209.915 75.6715C207.131 75.6715 205.115 77.7355 205.115 80.1995C205.115 82.6955 207.115 84.7275 209.883 84.7275ZM209.915 82.1515C208.843 82.1515 208.075 81.2555 208.075 80.1995C208.075 79.1275 208.779 78.2475 209.883 78.2475C210.955 78.2475 211.723 79.1435 211.723 80.1995C211.723 81.2715 211.019 82.1515 209.915 82.1515ZM224.527 84.7275C227.311 84.7275 229.151 82.6635 229.151 80.1995C229.151 77.7035 227.327 75.6715 224.559 75.6715C222.239 75.6715 220.623 77.1115 220.095 78.9995H219.007V75.8635H215.967V84.5195H219.007V81.3195H220.063C220.559 83.2715 222.175 84.7275 224.527 84.7275ZM224.559 82.1515C223.487 82.1515 222.895 81.2555 222.895 80.1995C222.895 79.1275 223.423 78.2475 224.527 78.2475C225.599 78.2475 226.191 79.1435 226.191 80.1995C226.191 81.2715 225.663 82.1515 224.559 82.1515Z" fill="#3B4459"/>
<path d="M80.4648 45.393V88.2857C80.4648 88.7395 80.6465 89.1747 80.9698 89.4956C81.2931 89.8164 81.7316 89.9967 82.1889 89.9967H114.657C115.114 89.9966 115.553 89.8162 115.876 89.4954C116.199 89.1745 116.381 88.7394 116.381 88.2857V53.9285L106.971 43.6836H82.1991C81.9727 43.6823 81.7482 43.7252 81.5385 43.81C81.3287 43.8948 81.1379 44.0198 80.9768 44.1778C80.8158 44.3358 80.6877 44.5237 80.5998 44.7309C80.512 44.938 80.4661 45.1603 80.4648 45.3851V45.393Z" fill="url(#paint0_linear)"/>
<path d="M106.929 43.6836V51.5992C106.929 52.2208 107.173 52.8176 107.607 53.2611C108.042 53.7046 108.634 53.9595 109.254 53.9707L116.381 54.0804L106.929 43.6836Z" fill="#38D0C8"/>
<path opacity="0.23" d="M105.069 58.5042C105.173 54.7721 102.236 51.6626 98.511 51.559C94.7856 51.4555 91.6818 54.397 91.5784 58.1291C91.4749 61.8612 94.4112 64.9707 98.1366 65.0743C101.862 65.1779 104.966 62.2364 105.069 58.5042Z" fill="white"/>
<path opacity="0.8" d="M94.4233 69.2031H102.422C102.517 69.2029 102.611 69.2272 102.7 69.2746C102.788 69.322 102.868 69.3915 102.935 69.4792C103.003 69.567 103.056 69.6712 103.093 69.7859C103.129 69.9006 103.148 70.0237 103.148 70.1479C103.148 70.399 103.071 70.6396 102.935 70.8169C102.799 70.9942 102.614 71.0937 102.422 71.0935H94.4233C94.2309 71.0937 94.0463 70.9942 93.91 70.8169C93.7738 70.6396 93.6971 70.399 93.6968 70.1479C93.6969 70.0237 93.7158 69.9006 93.7524 69.7859C93.789 69.6712 93.8426 69.567 93.9101 69.4792C93.9775 69.3915 94.0576 69.322 94.1456 69.2746C94.2337 69.2272 94.3281 69.2029 94.4233 69.2031Z" fill="white"/>
<g opacity="0.8">
<path opacity="0.27" d="M85.4907 72.293H111.158C111.348 72.2931 111.53 72.3687 111.664 72.503C111.798 72.6374 111.873 72.8196 111.873 73.0095C111.873 73.1992 111.797 73.3809 111.663 73.5149C111.529 73.6489 111.348 73.7243 111.158 73.7244H85.4907C85.3011 73.7244 85.1192 73.649 84.9851 73.5147C84.851 73.3805 84.7755 73.1984 84.7754 73.0084C84.7757 72.8186 84.8512 72.6366 84.9853 72.5024C85.1194 72.3683 85.3012 72.293 85.4907 72.293Z" fill="white"/>
<path opacity="0.27" d="M85.4907 75.3164H111.158C111.348 75.3164 111.529 75.3917 111.663 75.5257C111.797 75.6598 111.873 75.8416 111.873 76.0313C111.873 76.1252 111.854 76.2182 111.818 76.305C111.782 76.3917 111.729 76.4705 111.663 76.5368C111.597 76.6032 111.518 76.6557 111.431 76.6916C111.344 76.7274 111.252 76.7457 111.158 76.7456H85.4907C85.3969 76.7457 85.304 76.7274 85.2173 76.6916C85.1306 76.6557 85.0518 76.6032 84.9854 76.5368C84.9189 76.4705 84.8662 76.3917 84.8302 76.305C84.7942 76.2182 84.7755 76.1252 84.7754 76.0313C84.7757 75.8415 84.8512 75.6596 84.9853 75.5255C85.1194 75.3915 85.3012 75.3163 85.4907 75.3164Z" fill="white"/>
<path opacity="0.27" d="M85.4907 78.3438H111.158C111.348 78.3439 111.529 78.4194 111.663 78.5536C111.797 78.6879 111.873 78.8699 111.873 79.0598C111.873 79.2498 111.798 79.4321 111.663 79.5664C111.529 79.7008 111.347 79.7763 111.158 79.7763H85.4907C85.3967 79.7763 85.3037 79.7578 85.2169 79.7218C85.1302 79.6858 85.0513 79.633 84.9849 79.5664C84.9185 79.4999 84.8658 79.4209 84.8298 79.334C84.7939 79.247 84.7754 79.1539 84.7754 79.0598C84.7755 78.8698 84.851 78.6877 84.9851 78.5534C85.1192 78.4192 85.3011 78.3437 85.4907 78.3438Z" fill="white"/>
<path opacity="0.27" d="M85.4907 81.3672H111.158C111.347 81.367 111.528 81.4419 111.662 81.5753C111.796 81.7088 111.872 81.89 111.873 82.0792C111.873 82.269 111.797 82.4509 111.663 82.585C111.529 82.719 111.347 82.7942 111.158 82.7941H85.4907C85.3012 82.7942 85.1194 82.719 84.9853 82.585C84.8512 82.4509 84.7757 82.269 84.7754 82.0792C84.7763 81.8899 84.8521 81.7086 84.9862 81.5751C85.1202 81.4417 85.3017 81.3669 85.4907 81.3672Z" fill="white"/>
</g>
<path opacity="0.8" d="M99.9326 56.02C99.9326 56.9319 99.1903 57.9165 98.2744 57.9165C97.3584 57.9165 96.6157 56.9319 96.6157 56.02C96.6157 55.108 97.3584 54.4609 98.2744 54.4609C99.1903 54.4609 99.9326 55.108 99.9326 56.02Z" fill="white"/>
<path opacity="0.8" d="M96.2166 61.4298H100.265C100.473 61.4299 100.675 61.3642 100.843 61.2423C101.011 61.1203 101.135 60.9485 101.198 60.7515L101.416 60.0735C101.494 59.8343 101.475 59.5747 101.365 59.3487C101.255 59.1228 101.061 58.948 100.824 58.8608C99.1768 58.2609 97.473 58.338 95.7277 58.9161C95.4921 58.9961 95.2961 59.1628 95.1798 59.382C95.0636 59.6012 95.0359 59.8563 95.1023 60.0952L95.2703 60.7109C95.327 60.9176 95.4503 61.0999 95.6213 61.2298C95.7923 61.3597 96.0015 61.43 96.2166 61.4298Z" fill="white"/>
<defs>
<filter id="filter0_dd" x="0" y="0" width="344.291" height="212.681" filterUnits="userSpaceOnUse" color-interpolation-filters="sRGB">
<feFlood flood-opacity="0" result="BackgroundImageFix"/>
<feColorMatrix in="SourceAlpha" type="matrix" values="0 0 0 0 0 0 0 0 0 0 0 0 0 0 0 0 0 0 127 0" result="hardAlpha"/>
<feOffset dy="14"/>
<feGaussianBlur stdDeviation="17.5"/>
<feComposite in2="hardAlpha" operator="out"/>
<feColorMatrix type="matrix" values="0 0 0 0 0.117431 0 0 0 0 0.161262 0 0 0 0 0.316667 0 0 0 0.09 0"/>
<feBlend mode="normal" in2="BackgroundImageFix" result="effect1_dropShadow"/>
<feColorMatrix in="SourceAlpha" type="matrix" values="0 0 0 0 0 0 0 0 0 0 0 0 0 0 0 0 0 0 127 0" result="hardAlpha"/>
<feOffset dy="46"/>
<feGaussianBlur stdDeviation="27"/>
<feComposite in2="hardAlpha" operator="out"/>
<feColorMatrix type="matrix" values="0 0 0 0 0.0993056 0 0 0 0 0.132167 0 0 0 0 0.216667 0 0 0 0.11 0"/>
<feBlend mode="normal" in2="effect1_dropShadow" result="effect2_dropShadow"/>
<feBlend mode="normal" in="SourceGraphic" in2="effect2_dropShadow" result="shape"/>
</filter>
<linearGradient id="paint0_linear" x1="98.423" y1="43.6819" x2="105.7" y2="95.4636" gradientUnits="userSpaceOnUse">
<stop stop-color="#23C1B8"/>
<stop offset="1" stop-color="#1AAAAA"/>
</linearGradient>
</defs>
</svg>
