<svg width="140" height="101" viewBox="0 0 140 101" fill="none" xmlns="http://www.w3.org/2000/svg">
<g clip-path="url(#clip0_8874:1663)">
<path d="M5.68652 43.4609V101H31.9795V59.3174H31.8376C31.9092 59.2469 31.9795 59.1751 32.0498 59.1032L32.1444 59.007L32.2945 58.8484L32.3918 58.7427C32.4391 58.6925 32.4851 58.641 32.527 58.5882L32.6257 58.477L32.7608 58.3211C32.7919 58.2832 32.8257 58.2439 32.8568 58.2046C32.8879 58.1653 32.942 58.0988 32.9839 58.0446C33.0258 57.9904 33.0461 57.9673 33.0758 57.928C33.1055 57.8887 33.161 57.8142 33.2029 57.7559C33.2313 57.7193 33.2583 57.6813 33.2867 57.6434L33.4219 57.4468C33.4435 57.4143 33.4665 57.3831 33.4881 57.3492C33.553 57.2503 33.6152 57.15 33.6773 57.047C33.7057 57.0646 33.7328 57.0836 33.7598 57.1039C33.7689 57.1099 33.7775 57.1167 33.7855 57.1242L33.8395 57.1663L33.8679 57.192L33.9166 57.2354L33.9436 57.2625L33.9909 57.3113L34.0153 57.3384L34.0653 57.3953L34.0842 57.4184C34.1072 57.4455 34.1288 57.4726 34.1505 57.5011C34.1964 57.5621 34.2397 57.6244 34.2856 57.6895C34.3059 57.7193 34.3248 57.7505 34.3451 57.7816C34.7344 58.4052 35.021 59.1439 35.4792 59.3066C35.5926 59.3456 35.7149 59.3498 35.8307 59.3188C35.8449 59.3155 35.8589 59.3114 35.8726 59.3066C36.5863 59.0924 36.8256 58.1273 37.3365 57.3736V57.3655C37.3541 57.3398 37.3717 57.314 37.3906 57.2896C37.3939 57.2844 37.3975 57.2794 37.4014 57.2747C37.419 57.2503 37.4366 57.2286 37.4541 57.2056L37.469 57.1852L37.5204 57.1229L37.5407 57.0998L37.5907 57.0429L37.615 57.0172C37.6312 56.9995 37.6488 56.9819 37.6664 56.9656L37.6934 56.9399C37.711 56.9223 37.7312 56.9046 37.7502 56.8884C37.7581 56.88 37.7667 56.8723 37.7759 56.8653C37.8035 56.8408 37.8324 56.8178 37.8624 56.7962C38.2219 57.6366 38.2219 59.3188 39.3006 59.0788C40.259 58.9582 40.6186 56.7962 41.3377 56.9101C41.3896 56.921 41.4406 56.9355 41.4905 56.9534L41.5351 56.9724C41.5689 56.9847 41.6019 56.9992 41.6338 57.0158L41.6824 57.0429C41.7135 57.0605 41.7446 57.0795 41.7744 57.0998L41.8149 57.1283C41.8555 57.1581 41.896 57.1907 41.9352 57.2259L41.9433 57.234C41.9812 57.2679 42.0177 57.3059 42.0528 57.3438C42.0663 57.3587 42.0785 57.3736 42.092 57.3872L42.165 57.474L42.2069 57.5268C42.2299 57.5553 42.2515 57.5865 42.2745 57.6176L42.3123 57.6705L42.3921 57.7884L42.4462 57.8738L42.507 57.9701L42.5665 58.069L42.5989 58.1246C42.8209 58.5303 43.0655 58.9231 43.3316 59.3011H42.9369V101H67.6753V44.0601L64.6136 43.4609H5.68652Z" fill="#FE5858"/>
<path d="M80.621 60.9672C80.2155 60.7761 79.7586 60.7449 79.3125 60.7422V62.2847C79.6491 61.8239 80.2939 61.382 80.621 60.9672Z" fill="#D23535"/>
<path d="M75.7412 56.5643C75.7777 56.6497 75.8182 56.731 75.8601 56.8124L80.8089 54.1705L76.7915 46.6015C71.6264 49.2515 67.8199 51.7157 67.8199 51.7157L70.2909 44.5683L67.6807 44.0586V100.999H74.7098V58.0594C75.091 57.588 75.4358 57.0882 75.7412 56.5643V56.5643Z" fill="#D23535"/>
<path d="M83.7009 75.6474V65.0895L81.3205 66.3595C81.8085 65.5463 82.3641 64.8251 82.1478 64.1027C81.9193 63.4249 79.9052 64.085 79.3091 63.3477V101.002H83.7009V77.5017L81.1407 76.8239C81.1407 76.8239 82.118 76.3996 83.7009 75.6474Z" fill="#D23535"/>
<path d="M77.9961 57.3358C77.2901 57.2589 76.5928 57.1164 75.9131 56.9102C76.2943 57.5879 76.8593 58.1301 77.0607 58.8539C77.4082 58.3709 77.7208 57.8635 77.9961 57.3358V57.3358Z" fill="#D23535"/>
<path d="M33.8691 57.1914L33.9171 57.2339L33.8691 57.1914Z" fill="#74A300"/>
<path d="M32.7641 58.3203L32.6289 58.4762L32.7641 58.3203Z" fill="#74A300"/>
<path d="M33.7939 57.125L33.8472 57.1662L33.7939 57.125Z" fill="#74A300"/>
<path d="M33.9453 57.2617L33.992 57.3096L33.9453 57.2617Z" fill="#74A300"/>
<path d="M34.2891 57.6992C34.3093 57.729 34.3283 57.7602 34.3485 57.7914C34.335 57.7602 34.3093 57.729 34.2891 57.6992Z" fill="#74A300"/>
<path d="M34.0859 57.418C34.1089 57.4451 34.1305 57.4722 34.1522 57.5007C34.1305 57.4722 34.1089 57.4451 34.0859 57.418Z" fill="#74A300"/>
<path d="M32.8604 58.2069C32.9036 58.154 32.9455 58.1011 32.9874 58.0469C32.9455 58.1011 32.9036 58.1526 32.8604 58.2069Z" fill="#74A300"/>
<path d="M33.2062 57.7578C33.1643 57.8161 33.1224 57.873 33.0791 57.93C33.1183 57.873 33.1643 57.8161 33.2062 57.7578Z" fill="#74A300"/>
<path d="M34.1519 57.5C34.1978 57.561 34.2411 57.6234 34.287 57.6884C34.2411 57.6234 34.1992 57.561 34.1519 57.5Z" fill="#74A300"/>
<path d="M33.4897 57.3491C33.5546 57.2502 33.6168 57.1499 33.679 57.0469C33.6168 57.1499 33.5546 57.2502 33.4897 57.3491Z" fill="#74A300"/>
<path d="M32.2956 58.8516L32.1455 59.0102L32.2956 58.8516Z" fill="#74A300"/>
<path d="M32.0501 59.0977C31.9798 59.1695 31.9149 59.2413 31.8379 59.3118H31.9798V59.1763L32.0501 59.0977Z" fill="#74A300"/>
<path d="M34.0166 57.3359L34.0666 57.3928L34.0166 57.3359Z" fill="#74A300"/>
<path d="M32.3926 58.7405C32.4399 58.6903 32.4858 58.6388 32.5278 58.5859C32.4858 58.6388 32.4426 58.6903 32.3926 58.7405Z" fill="#74A300"/>
<path d="M33.6787 57.0469C33.7071 57.0645 33.7341 57.0835 33.7612 57.1038C33.7341 57.0835 33.7071 57.0659 33.6787 57.0469Z" fill="#74A300"/>
<path d="M33.4233 57.4492L33.2881 57.6457L33.4233 57.4492Z" fill="#74A300"/>
<path d="M35.4852 59.3179C35.0243 59.1553 34.7404 58.4165 34.3511 57.793C34.7404 58.4219 35.0243 59.1553 35.4852 59.3179Z" fill="#74A300"/>
<path d="M41.8251 57.1412L41.7852 57.1133L41.8251 57.1412Z" fill="#74A300"/>
<path d="M42.9473 58.7194V59.3172H43.342C43.0759 58.9391 42.8313 58.5463 42.6094 58.1406C42.7148 58.3277 42.8297 58.5242 42.9473 58.7194Z" fill="#74A300"/>
<path d="M42.2856 57.6328L42.3235 57.6857L42.2856 57.6328Z" fill="#74A300"/>
<path d="M42.1748 57.4902L42.2167 57.5431L42.1748 57.4902Z" fill="#74A300"/>
<path d="M41.645 57.0312L41.693 57.0578L41.645 57.0312Z" fill="#74A300"/>
<path d="M41.9458 57.2422L41.9538 57.2502L41.9458 57.2422Z" fill="#74A300"/>
<path d="M37.7871 56.8777C37.8148 56.8532 37.8436 56.8301 37.8736 56.8086C37.8436 56.8301 37.8148 56.8532 37.7871 56.8777Z" fill="#74A300"/>
<path d="M37.3424 57.3828C36.8314 58.1365 36.5921 59.1016 35.8784 59.3157C36.5921 59.0975 36.8314 58.1365 37.3424 57.3828Z" fill="#74A300"/>
<path d="M41.5449 56.9873L41.501 56.9688L41.5449 56.9873Z" fill="#74A300"/>
<path d="M42.58 58.0873L42.5205 57.9883L42.58 58.0873Z" fill="#74A300"/>
<path d="M42.4569 57.8901L42.4028 57.8047L42.4569 57.8901Z" fill="#74A300"/>
<path d="M42.1021 57.4019C42.0888 57.3886 42.0768 57.374 42.0635 57.3594C42.0768 57.374 42.0888 57.3886 42.1021 57.4019Z" fill="#74A300"/>
<path d="M37.626 57.0281C37.6422 57.0104 37.6598 56.9928 37.6773 56.9766C37.6598 56.9928 37.6422 57.0104 37.626 57.0281Z" fill="#74A300"/>
<path d="M37.5518 57.1116L37.6018 57.0547L37.5518 57.1116Z" fill="#74A300"/>
<path d="M37.48 57.203L37.5313 57.1406L37.48 57.203Z" fill="#74A300"/>
<path d="M37.3477 57.3767C37.3652 57.3509 37.3828 57.3252 37.4017 57.3008C37.3828 57.3252 37.3652 57.3509 37.3477 57.3767Z" fill="#74A300"/>
<path d="M37.4121 57.2879C37.4297 57.2635 37.4473 57.2418 37.4648 57.2188C37.4432 57.2418 37.4297 57.2635 37.4121 57.2879Z" fill="#74A300"/>
<path d="M37.7041 56.9499C37.7217 56.9323 37.742 56.9147 37.7609 56.8984C37.742 56.9147 37.7217 56.9296 37.7041 56.9499Z" fill="#74A300"/>
<path d="M42.9481 58.7216C42.8305 58.5264 42.721 58.3299 42.6101 58.1428L42.5777 58.0873L42.5182 57.9883L42.4574 57.8921L42.4033 57.8067L42.3235 57.6887L42.2857 57.6359C42.2627 57.6047 42.2411 57.5735 42.2181 57.5451L42.1762 57.4922L42.1032 57.4054C42.0897 57.3919 42.0775 57.377 42.064 57.3621C42.0289 57.3241 41.9924 57.2862 41.9545 57.2523L41.9464 57.2441C41.9072 57.2089 41.8667 57.1764 41.8261 57.1465L41.7855 57.1181C41.7558 57.0977 41.7247 57.0788 41.6936 57.0612L41.645 57.034C41.6131 57.0174 41.5801 57.0029 41.5463 56.9907L41.5017 56.9717C41.4518 56.9538 41.4008 56.9393 41.3489 56.9283C40.6298 56.809 40.2675 58.971 39.3118 59.0971C38.2304 59.337 38.2304 57.6549 37.8736 56.8145C37.8436 56.836 37.8147 56.8591 37.7871 56.8836C37.7779 56.8905 37.7693 56.8982 37.7614 56.9066C37.7424 56.9229 37.7222 56.9405 37.7046 56.9581L37.6776 56.9839C37.66 57.0002 37.6424 57.0178 37.6262 57.0354L37.6019 57.0612L37.5518 57.1181L37.5316 57.1411L37.4802 57.2035L37.4653 57.2238C37.4478 57.2469 37.4302 57.2685 37.4126 57.2929C37.4087 57.2977 37.4051 57.3026 37.4018 57.3078C37.3829 57.3322 37.3653 57.358 37.3477 57.3838V57.3919C36.8368 58.1455 36.5975 59.1106 35.8838 59.3248C35.8701 59.3297 35.8561 59.3338 35.8419 59.337C35.7261 59.3681 35.6038 59.3638 35.4904 59.3248C35.0295 59.1622 34.7456 58.4248 34.3563 57.7999C34.336 57.7687 34.3171 57.7375 34.2968 57.7077C34.2536 57.6427 34.2103 57.5803 34.1616 57.5193C34.14 57.4908 34.1184 57.4637 34.0954 57.4366L34.0765 57.4136L34.0265 57.3566L34.0021 57.3295L33.9548 57.2807L33.9278 57.2536L33.8791 57.2103L33.8507 57.1845L33.7967 57.1425C33.7887 57.135 33.7801 57.1282 33.771 57.1221C33.7439 57.1018 33.7169 57.0828 33.6885 57.0652C33.6263 57.1682 33.5642 57.2685 33.4993 57.3675C33.4777 57.4014 33.4547 57.4326 33.433 57.4651L33.2979 57.6616C33.2695 57.6996 33.2424 57.7375 33.2141 57.7741C33.1722 57.8324 33.1303 57.8894 33.087 57.9463C33.0437 58.0032 33.0262 58.0249 32.9951 58.0629C32.964 58.1008 32.9113 58.1699 32.868 58.2228C32.8248 58.2757 32.8031 58.3014 32.772 58.3394L32.6369 58.4953L32.5382 58.6064C32.4909 58.6593 32.4449 58.7108 32.403 58.7609L32.3057 58.8667L32.1556 59.0252L32.061 59.1215L31.9907 59.1947V101.002H42.9589V58.7216H42.9481Z" fill="#FFBF00"/>
<path d="M79.2864 63.3115C78.985 62.959 79.0701 62.6161 79.3121 62.2827V60.7401C78.57 60.7401 77.8549 60.8079 77.4413 60.347C76.7803 59.6123 78.3591 58.4968 78.4389 57.3649C78.2888 57.3568 78.1415 57.3433 77.9941 57.3284C77.7188 57.8561 77.4062 58.3634 77.0587 58.8465C76.8519 58.1227 76.2923 57.5764 75.9111 56.9027L75.7664 56.8607L75.8597 56.8106C75.8178 56.7292 75.7772 56.6479 75.7407 56.5625C75.4347 57.0851 75.0895 57.5835 74.708 58.0535V100.998H79.3121V63.344L79.2864 63.3115Z" fill="#EE8F00"/>
<path d="M28.2396 38.5828L27.092 36.5902L25.9443 34.5977L24.798 36.5902L23.6504 38.5828H25.9443H28.2396Z" fill="#FE5858"/>
<path d="M54.7218 27.9648L52.7442 29.1319L50.7666 30.299L52.7631 31.4335L54.7597 32.5667L54.7408 30.2651L54.7218 27.9648Z" fill="#FE5858"/>
<path d="M45.635 24.6084L44.3954 22.6714L43.1558 20.7344L42.1028 22.7784L41.0498 24.8239L43.3424 24.7154L45.635 24.6084Z" fill="#FE5858"/>
<path d="M7.07751 13.6289L8.98754 12.3534L10.8976 11.0765L8.8402 10.0558L6.78418 9.03516L6.93017 11.3327L7.07751 13.6289Z" fill="#FE5858"/>
<path d="M65.5329 12.0735L66.2398 9.88443L66.9468 7.69531L64.7029 8.17516L62.459 8.65635L63.9959 10.3643L65.5329 12.0735Z" fill="#FE5858"/>
<path d="M25.7191 7.83592L26.1598 9.30392L27.0533 8.06094L28.5822 8.09618L27.6792 6.85862L28.1847 5.41231L26.7316 5.88945L25.5164 4.96094L25.5204 6.49399L24.2646 7.36693L25.7191 7.83592Z" fill="#FFBF00"/>
<path d="M59.7639 23.7697L60.7196 24.8758L61.0129 23.4417L62.3566 22.8724L61.0886 22.1499L60.9643 20.6914L59.8869 21.6782L58.4649 21.3461L59.0678 22.6785L58.3135 23.931L59.7639 23.7697Z" fill="#FFBF00"/>
<path d="M66.2398 37.0309L65.5288 38.2129L66.8968 38.0597L67.7984 39.1034L68.0755 37.7507L69.3435 37.2139L68.1472 36.5321L68.0296 35.1562L67.013 36.0875L65.6721 35.7744L66.2398 37.0309Z" fill="#FFBF00"/>
<path d="M39.2414 36.6917L40.2904 37.9062L40.6134 36.3325L42.0896 35.7076L40.6973 34.9133L40.5607 33.3125L39.3766 34.3955L37.8167 34.0309L38.4777 35.4948L37.6504 36.8693L39.2414 36.6917Z" fill="#FFBF00"/>
<path d="M8.71457 32.0251L9.89735 33.3928L10.261 31.6198L11.925 30.915L10.3556 30.019L10.2001 28.2148L8.86596 29.4348L7.10733 29.0254L7.85215 30.6751L6.91943 32.2257L8.71457 32.0251Z" fill="#FFBF00"/>
<path d="M78.6868 18.9974L79.7331 20.2106L80.0562 18.6396L81.5296 18.0147L80.1386 17.2218L80.0021 15.625L78.8207 16.7053L77.2634 16.3421L77.9231 17.8019L77.0972 19.175L78.6868 18.9974Z" fill="#FFBF00"/>
<path d="M45.6716 3.07695L46.6273 4.18303L46.9206 2.75028L48.2656 2.18098L46.9977 1.45715L46.872 0L45.7946 0.985439L44.3739 0.6547L44.9755 1.98714L44.2212 3.23961L45.6716 3.07695Z" fill="#FFBF00"/>
<path d="M97.0304 33.1294L101.176 40.9275L95.4989 30.2192L88.9685 17.9141L67.6162 29.311L72.4541 38.4171L77.8098 35.6126C92.306 28.0192 97.0304 33.1294 97.0304 33.1294Z" fill="#FE5858"/>
<path d="M113.738 64.5927C113.739 64.5975 113.742 64.602 113.744 64.6062L112.824 62.8726L112.833 62.8902L109.285 56.2022L109.132 55.9149L108.696 55.1016L112.832 62.9105C112.832 62.9105 114.42 69.688 100.039 77.5132L94.7266 80.4017L98.3209 87.1792L119.671 75.7687L113.738 64.5927Z" fill="#FE5858"/>
<path d="M108.471 54.672L107.312 52.4883L85.9619 63.8744L90.3835 72.2052C98.2048 67.8757 108.192 61.1024 108.471 54.672Z" fill="#FE5858"/>
<path d="M102.159 42.7781L101.405 41.3562C95.9301 37.9959 84.7484 42.5192 76.792 46.6019L80.8094 54.1709L102.159 42.7781Z" fill="#FE5858"/>
<path d="M124.397 84.6785L103.047 96.0714L105.573 100.833L126.923 89.4404L122.922 81.8984L124.397 84.6785Z" fill="#D23535"/>
<path d="M119.67 75.7792L98.3208 87.1719L100.882 91.999L122.232 80.6063L119.67 75.7792Z" fill="#D23535"/>
<path d="M122.921 81.9013L122.233 80.6055L100.882 91.9983L96.8271 94.1671C97.4211 94.2833 98.023 94.354 98.6277 94.3786C98.0559 95.0929 97.8653 96.0052 97.2367 96.6178C98.2316 96.7631 99.2414 96.7735 100.239 96.649C100.083 97.1355 99.8314 97.5855 99.4982 97.972L103.052 96.0743L124.402 84.6882L122.921 81.9013Z" fill="#EE8F00"/>
<path d="M138.861 63.3631C134.246 55.794 112.461 54.5117 112.461 54.5117C112.842 55.2821 113.11 56.104 113.256 56.9516C113.329 56.9963 113.371 57.0248 113.371 57.0248C113.371 57.0248 122.983 59.6178 126.626 65.483C130.269 71.3482 120.088 76.1358 113.751 64.606C113.748 64.6018 113.745 64.5973 113.744 64.5925L119.671 75.7725L122.24 80.5994L122.928 81.8953C133.246 86.2816 143.476 70.9321 138.861 63.3631Z" fill="#FFBF00"/>
<path d="M111.9 61.133L109.285 56.2031L112.833 62.8952L112.824 62.8775C112.49 62.2228 112.206 61.6332 111.965 61.0978L111.9 61.133Z" fill="#FFBF00"/>
<path d="M110.732 52.0675C109.323 50.6578 107.652 50.0559 106.414 50.6781C106.398 50.6862 106.38 50.693 106.364 50.7025L108.472 54.6727L109.131 55.9144L109.284 56.2017L111.901 61.133L111.966 61.0937C113.114 60.4308 113.557 58.8137 113.25 56.9527C113.104 56.1051 112.837 55.2832 112.455 54.5128C112.408 54.4165 112.359 54.3189 112.308 54.2227C111.892 53.4302 111.36 52.7039 110.732 52.0675Z" fill="#EE8F00"/>
<path d="M112.833 62.9042L108.696 55.0952L109.133 55.9085L108.473 54.6669L106.366 50.6967C106.382 50.6872 106.4 50.6804 106.416 50.6723C106.158 50.2426 105.884 49.7695 105.595 49.2436L104.675 47.5099C98.6769 35.7972 108.324 30.0038 111.141 36.3095C113.959 42.6153 110.736 52.0603 110.736 52.0603C111.363 52.6974 111.893 53.4241 112.308 54.2169V54.2169C112.308 54.2169 123.415 35.3864 119.733 27.3186C116.051 19.2507 97.6401 19.1857 95.4963 30.2207L101.174 40.929L97.0278 33.1309C97.0278 33.1309 92.3034 28.0207 77.8018 35.6142L72.4542 38.4146L63.3096 43.2035L64.614 43.4584L67.6812 44.0575L70.2914 44.5672L67.8258 51.7146C67.8258 51.7146 71.6323 49.2504 76.7974 46.6004C84.7538 42.5177 95.9356 37.9944 101.41 41.3547L102.164 42.7766L80.8148 54.1626L75.8606 56.8113L75.7674 56.8614L75.912 56.9034C76.592 57.1117 77.2898 57.256 77.9964 57.3345C78.1437 57.3494 78.2911 57.3629 78.4411 57.3711C78.3614 58.5016 76.7825 59.6171 77.4435 60.3532C77.8572 60.814 78.5723 60.7408 79.3144 60.7462C79.7604 60.7462 80.216 60.7801 80.6229 60.9713C80.2903 61.386 79.651 61.8279 79.3144 62.2888C79.0724 62.6222 78.9872 62.9665 79.2887 63.3176L79.3144 63.3501C79.9064 64.0875 81.9206 63.422 82.1531 64.1051C82.3693 64.8276 81.8138 65.5501 81.3258 66.362L83.7062 65.0919L85.9677 63.8855L107.317 52.4995L108.477 54.6832C108.197 61.1136 98.2038 67.8869 90.3893 72.2232C87.7696 73.6762 85.3878 74.8555 83.7062 75.6566C82.1233 76.4089 81.146 76.8277 81.146 76.8277L83.7062 77.5055L88.4374 78.7661L85.6649 85.3348L94.7339 80.4035L100.046 77.515C114.421 69.687 112.833 62.9042 112.833 62.9042Z" fill="#FFBF00"/>
<path d="M12.7602 5.94269C12.8697 6.06468 12.9927 6.21379 13.1454 6.38051L13.3739 6.65161C13.4131 6.70041 13.4563 6.74649 13.4982 6.79529L13.6253 6.94846C13.8024 7.15178 13.9835 7.37815 14.1782 7.61265C14.2715 7.73329 14.3728 7.85257 14.4715 7.97727C14.5702 8.10198 14.6702 8.23075 14.7716 8.36088C14.873 8.491 14.9717 8.63198 15.0771 8.75939C15.1825 8.88681 15.2785 9.03049 15.3826 9.16604C15.5827 9.44798 15.7881 9.72856 15.9895 10.02C16.0923 10.1637 16.1936 10.3074 16.2896 10.4537L16.5843 10.8875C16.633 10.9593 16.6803 11.0325 16.7195 11.1057L16.8641 11.3185C16.9574 11.4622 17.0493 11.6046 17.1345 11.7442L18.1294 13.2935L18.5349 13.9224C18.6511 14.1122 18.766 14.2749 18.8539 14.4131C18.9418 14.5514 19.0188 14.6571 19.0648 14.7317C19.1107 14.8062 19.1418 14.8442 19.1418 14.8442L19.2229 14.8211C19.2229 14.8211 19.1756 14.6422 19.0742 14.3359C18.9729 14.0295 18.8215 13.5958 18.6038 13.0875C18.3862 12.5792 18.1131 11.9949 17.7928 11.385C17.6292 11.0813 17.4535 10.7709 17.2642 10.4605C17.075 10.1501 16.8776 9.84107 16.6668 9.53744C16.4559 9.23381 16.2315 8.94238 16.0058 8.65908L15.6611 8.24295L15.3231 7.86206L14.973 7.49337L14.6256 7.14365C14.3945 6.92813 14.1728 6.72616 13.9592 6.54995C13.7456 6.37373 13.5442 6.22192 13.3685 6.08366C13.1928 5.9454 13.0251 5.83967 12.8913 5.75157L12.4655 5.48047L12.4209 5.55095C12.4209 5.55095 12.4506 5.59026 12.5088 5.65804C12.5669 5.72581 12.6493 5.82883 12.7602 5.94269Z" fill="#FFBF00"/>
<path d="M28.4438 23.9392L28.3153 23.7955L28.0774 23.5244C27.9206 23.3644 27.7868 23.2221 27.6719 23.1096L27.3056 22.7734L27.2812 22.7992L27.3651 22.9022C27.4205 22.9686 27.5002 23.0689 27.6043 23.1896L27.9639 23.6396L28.1761 23.9229C28.214 23.973 28.2518 24.0232 28.2924 24.0747L28.4073 24.2374C28.5681 24.457 28.729 24.7037 28.9034 24.9598L29.1575 25.3665C29.2399 25.502 29.3278 25.6484 29.4143 25.7935C29.5008 25.9385 29.5833 26.089 29.6685 26.2408C29.7536 26.3926 29.832 26.5498 29.9172 26.7057C30.0807 27.0202 30.2416 27.3428 30.3876 27.6722C30.5336 28.0016 30.6877 28.3282 30.8201 28.659L31.0175 29.1497C31.0797 29.3123 31.1432 29.4723 31.2013 29.6322C31.3149 29.9521 31.4284 30.2598 31.5271 30.5567C31.6258 30.8535 31.7177 31.1341 31.7975 31.3957L32.011 32.1114C32.0719 32.3269 32.1232 32.518 32.1665 32.6685C32.2098 32.819 32.2408 32.9464 32.2638 33.0304L32.2949 33.1592H32.3314C32.2601 32.5501 32.1526 31.9459 32.0097 31.3496C31.8867 30.8074 31.7164 30.1907 31.5014 29.536C31.3933 29.2079 31.2743 28.8718 31.1419 28.5356C31.0094 28.1995 30.8715 27.8579 30.7134 27.5244C30.5552 27.191 30.3916 26.8629 30.22 26.5444L29.9496 26.0768L29.6793 25.6281L29.4008 25.2038L29.1196 24.8067C28.9304 24.5532 28.7493 24.316 28.5708 24.1059L28.4438 23.9392Z" fill="#FFBF00"/>
<path d="M6.37879 36.5391C6.61399 36.7845 6.84379 37.0176 7.05467 37.2467C7.26554 37.4758 7.46019 37.6954 7.64538 37.9L8.13472 38.4639L8.50645 38.9018C8.60919 39.0265 8.68894 39.1241 8.74301 39.1918L8.82547 39.2948L8.85656 39.2772C8.54088 38.7518 8.19421 38.2458 7.81841 37.7618C7.48588 37.3226 7.07629 36.8265 6.61129 36.3182C6.37744 36.0647 6.13142 35.8085 5.87188 35.5564C5.61234 35.3043 5.34469 35.0522 5.06083 34.8123C4.77696 34.5723 4.49579 34.3433 4.20922 34.1223L3.78477 33.8105L3.35085 33.5164L2.92235 33.2453L2.50465 33C2.22754 32.8482 1.96395 32.7058 1.71658 32.5933L1.53409 32.5052L1.35837 32.4266L1.03259 32.2829C0.82307 32.2029 0.643287 32.1284 0.49189 32.0728L0.0147203 31.9102L0.00390625 31.944L0.122861 32.0023C0.201263 32.0403 0.313458 32.0986 0.458096 32.165L0.971764 32.4266L1.28132 32.5974L1.44893 32.6882L1.62196 32.7885C1.85716 32.9241 2.10589 33.0813 2.36948 33.2412L2.76825 33.5042C2.90342 33.5991 3.0386 33.6913 3.17377 33.7875L3.58876 34.0898C3.72394 34.1982 3.85911 34.3039 4.0051 34.411C4.28357 34.6306 4.56338 34.8583 4.83238 35.0969C5.10138 35.3355 5.37308 35.5713 5.63127 35.8167L6.01246 36.1826C6.13682 36.2979 6.25983 36.4185 6.37879 36.5391Z" fill="#FFBF00"/>
<path d="M33.7275 4.35269C33.814 4.48823 33.9086 4.66038 34.0289 4.84608L34.1993 5.15107C34.229 5.20529 34.2628 5.25951 34.2952 5.31508L34.3912 5.48994C34.5264 5.72579 34.6548 5.98876 34.7967 6.26121L35.0103 6.6909C35.0752 6.84 35.1455 6.98775 35.2198 7.14092L35.424 7.60992C35.4861 7.77122 35.5524 7.93253 35.6213 8.09383C35.7565 8.42186 35.8808 8.75666 35.993 9.09689C36.1052 9.43712 36.231 9.77463 36.3323 10.1121C36.3594 10.1962 36.3837 10.2816 36.4067 10.3656C36.4297 10.4497 36.4594 10.5337 36.4851 10.6164C36.5338 10.7831 36.5824 10.9471 36.6203 11.1111C36.7054 11.4378 36.7946 11.7523 36.869 12.06C36.9433 12.3677 37.0123 12.651 37.0758 12.9153C37.1393 13.1796 37.1921 13.4277 37.2407 13.6445C37.2894 13.8614 37.3272 14.0512 37.361 14.2111C37.3948 14.3711 37.4205 14.4944 37.4381 14.5785C37.4557 14.6625 37.4624 14.714 37.4624 14.714H37.5111C37.5004 14.0995 37.453 13.4862 37.3691 12.8773C37.2988 12.3351 37.1894 11.6954 37.038 11.0217C36.9609 10.6855 36.8744 10.3439 36.7757 9.99151C36.677 9.63908 36.5675 9.29072 36.4459 8.94372C36.3242 8.59671 36.1863 8.25378 36.0404 7.92033L35.8214 7.42151L35.5916 6.9498L35.3577 6.50655L35.1158 6.085C34.9495 5.8139 34.7927 5.56042 34.6345 5.33541L34.5196 5.16733L34.4061 5.01145C34.3304 4.91115 34.2601 4.81491 34.1925 4.72409C34.0573 4.55059 33.9316 4.39606 33.8275 4.27407L33.4936 3.89453L33.4585 3.92706L33.5288 4.04092C33.5761 4.1087 33.6383 4.21985 33.7275 4.35269Z" fill="#FFBF00"/>
<path d="M50.8059 20.3017C50.8059 20.3017 50.8586 20.1268 50.9681 19.8245C51.0776 19.5223 51.2452 19.098 51.4642 18.5951C51.6832 18.0922 51.9616 17.5107 52.2901 16.913C52.455 16.612 52.6334 16.3057 52.824 16.0007C53.0146 15.6957 53.2147 15.3894 53.4256 15.0912C53.6364 14.793 53.8514 14.4975 54.0717 14.2128L54.4083 13.7981C54.5245 13.6625 54.6381 13.5351 54.7503 13.4063L55.0936 13.0363L55.4343 12.6947C55.6627 12.4792 55.879 12.2758 56.0885 12.0996L56.2413 11.9641L56.39 11.8448L56.6603 11.6211C56.8387 11.4856 56.9928 11.3717 57.124 11.2796L57.539 10.9976L57.4943 10.9258L57.3592 10.9637C57.2754 10.9922 57.1469 11.0274 56.9901 11.0871C56.8333 11.1467 56.6454 11.2226 56.4346 11.3243C56.2237 11.426 55.9871 11.5439 55.7465 11.6998C55.6249 11.7757 55.4964 11.8543 55.3694 11.9424C55.2423 12.0305 55.1126 12.1254 54.9801 12.2243C54.8476 12.3233 54.7205 12.4331 54.5854 12.5429C54.4502 12.6527 54.3245 12.7774 54.192 12.898C53.924 13.1524 53.6695 13.4207 53.4296 13.7018C53.1836 13.9878 52.9511 14.2928 52.7308 14.6046C52.5104 14.9163 52.3063 15.2403 52.1238 15.5683C51.9413 15.8963 51.7724 16.2257 51.625 16.5497C51.4777 16.8737 51.3547 17.1949 51.2438 17.4985C51.1911 17.6531 51.1424 17.8035 51.0965 17.9499C51.0505 18.0963 51.0113 18.24 50.9789 18.3782C50.9059 18.6493 50.8586 18.9204 50.818 19.1414C50.7775 19.3623 50.7558 19.5724 50.7396 19.7392C50.7234 19.9059 50.7207 20.0387 50.7166 20.1282C50.7126 20.2176 50.7166 20.2637 50.7166 20.2637L50.8059 20.3017Z" fill="#FFBF00"/>
<path d="M68.4819 15.8669C68.8118 15.4277 69.2173 14.9302 69.6769 14.4206C69.908 14.1671 70.1527 13.9096 70.4082 13.6561C70.6637 13.4026 70.9313 13.1519 71.2057 12.9106C71.4801 12.6693 71.7586 12.4321 72.0398 12.2071L72.4656 11.8818L72.8914 11.5795L73.3118 11.3003L73.7173 11.0468C73.9876 10.8895 74.2472 10.7432 74.4932 10.6212L74.6716 10.529L74.846 10.4477L75.1677 10.2986C75.3732 10.2132 75.5516 10.1359 75.7084 10.0776L76.1802 9.90546L76.1653 9.85938L76.0301 9.88377C75.945 9.90004 75.8179 9.91902 75.6584 9.95561C75.4989 9.99221 75.3083 10.0437 75.0893 10.1074C74.8703 10.1711 74.6243 10.2511 74.3675 10.3636C74.2323 10.4165 74.0971 10.468 73.962 10.5317C73.8268 10.5954 73.6821 10.6672 73.5375 10.7337L73.0982 10.9655C72.9495 11.0468 72.8035 11.1403 72.6521 11.2365C72.5007 11.3328 72.3534 11.429 72.202 11.528C72.0506 11.6269 71.9005 11.7354 71.7545 11.8479C71.4612 12.0742 71.1679 12.3101 70.8854 12.5568C70.7502 12.6829 70.615 12.8103 70.4798 12.9418C70.3447 13.0732 70.2095 13.2034 70.0851 13.3348C69.8229 13.5951 69.5917 13.877 69.366 14.1481C69.1403 14.4192 68.9375 14.6903 68.7509 14.9506C68.6577 15.0861 68.5685 15.2095 68.4806 15.3342C68.3927 15.4589 68.3197 15.5849 68.2481 15.7042C68.0981 15.9401 67.9777 16.1665 67.8683 16.3671C67.7588 16.5677 67.6763 16.7466 67.6087 16.8957C67.5411 17.0448 67.4938 17.1668 67.4614 17.2454L67.4141 17.3715L67.4546 17.3945C67.7667 16.8654 68.1098 16.3553 68.4819 15.8669V15.8669Z" fill="#FFBF00"/>
<path d="M57.0726 35.0554C56.9901 35.1801 56.9077 35.2994 56.8333 35.4173C56.6792 35.6504 56.5508 35.8714 56.4386 36.0679C56.3264 36.2645 56.2359 36.4393 56.1683 36.5844C56.1007 36.7294 56.0439 36.8473 56.0088 36.926L55.9561 37.0493L55.9871 37.0669C56.2984 36.5409 56.6401 36.0335 57.0104 35.5474C57.3389 35.1069 57.7458 34.6094 58.2054 34.0998C58.4352 33.8449 58.6798 33.5874 58.9367 33.3339C59.1935 33.0805 59.4585 32.8283 59.7329 32.5871C60.0073 32.3458 60.2871 32.1086 60.5682 31.8836L60.994 31.5596L61.4199 31.2573L61.8416 30.9781L62.2539 30.7246C62.5242 30.5674 62.7851 30.421 63.0311 30.299L63.2096 30.2068L63.384 30.1269L63.707 29.9764C63.9125 29.8924 64.0909 29.8151 64.241 29.7568L64.7127 29.5847L64.7019 29.5508L64.5667 29.5792C64.4829 29.5996 64.3572 29.6253 64.2004 29.666C64.0436 29.7067 63.8557 29.7649 63.6394 29.8341C63.4232 29.9032 63.1825 29.99 62.9284 30.1052C62.8013 30.1607 62.6581 30.2136 62.5229 30.28C62.3877 30.3464 62.2525 30.4156 62.1038 30.4888L61.6713 30.726C61.5253 30.8087 61.3807 30.9022 61.2306 30.9971L60.7859 31.2912C60.6399 31.3956 60.4898 31.5 60.3439 31.6125C60.0532 31.8375 59.7626 32.072 59.4828 32.3187C59.3476 32.4434 59.2124 32.5708 59.0773 32.6996C58.9421 32.8283 58.8069 32.9598 58.6839 33.0899C58.4244 33.3488 58.1892 33.624 57.9621 33.8883C57.735 34.1526 57.5295 34.421 57.3403 34.6786C57.2483 34.8046 57.1578 34.932 57.0726 35.0554Z" fill="#FFBF00"/>
</g>
<defs>
<clipPath id="clip0_8874:1663">
<rect width="140" height="101" fill="white"/>
</clipPath>
</defs>
</svg>
