<svg width="114" height="87" viewBox="0 0 114 87" fill="none" xmlns="http://www.w3.org/2000/svg">
<path d="M91.3397 57.4682L43.7544 43.018L55.7455 0L105.047 8.30247L91.3397 57.4682ZM44.2466 42.7505L91.0617 56.9677L104.541 8.62227L56.037 0.453546L44.2466 42.7505Z" fill="#D1CFD7"/>
<path d="M20.6849 86.0709L20.5899 85.8954L4.18896 55.6104L23.3497 45.4414L26.55 51.3494L39.8474 75.902L39.6701 75.996L20.6849 86.0709ZM4.73398 55.7732L20.8505 85.5303L39.302 75.7363L26.1954 51.5372L23.1852 45.9803L20.793 47.2503L4.73398 55.7732Z" fill="#444444"/>
<g style="mix-blend-mode:multiply" opacity="0.2">
<path d="M100.675 50.9199C108.032 50.9199 113.995 45.0161 113.995 37.7334C113.995 30.4507 108.032 24.5469 100.675 24.5469C93.3186 24.5469 87.355 30.4507 87.355 37.7334C87.355 45.0161 93.3186 50.9199 100.675 50.9199Z" fill="#3A7EC1"/>
</g>
<path d="M99.3563 50.9199C106.713 50.9199 112.676 45.0161 112.676 37.7334C112.676 30.4507 106.713 24.5469 99.3563 24.5469C91.9998 24.5469 86.0361 30.4507 86.0361 37.7334C86.0361 45.0161 91.9998 50.9199 99.3563 50.9199Z" fill="#FFBF00"/>
<g style="mix-blend-mode:multiply" opacity="0.2">
<path d="M88.1323 54.7101C88.1323 54.7101 102.286 11.7894 101.883 11.7894C101.48 11.7894 97.1523 10.9922 97.1523 10.9922L88.1323 54.7101Z" fill="#3A7EC1"/>
</g>
<g style="mix-blend-mode:multiply" opacity="0.2">
<path d="M62.0239 78.3904L78.833 51.923L62.0239 47.2637V78.3904Z" fill="#3A7EC1"/>
</g>
<g style="mix-blend-mode:multiply" opacity="0.2">
<path d="M74.3593 64.4789C73.2246 64.4789 72.1686 64.7549 71.2846 65.2281L68.4861 63.0119C68.9634 62.3358 69.2379 61.552 69.2379 60.7151C69.2379 58.1735 66.7202 56.1133 63.6122 56.1133C60.5041 56.1133 57.9868 58.1735 57.9868 60.7151C57.9868 63.2566 60.5045 65.3172 63.6122 65.3172C65.1412 65.3172 66.527 64.8173 67.5411 64.0075L70.1247 66.0534C69.2595 66.8607 68.7336 67.9212 68.7336 69.0811C68.7336 71.6226 71.2513 73.6832 74.3593 73.6832C77.4674 73.6832 79.9847 71.6226 79.9847 69.0811C79.9847 66.5395 77.4656 64.4789 74.3593 64.4789Z" fill="#3A7EC1"/>
</g>
<path d="M35.112 75.0017L16.3059 84.9828L0 54.8737L16.2364 46.2564L18.8061 44.8926L21.9114 50.6251L35.112 75.0017Z" fill="#636DF9"/>
<path d="M8.97681 64.0757C10.0137 63.8767 10.6913 62.8833 10.4903 61.8568C10.2893 60.8303 9.28585 60.1595 8.24898 60.3585C7.21212 60.5575 6.53451 61.5509 6.73549 62.5773C6.93648 63.6038 7.93994 64.2746 8.97681 64.0757Z" fill="#B3CEF6"/>
<path d="M21.578 56.2301L12.1922 61.2114C12.0062 61.3101 11.7882 61.3317 11.5862 61.2713C11.3842 61.2109 11.2146 61.0736 11.1149 60.8895C11.0655 60.7983 11.0348 60.6984 11.0244 60.5954C11.0141 60.4925 11.0243 60.3885 11.0545 60.2895C11.0848 60.1905 11.1344 60.0983 11.2006 60.0183C11.2668 59.9382 11.3483 59.8719 11.4404 59.823L20.8259 54.8417C20.918 54.7928 21.0189 54.7623 21.1229 54.752C21.2269 54.7417 21.3319 54.7517 21.4319 54.7816C21.532 54.8115 21.6251 54.8607 21.706 54.9262C21.7868 54.9917 21.8538 55.0724 21.9032 55.1636C22.0029 55.3477 22.0247 55.5635 21.9637 55.7635C21.9027 55.9635 21.764 56.1313 21.578 56.2301Z" fill="#B3CEF6"/>
<path d="M11.3866 69.1968C12.4426 69.1831 13.2875 68.3245 13.2737 67.279C13.2599 66.2335 12.3926 65.3971 11.3365 65.4108C10.2804 65.4245 9.43552 66.2831 9.44935 67.3286C9.46317 68.374 10.3305 69.2105 11.3866 69.1968Z" fill="#B3CEF6"/>
<path d="M24.3323 61.312L14.9468 66.2922C14.7607 66.3908 14.5427 66.4123 14.3406 66.3518C14.1385 66.2914 13.969 66.1541 13.8692 65.9699C13.7696 65.7858 13.7479 65.57 13.8089 65.37C13.87 65.17 14.0087 65.0022 14.1947 64.9035L23.5809 59.9236C23.767 59.8249 23.985 59.8033 24.1871 59.8637C24.3891 59.924 24.5587 60.0614 24.6585 60.2455C24.7581 60.4298 24.7797 60.6456 24.7185 60.8456C24.6573 61.0456 24.5184 61.2133 24.3323 61.312Z" fill="#B3CEF6"/>
<path d="M14.1184 74.2805C15.1746 74.2805 16.0307 73.4329 16.0307 72.3873C16.0307 71.3417 15.1746 70.4941 14.1184 70.4941C13.0622 70.4941 12.2061 71.3417 12.2061 72.3873C12.2061 73.4329 13.0622 74.2805 14.1184 74.2805Z" fill="#B3CEF6"/>
<path d="M27.0861 66.4002L17.7005 71.3815C17.6084 71.4303 17.5075 71.4608 17.4035 71.471C17.2995 71.4813 17.1945 71.4711 17.0945 71.4412C16.9944 71.4113 16.9013 71.3622 16.8205 71.2966C16.7396 71.2311 16.6726 71.1504 16.6233 71.0592C16.5235 70.8751 16.5018 70.6593 16.5628 70.4593C16.6237 70.2593 16.7625 70.0915 16.9484 69.9928L26.3343 65.0115C26.5203 64.9128 26.7383 64.8912 26.9403 64.9516C27.1423 65.0119 27.3118 65.1493 27.4116 65.3334C27.461 65.4246 27.4918 65.5245 27.5022 65.6275C27.5126 65.7305 27.5023 65.8345 27.4721 65.9336C27.4419 66.0326 27.3922 66.1249 27.326 66.2049C27.2597 66.285 27.1782 66.3513 27.0861 66.4002Z" fill="#B3CEF6"/>
<path d="M16.8728 79.3664C17.929 79.3664 18.7851 78.5188 18.7851 77.4732C18.7851 76.4277 17.929 75.5801 16.8728 75.5801C15.8166 75.5801 14.9604 76.4277 14.9604 77.4732C14.9604 78.5188 15.8166 79.3664 16.8728 79.3664Z" fill="#B3CEF6"/>
<path d="M29.8403 71.4823L20.4544 76.4635C20.3623 76.5124 20.2614 76.5428 20.1574 76.5531C20.0534 76.5634 19.9484 76.5532 19.8484 76.5233C19.7484 76.4934 19.6553 76.4442 19.5744 76.3787C19.4936 76.3132 19.4265 76.2325 19.3772 76.1413C19.2775 75.9572 19.2557 75.7414 19.3167 75.5414C19.3776 75.3414 19.5164 75.1736 19.7023 75.0748L29.0882 70.0936C29.1803 70.0446 29.2812 70.0142 29.3852 70.0039C29.4892 69.9936 29.5943 70.0037 29.6943 70.0337C29.7944 70.0636 29.8875 70.1127 29.9683 70.1783C30.0492 70.2439 30.1162 70.3246 30.1655 70.4158C30.2652 70.5999 30.287 70.8157 30.226 71.0157C30.165 71.2157 30.0263 71.3835 29.8403 71.4823Z" fill="#B3CEF6"/>
<g style="mix-blend-mode:multiply" opacity="0.2">
<path d="M21.9121 50.6251L19.4008 55.5973L18.1668 58.0405L14.8825 64.5422L14.4517 65.3941L14.513 64.7384L14.98 59.7315L15.1552 57.8502L15.6243 52.8272L15.7257 51.7351L15.8555 50.34L15.9201 49.6495L16.2371 46.2564L18.8068 44.8926L21.9121 50.6251Z" fill="#3A7EC1"/>
</g>
<path d="M95.7898 44.0775C95.5441 44.0539 95.3056 43.9824 95.0879 43.8673C94.8702 43.7521 94.6777 43.5954 94.5214 43.4064L90.9236 39.0713C90.6242 38.6885 90.4874 38.2053 90.5421 37.7242C90.5968 37.2431 90.8388 36.8021 91.2166 36.4948C91.5945 36.1875 92.0785 36.0381 92.5658 36.0783C93.0532 36.1185 93.5055 36.3452 93.8267 36.7102L96.2319 39.6084L103.72 33.5182C103.909 33.3548 104.13 33.2306 104.369 33.1531C104.608 33.0756 104.86 33.0463 105.11 33.067C105.361 33.0877 105.605 33.1579 105.827 33.2735C106.05 33.3891 106.247 33.5477 106.406 33.74C106.566 33.9323 106.685 34.1543 106.756 34.3929C106.828 34.6316 106.85 34.8819 106.822 35.1292C106.794 35.3765 106.716 35.6157 106.592 35.8326C106.469 36.0496 106.303 36.2399 106.105 36.3922L97.1645 43.664C96.9741 43.8191 96.7547 43.9354 96.5188 44.0064C96.2828 44.0773 96.0351 44.1015 95.7898 44.0775Z" fill="#F1F6F9"/>
<path d="M75.8839 71.3625C75.7502 71.2423 75.6701 71.0745 75.6613 70.896C75.6524 70.7174 75.7155 70.5427 75.8367 70.4101C76.4906 69.6958 75.3931 68.5714 75.3821 68.5601L59.3897 54.2166C59.3235 54.1572 59.2697 54.0854 59.2314 54.0054C59.1932 53.9253 59.1712 53.8386 59.1668 53.7502C59.1624 53.6618 59.1757 53.5734 59.2058 53.49C59.2359 53.4067 59.2823 53.33 59.3424 53.2644C59.4024 53.1988 59.4749 53.1456 59.5558 53.1077C59.6366 53.0699 59.7242 53.0481 59.8135 53.0438C59.9028 53.0394 59.9921 53.0525 60.0763 53.0824C60.1605 53.1122 60.238 53.1581 60.3042 53.2176L76.3261 67.5888C77.0519 68.32 78.0516 69.9991 76.8463 71.3155C76.7862 71.3811 76.7137 71.4344 76.6328 71.4723C76.5519 71.5102 76.4643 71.532 76.3749 71.5364C76.2856 71.5407 76.1962 71.5276 76.1119 71.4978C76.0277 71.468 75.9502 71.422 75.8839 71.3625Z" fill="#636466"/>
<path d="M59.9883 57.1022C60.1221 57.2223 60.2986 57.2848 60.479 57.2761C60.6594 57.2673 60.829 57.188 60.9503 57.0555C61.6045 56.3408 62.8424 57.3114 62.8548 57.3216L78.8471 71.6669C78.9134 71.7263 78.9908 71.7723 79.075 71.8021C79.1592 71.8319 79.2485 71.845 79.3379 71.8407C79.4272 71.8363 79.5147 71.8146 79.5956 71.7767C79.6764 71.7389 79.7489 71.6856 79.809 71.62C79.869 71.5544 79.9154 71.4777 79.9455 71.3944C79.9757 71.311 79.9889 71.2226 79.9845 71.1342C79.9801 71.0458 79.9582 70.9591 79.9199 70.8791C79.8817 70.799 79.8279 70.7273 79.7616 70.6678L63.7399 56.2966C62.9335 55.6531 61.1474 54.8334 59.9425 56.1502C59.8212 56.2825 59.7578 56.4571 59.7664 56.6356C59.775 56.8141 59.8548 56.9819 59.9883 57.1022Z" fill="#636466"/>
<path opacity="0.28" d="M67.2039 60.6473C69.1875 58.6837 69.1875 55.4999 67.2039 53.5363C65.2203 51.5726 62.0043 51.5726 60.0208 53.5363C58.0372 55.4999 58.0372 58.6837 60.0208 60.6473C62.0043 62.611 65.2203 62.611 67.2039 60.6473Z" fill="#F2F2F2"/>
<path opacity="0.28" d="M79.2014 71.411C81.185 69.4473 81.185 66.2636 79.2014 64.2999C77.2178 62.3362 74.0019 62.3362 72.0183 64.2999C70.0347 66.2636 70.0347 69.4473 72.0183 71.411C74.0019 73.3747 77.2178 73.3747 79.2014 71.411Z" fill="#F2F2F2"/>
<path d="M79.5717 63.5254C77.6001 61.7568 74.7357 61.5596 72.5695 62.8486C72.3476 62.0171 71.8869 61.2672 71.2431 60.6897C70.5994 60.1123 69.8003 59.732 68.9426 59.5951C70.0256 57.3341 69.549 54.5349 67.5739 52.7635C65.1626 50.5997 61.4199 50.7854 59.2373 53.1704C57.0548 55.5553 57.2356 59.2595 59.6479 61.4234C60.8091 62.4614 62.3386 63.0015 63.9013 62.9252C65.464 62.8489 66.9324 62.1626 67.9849 61.0165C68.0274 60.9698 68.0732 60.92 68.1125 60.8705C68.2508 60.8733 68.3859 60.8792 68.5217 60.8919C69.2231 60.9688 69.8536 61.2373 70.3415 61.675C70.8294 62.1128 71.161 62.7071 71.3074 63.3906C71.335 63.5242 71.3546 63.6592 71.3663 63.795C71.3202 63.8389 71.2777 63.8852 71.2348 63.9319C70.6328 64.5971 70.1912 65.3889 69.9433 66.2477C69.6954 67.1064 69.6476 68.0096 69.8036 68.8893C69.8483 69.1371 69.9088 69.3818 69.9848 69.6219C70.2977 70.6075 70.8712 71.4923 71.6457 72.1845C74.057 74.3484 77.7966 74.1662 79.9823 71.778C82.1681 69.3899 81.983 65.6892 79.5717 63.5254ZM63.4021 61.5806C62.6748 61.5471 61.9663 61.3409 61.3364 60.9794C60.7066 60.6179 60.1738 60.1117 59.7831 59.5035C59.3924 58.8954 59.1552 58.2031 59.0915 57.4851C59.0278 56.7671 59.1396 56.0444 59.4173 55.3782C59.695 54.7119 60.1305 54.1216 60.6871 53.657C61.2437 53.1923 61.9051 52.8671 62.6153 52.7087C63.3256 52.5503 64.0639 52.5633 64.768 52.7467C65.4721 52.9302 66.1213 53.2786 66.6608 53.7626C68.3398 55.2685 68.6139 57.7469 67.403 59.5656L67.3998 59.5688C67.2739 59.7606 67.1324 59.942 66.9768 60.1112C66.8872 60.2109 66.7925 60.3059 66.6931 60.3959C66.088 60.9533 65.3378 61.3325 64.5268 61.4908C64.1571 61.5668 63.7793 61.597 63.4021 61.5806ZM72.5617 71.1858C71.7787 70.4865 71.2685 69.5374 71.1199 68.5039C71.0665 68.1341 71.0597 67.7593 71.0997 67.3879C71.1788 66.5735 71.4858 65.797 71.9861 65.1458C72.0669 65.0387 72.153 64.9357 72.2443 64.8372C72.3991 64.6674 72.5675 64.5102 72.7478 64.3672L72.751 64.364C74.4602 62.9918 76.9782 63.0185 78.6568 64.5245C79.0987 64.9208 79.4573 65.3993 79.7123 65.9328C79.9673 66.4663 80.1137 67.0443 80.143 67.6339C80.1724 68.2234 80.0842 68.8128 79.8834 69.3686C79.6826 69.9243 79.3733 70.4355 78.973 70.8729C78.5727 71.3103 78.0892 71.6653 77.5503 71.9178C77.0114 72.1702 76.4275 72.3151 75.8321 72.3441C75.2366 72.3732 74.6412 72.2859 74.0798 72.0871C73.5184 71.8884 73.0021 71.5821 72.5602 71.1858H72.5617Z" fill="#636466"/>
<path d="M100.675 9.79862L88.2571 54.3377C88.1199 54.8399 87.8838 55.3104 87.5624 55.7221C87.2409 56.1337 86.8405 56.4785 86.3841 56.7364C85.9276 56.9944 85.4242 57.1605 84.9027 57.2252C84.3812 57.29 83.8519 57.252 83.3453 57.1136C82.8386 56.9752 82.3646 56.739 81.9505 56.4187C81.5363 56.0983 81.1902 55.7001 80.932 55.2469C80.6738 54.7937 80.5087 54.2945 80.446 53.7779C80.3833 53.2613 80.4244 52.7375 80.5669 52.2367L82.8154 44.1701L42.9326 33.2745L51.771 1.5625L100.675 9.79862Z" fill="#F1F6F9"/>
<g style="mix-blend-mode:multiply" opacity="0.2">
<path d="M84.7592 18.6341L84.4816 19.63L49.4072 10.0465L50.4097 6.45117C56.3953 8.55216 84.7592 18.6341 84.7592 18.6341Z" fill="#3A7EC1"/>
</g>
<g style="mix-blend-mode:multiply" opacity="0.2">
<path d="M87.0732 19.7001C85.903 19.379 84.6576 19.4577 83.5382 19.9237L78.3306 38.603L83.9386 40.1349L80.5656 52.2364C80.1638 53.6757 80.3883 55.0872 81.0507 55.9645C82.0854 55.5397 83.0226 54.4101 83.4354 52.9297L86.786 40.9135L90.793 26.5384L90.8582 26.3046C91.2405 24.9319 91.0566 23.4651 90.3468 22.2266C89.6371 20.9882 88.4596 20.0794 87.0732 19.7001Z" fill="#3A7EC1"/>
</g>
<path d="M83.3511 57.0945L41.1407 45.5632C39.7183 45.1744 38.5102 44.2422 37.782 42.9717C37.0538 41.7011 36.8651 40.1963 37.2575 38.7881L45.8388 8.00391L79.1111 17.0927L77.6686 22.2681C78.007 21.0453 78.7737 19.9816 79.8317 19.2671C79.9569 19.1814 80.0866 19.101 80.2192 19.0266C81.1522 18.5025 82.2211 18.264 83.2909 18.3414C84.3607 18.4187 85.3834 18.8084 86.2294 19.4612C87.0755 20.1139 87.7071 21.0003 88.0443 22.0084C88.3814 23.0165 88.409 24.1009 88.1236 25.1245L80.566 52.2365C80.4267 52.7365 80.3881 53.2588 80.4527 53.7736C80.5172 54.2883 80.6835 54.7855 80.9421 55.2366C81.2007 55.6877 81.5466 56.084 81.9599 56.4028C82.3733 56.7215 82.846 56.9566 83.3511 57.0945Z" fill="#949BFF"/>
<path d="M76.8337 55.3155L69.0503 53.1892L77.7025 22.1505C78.0572 20.9764 78.8095 19.959 79.8329 19.2695C82.5279 20.1707 84.0881 23.0337 83.3222 25.7806L76.0784 51.7672C75.9087 52.3753 75.8887 53.0149 76.0201 53.6323C76.1516 54.2496 76.4305 54.8268 76.8337 55.3155Z" fill="#636DF9"/>
<path d="M62.0251 78.3903L77.6692 22.2669C78.0523 20.8945 78.9702 19.7288 80.2211 19.0261C81.4721 18.3234 82.9537 18.1412 84.3403 18.5196L36.7259 5.51211C35.3497 5.13639 33.8792 5.3172 32.6378 6.01475C31.3963 6.7123 30.4856 7.86947 30.1059 9.23174L14.4507 65.3937L62.0251 78.3903Z" fill="#F1F6F9"/>
<path d="M37.0549 18.8837C38.0557 17.893 38.0557 16.2867 37.0549 15.2959C36.0541 14.3052 34.4315 14.3052 33.4307 15.2959C32.43 16.2867 32.43 17.893 33.4307 18.8837C34.4315 19.8745 36.0541 19.8745 37.0549 18.8837Z" fill="#D5DEEC"/>
<path d="M70.0138 27.9074L40.5821 19.8686C40.2621 19.7801 39.9904 19.5699 39.8264 19.2838C39.6624 18.9976 39.6195 18.6589 39.707 18.3416L39.7215 18.2893C39.8107 17.9724 40.023 17.7034 40.312 17.541C40.601 17.3787 40.9431 17.3362 41.2636 17.4229L70.6953 25.4617C71.0153 25.5503 71.2869 25.7605 71.4509 26.0466C71.6149 26.3327 71.6578 26.6714 71.5705 26.9887L71.5556 27.0411C71.4664 27.3578 71.2541 27.6268 70.9652 27.7891C70.6763 27.9515 70.3343 27.994 70.0138 27.9074Z" fill="#D5DEEC"/>
<path d="M32.905 28.0115C34.3203 28.0115 35.4676 26.8756 35.4676 25.4745C35.4676 24.0733 34.3203 22.9375 32.905 22.9375C31.4896 22.9375 30.3423 24.0733 30.3423 25.4745C30.3423 26.8756 31.4896 28.0115 32.905 28.0115Z" fill="#D5DEEC"/>
<path d="M67.6761 36.2919L38.2444 28.253C37.9244 28.1646 37.6528 27.9544 37.4889 27.6684C37.3249 27.3823 37.2821 27.0436 37.3697 26.7263L37.3842 26.674C37.4734 26.3572 37.6857 26.0882 37.9747 25.9258C38.2637 25.7635 38.6058 25.721 38.9263 25.8077L68.358 33.8465C68.6779 33.9351 68.9495 34.1453 69.1134 34.4313C69.2774 34.7173 69.3204 35.0559 69.2332 35.3732L69.2183 35.4259C69.1289 35.7426 68.9166 36.0115 68.6276 36.1737C68.3387 36.336 67.9966 36.3785 67.6761 36.2919Z" fill="#D5DEEC"/>
<path d="M30.5676 36.3982C31.9829 36.3982 33.1303 35.2623 33.1303 33.8612C33.1303 32.4601 31.9829 31.3242 30.5676 31.3242C29.1522 31.3242 28.0049 32.4601 28.0049 33.8612C28.0049 35.2623 29.1522 36.3982 30.5676 36.3982Z" fill="#D5DEEC"/>
<path d="M66.018 42.2316L36.5861 34.1896C35.9186 34.0072 35.2281 34.3951 35.0438 35.0559L35.0292 35.1084C34.845 35.7692 35.2367 36.4528 35.9043 36.6352L65.3361 44.6771C66.0037 44.8595 66.6942 44.4716 66.8784 43.8108L66.893 43.7584C67.0773 43.0975 66.6855 42.414 66.018 42.2316Z" fill="#D5DEEC"/>
<path d="M30.0427 44.038C31.0435 43.0473 31.0435 41.441 30.0427 40.4502C29.0419 39.4595 27.4193 39.4595 26.4185 40.4502C25.4177 41.441 25.4177 43.0473 26.4185 44.038C27.4193 45.0288 29.0419 45.0288 30.0427 44.038Z" fill="#D5DEEC"/>
<path d="M63.0025 53.0577L33.5708 45.0189C33.2508 44.9304 32.9792 44.7201 32.8152 44.434C32.6513 44.1479 32.6083 43.8092 32.6956 43.4919L32.7105 43.4396C32.7998 43.1228 33.0121 42.8538 33.3011 42.6915C33.5901 42.5291 33.9322 42.4866 34.2527 42.5732L63.6844 50.612C64.0045 50.7003 64.2762 50.9105 64.4402 51.1966C64.6042 51.4827 64.6471 51.8214 64.5596 52.1387L64.545 52.191C64.4559 52.508 64.2436 52.7772 63.9545 52.9396C63.6654 53.102 63.3231 53.1445 63.0025 53.0577Z" fill="#D5DEEC"/>
<path d="M27.7053 52.4209C28.7061 51.4301 28.7061 49.8238 27.7053 48.8331C26.7045 47.8423 25.0819 47.8423 24.0811 48.8331C23.0803 49.8238 23.0803 51.4301 24.0811 52.4209C25.0819 53.4116 26.7045 53.4116 27.7053 52.4209Z" fill="#D5DEEC"/>
<path d="M60.6656 61.4455L31.2339 53.4067C30.9139 53.3182 30.6423 53.108 30.4783 52.822C30.3144 52.536 30.2714 52.1973 30.3587 51.88L30.3736 51.8277C30.4625 51.5108 30.6744 51.2415 30.9632 51.0789C31.252 50.9162 31.5941 50.8733 31.9147 50.9596L61.3464 58.9984C61.6664 59.0868 61.9381 59.297 62.1021 59.5831C62.2661 59.8691 62.309 60.2078 62.2216 60.5251L62.207 60.5777C62.118 60.8947 61.906 61.1638 61.6171 61.3264C61.3283 61.489 60.9862 61.5318 60.6656 61.4455Z" fill="#D5DEEC"/>
<path d="M25.3679 60.8076C26.3687 59.8168 26.3687 58.2105 25.3679 57.2198C24.3671 56.229 22.7445 56.229 21.7437 57.2198C20.7429 58.2105 20.7429 59.8168 21.7437 60.8076C22.7445 61.7983 24.3671 61.7983 25.3679 60.8076Z" fill="#D5DEEC"/>
<path d="M58.3277 69.828L28.8961 61.7892C28.576 61.7008 28.3044 61.4906 28.1404 61.2045C27.9764 60.9185 27.9335 60.5798 28.0209 60.2625L28.0355 60.2098C28.1247 59.893 28.3369 59.624 28.6257 59.4615C28.9146 59.299 29.2566 59.2562 29.5772 59.3424L59.0089 67.383C59.329 67.4713 59.6007 67.6815 59.7647 67.9675C59.9287 68.2536 59.9716 68.5923 59.8841 68.9097L59.8695 68.9623C59.78 69.2789 59.5677 69.5475 59.2788 69.7097C58.99 69.8719 58.6481 69.9144 58.3277 69.828Z" fill="#D5DEEC"/>
<path d="M31.691 26.993C31.6041 26.9693 31.5227 26.9289 31.4516 26.874C31.3804 26.8191 31.3209 26.7509 31.2765 26.6732L30.2546 24.8902C30.2084 24.8125 30.1782 24.7265 30.166 24.6372C30.1537 24.5479 30.1594 24.457 30.183 24.3699C30.2065 24.2828 30.2473 24.2012 30.303 24.1299C30.3586 24.0585 30.4281 23.9989 30.5073 23.9544C30.5865 23.9099 30.6739 23.8814 30.7643 23.8707C30.8547 23.8599 30.9464 23.8671 31.034 23.8917C31.1216 23.9164 31.2033 23.9581 31.2745 24.0143C31.3457 24.0706 31.4048 24.1403 31.4485 24.2194L32.1318 25.4129L35.2122 23.6823C35.2906 23.6382 35.377 23.6099 35.4665 23.5989C35.556 23.5879 35.6468 23.5945 35.7337 23.6182C35.8206 23.642 35.9019 23.6825 35.973 23.7373C36.0441 23.7922 36.1037 23.8604 36.1481 23.938C36.1926 24.0156 36.2213 24.1012 36.2324 24.1898C36.2434 24.2784 36.2368 24.3682 36.2128 24.4543C36.1888 24.5403 36.148 24.6208 36.0925 24.6912C36.0371 24.7616 35.9682 24.8205 35.8898 24.8646L32.2123 26.9305C32.1338 26.9743 32.0474 27.0024 31.958 27.0131C31.8685 27.0239 31.7778 27.017 31.691 26.993Z" fill="#FFBF00"/>
<path d="M27.1545 43.2644C27.0675 43.2409 26.9861 43.2005 26.9149 43.1457C26.8438 43.0909 26.7843 43.0226 26.74 42.9449L25.7176 41.1616C25.6278 41.0046 25.6047 40.8187 25.6533 40.6448C25.702 40.4709 25.8184 40.3233 25.977 40.2344C26.1356 40.1455 26.3234 40.1226 26.4991 40.1707C26.6748 40.2189 26.8239 40.3341 26.9137 40.4912L27.597 41.6847L30.6774 39.9544C30.8355 39.8688 31.0213 39.8482 31.1946 39.897C31.3679 39.9458 31.5149 40.0601 31.6038 40.2152C31.6928 40.3704 31.7165 40.5539 31.67 40.7262C31.6234 40.8986 31.5103 41.0459 31.3551 41.1364L27.6775 43.2022C27.5988 43.2463 27.5121 43.2745 27.4223 43.2852C27.3325 43.2959 27.2415 43.2888 27.1545 43.2644Z" fill="#FFBF00"/>
<path d="M24.7487 51.9003C24.6617 51.8766 24.5803 51.8361 24.5092 51.7813C24.4381 51.7264 24.3786 51.6582 24.3341 51.5805L23.3122 49.7965C23.2257 49.64 23.2049 49.4561 23.2542 49.2845C23.3035 49.1129 23.419 48.9674 23.5757 48.8794C23.7324 48.7913 23.9178 48.7678 24.0918 48.8139C24.2659 48.8599 24.4147 48.9719 24.5061 49.1256L25.1894 50.3192L28.2698 48.5885C28.3483 48.5445 28.4347 48.5162 28.5241 48.5052C28.6136 48.4942 28.7044 48.5007 28.7913 48.5245C28.8782 48.5482 28.9596 48.5887 29.0307 48.6436C29.1018 48.6984 29.1613 48.7666 29.2058 48.8443C29.2503 48.9219 29.2789 49.0074 29.29 49.096C29.3011 49.1846 29.2945 49.2745 29.2705 49.3605C29.2465 49.4466 29.2056 49.5271 29.1502 49.5975C29.0948 49.6679 29.0259 49.7268 28.9475 49.7708L25.2699 51.8367C25.1915 51.8808 25.1051 51.909 25.0157 51.9199C24.9262 51.9308 24.8355 51.9242 24.7487 51.9003Z" fill="#FFBF00"/>
<path d="M22.481 60.0359C22.3941 60.0122 22.3128 59.9718 22.2417 59.9169C22.1706 59.862 22.1112 59.7938 22.0668 59.7161L21.0445 57.9332C20.9546 57.7764 20.9314 57.5907 20.9798 57.4169C21.0283 57.2432 21.1445 57.0956 21.3028 57.0066C21.4612 56.9177 21.6488 56.8946 21.8243 56.9426C21.9998 56.9905 22.1489 57.1056 22.2388 57.2623L22.9221 58.4559L26.0025 56.7253C26.1609 56.6363 26.3485 56.6133 26.524 56.6612C26.6995 56.7092 26.8486 56.8242 26.9385 56.981C27.0283 57.1378 27.0516 57.3235 27.0031 57.4972C26.9547 57.671 26.8385 57.8186 26.6801 57.9076L23.0026 59.9734C22.9241 60.0173 22.8376 60.0454 22.7481 60.0561C22.6586 60.0668 22.5678 60.06 22.481 60.0359Z" fill="#FFBF00"/>
<path d="M95.012 75.391C96.7097 75.391 98.086 74.0286 98.086 72.3479C98.086 70.6672 96.7097 69.3047 95.012 69.3047C93.3143 69.3047 91.938 70.6672 91.938 72.3479C91.938 74.0286 93.3143 75.391 95.012 75.391Z" fill="#D1CFD7"/>
</svg>
