<svg width="256" height="191" viewBox="0 0 256 191" fill="none" xmlns="http://www.w3.org/2000/svg">
<g filter="url(#filter0_dd)">
<rect x="35" y="21" width="185.253" height="91.6811" rx="20" fill="white"/>
</g>
<path d="M105.992 52H115.08V49.36H109.064V47.584H114.44V45.136H109.064V43.44H115V40.8H105.992V52ZM121.336 54.56H124.376V51.6C124.728 51.84 125.352 52.144 126.056 52.144C128.104 52.144 129.56 50.48 129.56 47.664C129.56 44.864 128.104 43.2 126.04 43.2C125.336 43.2 124.728 43.536 124.376 43.824V40.8H121.336V43.824C120.968 43.536 120.36 43.2 119.672 43.2C117.608 43.2 116.152 44.864 116.152 47.632C116.152 50.48 117.608 52.144 119.656 52.144C120.344 52.144 120.968 51.84 121.336 51.6V54.56ZM120.6 49.696C119.608 49.696 119.144 48.848 119.144 47.68C119.144 46.512 119.608 45.648 120.6 45.648C120.856 45.648 121.112 45.712 121.336 45.824V49.536C121.112 49.648 120.856 49.696 120.6 49.696ZM125.112 49.696C124.84 49.696 124.6 49.648 124.376 49.536V45.824C124.6 45.712 124.84 45.648 125.112 45.648C126.104 45.648 126.568 46.512 126.568 47.648C126.568 48.848 126.104 49.696 125.112 49.696ZM135.151 52.208C136.879 52.208 138.079 51.504 138.911 50.448L137.231 49.056C136.607 49.664 136.031 49.936 135.311 49.936C134.367 49.936 133.679 49.456 133.439 48.512H139.231C139.247 48.304 139.247 48.08 139.247 47.888C139.247 45.344 137.871 43.152 134.879 43.152C132.319 43.152 130.511 45.152 130.511 47.68C130.511 50.4 132.431 52.208 135.151 52.208ZM133.391 46.96C133.551 46.016 134.095 45.392 134.895 45.392C135.727 45.392 136.287 46 136.399 46.96H133.391ZM140.55 52H143.59V50.288L144.47 49.232L146.118 52H149.462L146.422 46.896L149.382 43.344H145.942L143.59 46.56V43.344H140.55V52ZM152.063 52H155.103V45.792H157.631V43.344H149.535V45.792H152.063V52ZM158.613 52H161.413L164.293 47.664V52H167.237V43.344H164.437L161.557 47.68V43.344H158.613V52ZM168.863 52H173.951C176.015 52 177.231 51.104 177.231 49.616C177.231 48.416 176.639 47.824 175.583 47.472C176.351 47.136 176.927 46.544 176.927 45.536C176.927 44.928 176.719 44.464 176.367 44.128C175.855 43.616 175.087 43.344 173.999 43.344H168.863V52ZM171.823 50.032V48.416H173.039C173.823 48.416 174.191 48.784 174.191 49.216C174.191 49.712 173.791 50.032 173.071 50.032H171.823ZM171.823 46.784V45.28H172.895C173.567 45.28 173.935 45.584 173.935 46.016C173.935 46.48 173.551 46.784 172.847 46.784H171.823ZM178.613 52H181.653V48.864H184.149V52H187.189V43.344H184.149V46.416H181.653V43.344H178.613V52ZM191.296 52.192C192.432 52.192 193.248 51.76 193.84 51.104V52H196.848V47.024C196.848 45.808 196.576 44.912 195.92 44.272C195.232 43.584 194.176 43.216 192.624 43.216C191.136 43.216 190.096 43.488 189.12 43.888L189.744 46.032C190.512 45.728 191.216 45.552 192.128 45.552C193.296 45.552 193.856 46.064 193.856 46.96V47.104C193.36 46.928 192.576 46.768 191.776 46.768C189.744 46.768 188.384 47.696 188.384 49.488C188.384 51.248 189.648 52.192 191.296 52.192ZM192.384 50.288C191.76 50.288 191.312 49.936 191.312 49.344C191.312 48.672 191.824 48.24 192.704 48.24C193.152 48.24 193.584 48.336 193.888 48.464V48.864C193.888 49.728 193.264 50.288 192.384 50.288ZM105.816 73H108.808V68.792L110.856 71.672L112.968 68.728V73H116.008V64.344H112.92L110.904 67.336L108.904 64.344H105.816V73ZM121.932 73.208C123.66 73.208 124.86 72.504 125.692 71.448L124.012 70.056C123.388 70.664 122.812 70.936 122.092 70.936C121.148 70.936 120.46 70.456 120.22 69.512H126.012C126.028 69.304 126.028 69.08 126.028 68.888C126.028 66.344 124.652 64.152 121.66 64.152C119.1 64.152 117.292 66.152 117.292 68.68C117.292 71.4 119.212 73.208 121.932 73.208ZM120.172 67.96C120.332 67.016 120.876 66.392 121.676 66.392C122.508 66.392 123.068 67 123.18 67.96H120.172ZM129.204 73H132.244V66.792H134.772V64.344H126.676V66.792H129.204V73ZM140.17 73.208C142.954 73.208 144.97 71.144 144.97 68.68C144.97 66.184 142.97 64.152 140.202 64.152C137.418 64.152 135.402 66.216 135.402 68.68C135.402 71.176 137.402 73.208 140.17 73.208ZM140.202 70.632C139.13 70.632 138.362 69.736 138.362 68.68C138.362 67.608 139.066 66.728 140.17 66.728C141.242 66.728 142.01 67.624 142.01 68.68C142.01 69.752 141.306 70.632 140.202 70.632ZM145.598 74.76H148.318L148.478 73H153.006V74.76H155.598L155.886 70.552H154.878V64.344H147.166V64.76C147.166 67.752 146.894 69.128 146.398 70.552H145.598V74.76ZM149.502 70.552C149.806 69.544 150.03 68.44 150.062 66.904V66.76H151.822V70.552H149.502ZM156.707 73H159.507L162.387 68.664V73H165.331V64.344H162.531L159.651 68.68V64.344H156.707V73ZM166.957 73H169.997V71.288L170.877 70.232L172.525 73H175.869L172.829 67.896L175.789 64.344H172.349L169.997 67.56V64.344H166.957V73ZM179.077 73.192C180.213 73.192 181.029 72.76 181.621 72.104V73H184.629V68.024C184.629 66.808 184.357 65.912 183.701 65.272C183.013 64.584 181.957 64.216 180.405 64.216C178.917 64.216 177.877 64.488 176.901 64.888L177.525 67.032C178.293 66.728 178.997 66.552 179.909 66.552C181.077 66.552 181.637 67.064 181.637 67.96V68.104C181.141 67.928 180.357 67.768 179.557 67.768C177.525 67.768 176.165 68.696 176.165 70.488C176.165 72.248 177.429 73.192 179.077 73.192ZM180.165 71.288C179.541 71.288 179.093 70.936 179.093 70.344C179.093 69.672 179.605 69.24 180.485 69.24C180.933 69.24 181.365 69.336 181.669 69.464V69.864C181.669 70.728 181.045 71.288 180.165 71.288ZM105.816 94H108.856V90.864H111.352V94H114.392V85.344H111.352V88.416H108.856V85.344H105.816V94ZM118.499 94.192C119.635 94.192 120.451 93.76 121.043 93.104V94H124.051V89.024C124.051 87.808 123.779 86.912 123.123 86.272C122.435 85.584 121.379 85.216 119.827 85.216C118.339 85.216 117.299 85.488 116.323 85.888L116.947 88.032C117.715 87.728 118.419 87.552 119.331 87.552C120.499 87.552 121.059 88.064 121.059 88.96V89.104C120.563 88.928 119.779 88.768 118.979 88.768C116.947 88.768 115.587 89.696 115.587 91.488C115.587 93.248 116.851 94.192 118.499 94.192ZM119.587 92.288C118.963 92.288 118.515 91.936 118.515 91.344C118.515 90.672 119.027 90.24 119.907 90.24C120.355 90.24 120.787 90.336 121.091 90.464V90.864C121.091 91.728 120.467 92.288 119.587 92.288ZM125.597 94H130.685C132.749 94 133.965 93.104 133.965 91.616C133.965 90.416 133.373 89.824 132.317 89.472C133.085 89.136 133.661 88.544 133.661 87.536C133.661 86.928 133.453 86.464 133.101 86.128C132.589 85.616 131.821 85.344 130.733 85.344H125.597V94ZM128.557 92.032V90.416H129.773C130.557 90.416 130.925 90.784 130.925 91.216C130.925 91.712 130.525 92.032 129.805 92.032H128.557ZM128.557 88.784V87.28H129.629C130.301 87.28 130.669 87.584 130.669 88.016C130.669 88.48 130.285 88.784 129.581 88.784H128.557ZM140.483 94H143.523V85.344H140.483V88.784C140.147 89.04 139.715 89.12 139.235 89.12C138.563 89.12 138.323 88.656 138.323 87.792V85.344H135.267V88.704C135.267 90.56 136.579 91.6 138.339 91.6C138.947 91.6 139.955 91.456 140.483 91.216V94ZM147.64 94.192C148.776 94.192 149.592 93.76 150.184 93.104V94H153.192V89.024C153.192 87.808 152.92 86.912 152.264 86.272C151.576 85.584 150.52 85.216 148.968 85.216C147.48 85.216 146.44 85.488 145.464 85.888L146.088 88.032C146.856 87.728 147.56 87.552 148.472 87.552C149.64 87.552 150.2 88.064 150.2 88.96V89.104C149.704 88.928 148.92 88.768 148.12 88.768C146.088 88.768 144.728 89.696 144.728 91.488C144.728 93.248 145.992 94.192 147.64 94.192ZM148.728 92.288C148.104 92.288 147.656 91.936 147.656 91.344C147.656 90.672 148.168 90.24 149.048 90.24C149.496 90.24 149.928 90.336 150.232 90.464V90.864C150.232 91.728 149.608 92.288 148.728 92.288ZM154.738 94H157.778V90.864H160.274V94H163.314V85.344H160.274V88.416H157.778V85.344H154.738V94ZM164.941 94H167.981V90.864H170.477V94H173.517V85.344H170.477V88.416H167.981V85.344H164.941V94ZM174.536 94H178.008L179.672 91.504H180.36V94H183.416V85.344H178.6C177.288 85.344 176.36 85.68 175.768 86.304C175.24 86.8 174.968 87.504 174.968 88.368C174.968 89.68 175.56 90.512 176.568 90.992L174.536 94ZM179.16 89.392C178.44 89.392 178.04 89.072 178.04 88.528C178.04 87.936 178.456 87.632 179.16 87.632H180.36V89.392H179.16Z" fill="#3B4459"/>
<path d="M63.0518 67.9336H80.4732V88.2586L71.7625 83.9032L63.0518 88.2586V67.9336Z" fill="#5E49E2"/>
<mask id="mask0" style="mask-type:alpha" maskUnits="userSpaceOnUse" x="63" y="67" width="18" height="21">
<path d="M63.0508 67.5664H80.4722V87.8914L71.7615 83.536L63.0508 87.8914V67.5664Z" fill="#5E49E2"/>
</mask>
<g mask="url(#mask0)">
<rect x="64.7944" y="72.2148" width="2.32285" height="15.6793" fill="#816DF5"/>
<rect x="76.4072" y="72.2148" width="2.32285" height="15.6793" fill="#816DF5"/>
</g>
<path d="M83.4635 69.4627C83.3216 69.6402 83.1679 69.8118 83.026 69.9805L82.8723 70.1491C82.754 70.2793 82.6358 70.4035 82.5145 70.5278C79.775 73.314 76.0908 74.9703 72.19 75.1696C68.2892 75.3689 64.4556 74.0965 61.4468 71.604C58.4381 69.1114 56.473 65.5801 55.9399 61.7078C55.4069 57.8354 56.3447 53.9039 58.568 50.69C58.927 50.1746 59.316 49.6806 59.7328 49.2107C59.8865 49.042 60.0284 48.8734 60.1999 48.7136C60.3713 48.5539 60.4955 48.4 60.667 48.2491C61.1475 47.7946 61.656 47.3707 62.1895 46.9799C62.9653 46.4104 63.7928 45.9152 64.661 45.5005C67.8604 43.9716 71.4848 43.5788 74.937 44.387C78.3893 45.1951 81.4635 47.156 83.6532 49.9465C85.843 52.7371 87.0177 56.1909 86.9837 59.7389C86.9498 63.2869 85.7092 66.7176 83.4665 69.4656L83.4635 69.4627Z" fill="#FFBF00"/>
<path d="M71.4959 73.9425C67.7641 73.9373 64.1841 72.4629 61.5295 69.8378C58.8749 67.2128 57.3588 63.6479 57.3089 59.9135C57.259 56.179 58.6792 52.5748 61.2626 49.8796C63.8461 47.1845 67.3854 45.6147 71.1158 45.5096C74.8462 45.4044 78.4681 46.7723 81.1991 49.3176C83.9301 51.863 85.5508 55.3814 85.711 59.1128C85.8712 62.8441 84.5581 66.4888 82.0553 69.2592C79.5526 72.0296 76.0612 73.7034 72.3355 73.9188C72.0547 73.9336 71.7738 73.9425 71.4959 73.9425ZM71.5344 46.3442C71.2713 46.3442 71.0081 46.3442 70.745 46.3678C67.2571 46.5762 63.9911 48.1496 61.6527 50.7479C59.3143 53.3463 58.0913 56.761 58.2477 60.2543C58.4042 63.7477 59.9276 67.0392 62.489 69.4177C65.0503 71.7962 68.4438 73.0708 71.9364 72.9661C75.4289 72.8614 78.7401 71.3857 81.1546 68.858C83.569 66.3303 84.8928 62.9534 84.84 59.4569C84.7872 55.9605 83.3621 52.6252 80.8724 50.1716C78.3828 47.718 75.0285 46.3432 71.5344 46.3442Z" fill="#DDA600"/>
<path d="M71.1665 49.5269L74.5347 55.7585L81.5763 56.5113L76.6943 61.6451L78.153 68.5809L71.7639 65.5213L65.6241 69.0554L66.5585 62.0306L61.3056 57.2794L68.2721 55.9948L71.1665 49.5269Z" fill="#DDA600"/>
<defs>
<filter id="filter0_dd" x="0" y="0" width="255.253" height="190.681" filterUnits="userSpaceOnUse" color-interpolation-filters="sRGB">
<feFlood flood-opacity="0" result="BackgroundImageFix"/>
<feColorMatrix in="SourceAlpha" type="matrix" values="0 0 0 0 0 0 0 0 0 0 0 0 0 0 0 0 0 0 127 0" result="hardAlpha"/>
<feOffset dy="14"/>
<feGaussianBlur stdDeviation="17.5"/>
<feComposite in2="hardAlpha" operator="out"/>
<feColorMatrix type="matrix" values="0 0 0 0 0.117431 0 0 0 0 0.161262 0 0 0 0 0.316667 0 0 0 0.09 0"/>
<feBlend mode="normal" in2="BackgroundImageFix" result="effect1_dropShadow"/>
<feColorMatrix in="SourceAlpha" type="matrix" values="0 0 0 0 0 0 0 0 0 0 0 0 0 0 0 0 0 0 127 0" result="hardAlpha"/>
<feOffset dy="44"/>
<feGaussianBlur stdDeviation="17"/>
<feComposite in2="hardAlpha" operator="out"/>
<feColorMatrix type="matrix" values="0 0 0 0 0.0993056 0 0 0 0 0.132167 0 0 0 0 0.216667 0 0 0 0.07 0"/>
<feBlend mode="normal" in2="effect1_dropShadow" result="effect2_dropShadow"/>
<feBlend mode="normal" in="SourceGraphic" in2="effect2_dropShadow" result="shape"/>
</filter>
</defs>
</svg>
