<svg width="1440" height="185" viewBox="0 0 1440 185" fill="none" xmlns="http://www.w3.org/2000/svg">
<g filter="url(#filter0_d)">
<rect y="30" width="1440" height="117" fill="white"/>
</g>
<rect y="34" width="1440" height="109" fill="#C4C0CF"/>
<path fill-rule="evenodd" clip-rule="evenodd" d="M-1.31134e-07 86.5C-5.87108e-08 85.6716 0.671573 85 1.5 85L10.9539 85C11.7824 85 12.4539 85.6716 12.4539 86.5C12.4539 87.3284 11.7824 88 10.9539 88L1.5 88C0.671573 88 -2.03558e-07 87.3284 -1.31134e-07 86.5ZM28.3618 86.5C28.3618 85.6716 29.0334 85 29.8618 85L48.7697 85C49.5982 85 50.2697 85.6716 50.2697 86.5C50.2697 87.3284 49.5982 88 48.7697 88L29.8618 88C29.0334 88 28.3618 87.3284 28.3618 86.5ZM66.1776 86.5C66.1776 85.6716 66.8492 85 67.6776 85L86.5855 85C87.4139 85 88.0855 85.6716 88.0855 86.5C88.0855 87.3284 87.4139 88 86.5855 88L67.6776 88C66.8492 88 66.1776 87.3284 66.1776 86.5ZM103.993 86.5C103.993 85.6716 104.665 85 105.493 85L124.401 85C125.23 85 125.901 85.6716 125.901 86.5C125.901 87.3284 125.23 88 124.401 88L105.493 88C104.665 88 103.993 87.3284 103.993 86.5ZM141.809 86.5C141.809 85.6716 142.481 85 143.309 85L162.217 85C163.046 85 163.717 85.6716 163.717 86.5C163.717 87.3284 163.046 88 162.217 88L143.309 88C142.481 88 141.809 87.3284 141.809 86.5ZM179.625 86.5C179.625 85.6716 180.297 85 181.125 85L200.033 85C200.861 85 201.533 85.6716 201.533 86.5C201.533 87.3284 200.861 88 200.033 88L181.125 88C180.297 88 179.625 87.3284 179.625 86.5ZM217.441 86.5C217.441 85.6716 218.112 85 218.941 85L237.849 85C238.677 85 239.349 85.6716 239.349 86.5C239.349 87.3284 238.677 88 237.849 88L218.941 88C218.112 88 217.441 87.3284 217.441 86.5ZM255.257 86.5C255.257 85.6716 255.928 85 256.757 85L275.664 85C276.493 85 277.164 85.6716 277.164 86.5C277.164 87.3285 276.493 88 275.664 88L256.757 88C255.928 88 255.257 87.3284 255.257 86.5ZM293.072 86.5C293.072 85.6716 293.744 85 294.572 85L313.48 85C314.309 85 314.98 85.6716 314.98 86.5C314.98 87.3285 314.309 88 313.48 88L294.572 88C293.744 88 293.072 87.3285 293.072 86.5ZM330.888 86.5C330.888 85.6716 331.56 85 332.388 85L351.296 85C352.125 85 352.796 85.6716 352.796 86.5C352.796 87.3285 352.125 88 351.296 88L332.388 88C331.56 88 330.888 87.3285 330.888 86.5ZM368.704 86.5C368.704 85.6716 369.376 85 370.204 85L389.112 85C389.94 85 390.612 85.6716 390.612 86.5C390.612 87.3285 389.94 88 389.112 88L370.204 88C369.376 88 368.704 87.3285 368.704 86.5ZM406.52 86.5C406.52 85.6716 407.191 85 408.02 85L426.928 85C427.756 85 428.428 85.6716 428.428 86.5C428.428 87.3285 427.756 88 426.928 88L408.02 88C407.191 88 406.52 87.3285 406.52 86.5ZM444.336 86.5C444.336 85.6716 445.007 85 445.836 85L464.743 85C465.572 85 466.243 85.6716 466.243 86.5C466.243 87.3285 465.572 88 464.743 88L445.836 88C445.007 88 444.336 87.3285 444.336 86.5ZM482.151 86.5C482.151 85.6716 482.823 85 483.651 85L502.559 85C503.388 85 504.059 85.6716 504.059 86.5C504.059 87.3285 503.388 88 502.559 88L483.651 88C482.823 88 482.151 87.3285 482.151 86.5ZM519.967 86.5C519.967 85.6716 520.639 85 521.467 85L540.375 85C541.203 85 541.875 85.6716 541.875 86.5C541.875 87.3285 541.203 88 540.375 88L521.467 88C520.639 88 519.967 87.3285 519.967 86.5ZM557.783 86.5C557.783 85.6716 558.455 85 559.283 85L578.191 85.0001C579.019 85.0001 579.691 85.6716 579.691 86.5001C579.691 87.3285 579.019 88.0001 578.191 88.0001L559.283 88C558.455 88 557.783 87.3285 557.783 86.5ZM595.599 86.5001C595.599 85.6716 596.27 85.0001 597.099 85.0001L616.007 85.0001C616.835 85.0001 617.507 85.6716 617.507 86.5001C617.507 87.3285 616.835 88.0001 616.007 88.0001L597.099 88.0001C596.27 88.0001 595.599 87.3285 595.599 86.5001ZM633.415 86.5001C633.415 85.6716 634.086 85.0001 634.915 85.0001L653.822 85.0001C654.651 85.0001 655.322 85.6716 655.322 86.5001C655.322 87.3285 654.651 88.0001 653.822 88.0001L634.915 88.0001C634.086 88.0001 633.415 87.3285 633.415 86.5001ZM671.23 86.5001C671.23 85.6716 671.902 85.0001 672.73 85.0001L691.638 85.0001C692.467 85.0001 693.138 85.6716 693.138 86.5001C693.138 87.3285 692.467 88.0001 691.638 88.0001L672.73 88.0001C671.902 88.0001 671.23 87.3285 671.23 86.5001ZM709.046 86.5001C709.046 85.6716 709.718 85.0001 710.546 85.0001L729.454 85.0001C730.283 85.0001 730.954 85.6716 730.954 86.5001C730.954 87.3285 730.283 88.0001 729.454 88.0001L710.546 88.0001C709.718 88.0001 709.046 87.3285 709.046 86.5001ZM746.862 86.5001C746.862 85.6716 747.534 85.0001 748.362 85.0001L767.27 85.0001C768.098 85.0001 768.77 85.6716 768.77 86.5001C768.77 87.3285 768.098 88.0001 767.27 88.0001L748.362 88.0001C747.534 88.0001 746.862 87.3285 746.862 86.5001ZM784.678 86.5001C784.678 85.6716 785.349 85.0001 786.178 85.0001L805.086 85.0001C805.914 85.0001 806.586 85.6716 806.586 86.5001C806.586 87.3285 805.914 88.0001 805.086 88.0001L786.178 88.0001C785.349 88.0001 784.678 87.3285 784.678 86.5001ZM822.494 86.5001C822.494 85.6716 823.165 85.0001 823.994 85.0001L842.901 85.0001C843.73 85.0001 844.401 85.6716 844.401 86.5001C844.401 87.3285 843.73 88.0001 842.901 88.0001L823.994 88.0001C823.165 88.0001 822.494 87.3285 822.494 86.5001ZM860.309 86.5001C860.309 85.6716 860.981 85.0001 861.809 85.0001L880.717 85.0001C881.546 85.0001 882.217 85.6717 882.217 86.5001C882.217 87.3285 881.546 88.0001 880.717 88.0001L861.809 88.0001C860.981 88.0001 860.309 87.3285 860.309 86.5001ZM898.125 86.5001C898.125 85.6717 898.797 85.0001 899.625 85.0001L918.533 85.0001C919.361 85.0001 920.033 85.6717 920.033 86.5001C920.033 87.3285 919.361 88.0001 918.533 88.0001L899.625 88.0001C898.797 88.0001 898.125 87.3285 898.125 86.5001ZM935.941 86.5001C935.941 85.6717 936.612 85.0001 937.441 85.0001L956.349 85.0001C957.177 85.0001 957.849 85.6717 957.849 86.5001C957.849 87.3285 957.177 88.0001 956.349 88.0001L937.441 88.0001C936.612 88.0001 935.941 87.3285 935.941 86.5001ZM973.757 86.5001C973.757 85.6717 974.428 85.0001 975.257 85.0001L994.165 85.0001C994.993 85.0001 995.665 85.6717 995.665 86.5001C995.665 87.3285 994.993 88.0001 994.165 88.0001L975.257 88.0001C974.428 88.0001 973.757 87.3285 973.757 86.5001ZM1011.57 86.5001C1011.57 85.6717 1012.24 85.0001 1013.07 85.0001L1031.98 85.0001C1032.81 85.0001 1033.48 85.6717 1033.48 86.5001C1033.48 87.3285 1032.81 88.0001 1031.98 88.0001L1013.07 88.0001C1012.24 88.0001 1011.57 87.3285 1011.57 86.5001ZM1049.39 86.5001C1049.39 85.6717 1050.06 85.0001 1050.89 85.0001L1069.8 85.0001C1070.62 85.0001 1071.3 85.6717 1071.3 86.5001C1071.3 87.3285 1070.62 88.0001 1069.8 88.0001L1050.89 88.0001C1050.06 88.0001 1049.39 87.3285 1049.39 86.5001ZM1087.2 86.5001C1087.2 85.6717 1087.88 85.0001 1088.7 85.0001L1107.61 85.0001C1108.44 85.0001 1109.11 85.6717 1109.11 86.5001C1109.11 87.3285 1108.44 88.0001 1107.61 88.0001L1088.7 88.0001C1087.88 88.0001 1087.2 87.3285 1087.2 86.5001ZM1125.02 86.5001C1125.02 85.6717 1125.69 85.0001 1126.52 85.0001L1145.43 85.0001C1146.26 85.0001 1146.93 85.6717 1146.93 86.5001C1146.93 87.3285 1146.26 88.0001 1145.43 88.0001L1126.52 88.0001C1125.69 88.0001 1125.02 87.3285 1125.02 86.5001ZM1162.84 86.5001C1162.84 85.6717 1163.51 85.0001 1164.34 85.0001L1183.24 85.0001C1184.07 85.0001 1184.74 85.6717 1184.74 86.5001C1184.74 87.3285 1184.07 88.0001 1183.24 88.0001L1164.34 88.0001C1163.51 88.0001 1162.84 87.3285 1162.84 86.5001ZM1200.65 86.5001C1200.65 85.6717 1201.32 85.0001 1202.15 85.0001L1221.06 85.0001C1221.89 85.0001 1222.56 85.6717 1222.56 86.5001C1222.56 87.3285 1221.89 88.0001 1221.06 88.0001L1202.15 88.0001C1201.32 88.0001 1200.65 87.3285 1200.65 86.5001ZM1238.47 86.5001C1238.47 85.6717 1239.14 85.0001 1239.97 85.0001L1258.87 85.0001C1259.7 85.0001 1260.37 85.6717 1260.37 86.5001C1260.37 87.3285 1259.7 88.0001 1258.87 88.0001L1239.97 88.0001C1239.14 88.0001 1238.47 87.3285 1238.47 86.5001ZM1276.28 86.5001C1276.28 85.6717 1276.95 85.0001 1277.78 85.0001L1296.69 85.0001C1297.52 85.0001 1298.19 85.6717 1298.19 86.5001C1298.19 87.3285 1297.52 88.0001 1296.69 88.0001L1277.78 88.0001C1276.95 88.0001 1276.28 87.3285 1276.28 86.5001ZM1314.1 86.5001C1314.1 85.6717 1314.77 85.0001 1315.6 85.0001L1334.51 85.0001C1335.33 85.0001 1336.01 85.6717 1336.01 86.5001C1336.01 87.3285 1335.33 88.0001 1334.51 88.0001L1315.6 88.0001C1314.77 88.0001 1314.1 87.3285 1314.1 86.5001ZM1351.91 86.5001C1351.91 85.6717 1352.59 85.0001 1353.41 85.0001L1372.32 85.0001C1373.15 85.0001 1373.82 85.6717 1373.82 86.5001C1373.82 87.3285 1373.15 88.0001 1372.32 88.0001L1353.41 88.0001C1352.59 88.0001 1351.91 87.3285 1351.91 86.5001ZM1389.73 86.5001C1389.73 85.6717 1390.4 85.0001 1391.23 85.0001L1410.14 85.0001C1410.97 85.0001 1411.64 85.6717 1411.64 86.5001C1411.64 87.3286 1410.97 88.0001 1410.14 88.0001L1391.23 88.0001C1390.4 88.0001 1389.73 87.3285 1389.73 86.5001ZM1427.54 86.5001C1427.54 85.6717 1428.22 85.0001 1429.04 85.0001L1438.5 85.0001C1439.33 85.0001 1440 85.6717 1440 86.5001C1440 87.3286 1439.33 88.0001 1438.5 88.0001L1429.04 88.0001C1428.22 88.0001 1427.54 87.3286 1427.54 86.5001Z" fill="white"/>
<defs>
<filter id="filter0_d" x="-34" y="0" width="1508" height="185" filterUnits="userSpaceOnUse" color-interpolation-filters="sRGB">
<feFlood flood-opacity="0" result="BackgroundImageFix"/>
<feColorMatrix in="SourceAlpha" type="matrix" values="0 0 0 0 0 0 0 0 0 0 0 0 0 0 0 0 0 0 127 0" result="hardAlpha"/>
<feOffset dy="4"/>
<feGaussianBlur stdDeviation="17"/>
<feComposite in2="hardAlpha" operator="out"/>
<feColorMatrix type="matrix" values="0 0 0 0 0.10934 0 0 0 0 0.146702 0 0 0 0 0.279167 0 0 0 0.1 0"/>
<feBlend mode="normal" in2="BackgroundImageFix" result="effect1_dropShadow"/>
<feBlend mode="normal" in="SourceGraphic" in2="effect1_dropShadow" result="shape"/>
</filter>
</defs>
</svg>
