<svg width="109" height="90" viewBox="0 0 109 90" fill="none" xmlns="http://www.w3.org/2000/svg">
<path opacity="0.6" d="M3.35509 5.6168H78.7342C80.5024 5.6168 81.9393 7.07032 81.9393 8.86763V72.9968C81.9393 74.7941 80.5024 76.2476 78.7342 76.2476H3.35509C1.58688 76.2476 0.15 74.7941 0.15 72.9968V8.86763C0.15 7.07032 1.58688 5.6168 3.35509 5.6168Z" stroke="#D1CFD7" stroke-width="0.3"/>
<path d="M87.1058 11.5254H11.7267C9.87371 11.5254 8.37158 13.048 8.37158 14.9262V79.0554C8.37158 80.9336 9.87371 82.4562 11.7267 82.4562H87.1058C88.9588 82.4562 90.4609 80.9336 90.4609 79.0554V14.9262C90.4609 13.048 88.9588 11.5254 87.1058 11.5254Z" fill="#F7FBFD"/>
<path d="M10.8765 11.5254H87.956C88.6203 11.5254 89.2574 11.7929 89.7272 12.2691C90.197 12.7452 90.4609 13.3911 90.4609 14.0645V19.3927H8.37158V14.0645C8.37158 13.3911 8.63549 12.7452 9.10526 12.2691C9.57502 11.7929 10.2122 11.5254 10.8765 11.5254Z" fill="#636DF9"/>
<path d="M11.6914 15.4145C11.6917 15.2284 11.7464 15.0465 11.8486 14.8919C11.9508 14.7373 12.0959 14.6169 12.2657 14.5459C12.4354 14.4748 12.622 14.4564 12.8021 14.4929C12.9821 14.5294 13.1475 14.6191 13.2772 14.7508C13.407 14.8825 13.4953 15.0502 13.531 15.2328C13.5667 15.4154 13.5482 15.6046 13.4779 15.7765C13.4076 15.9484 13.2885 16.0953 13.1359 16.1987C12.9832 16.3021 12.8037 16.3572 12.6201 16.3572C12.498 16.3572 12.3771 16.3328 12.2644 16.2855C12.1516 16.2381 12.0492 16.1686 11.9629 16.081C11.8767 15.9935 11.8083 15.8895 11.7617 15.7752C11.7151 15.6608 11.6912 15.5382 11.6914 15.4145Z" fill="#F1F6F9"/>
<path d="M15.5903 15.4145C15.5906 15.2282 15.6454 15.0462 15.7478 14.8916C15.8501 14.7369 15.9955 14.6164 16.1654 14.5455C16.3353 14.4746 16.5222 14.4564 16.7023 14.4931C16.8824 14.5299 17.0478 14.62 17.1774 14.7521C17.307 14.8841 17.395 15.0522 17.4303 15.235C17.4656 15.4178 17.4467 15.6071 17.3758 15.779C17.3049 15.9508 17.1854 16.0975 17.0322 16.2004C16.8791 16.3034 16.6992 16.358 16.5155 16.3573C16.2696 16.3563 16.034 16.2565 15.8606 16.0798C15.6872 15.903 15.59 15.6638 15.5903 15.4145Z" fill="#F1F6F9"/>
<path d="M19.4844 15.4145C19.4847 15.2284 19.5394 15.0465 19.6416 14.8919C19.7438 14.7373 19.8889 14.6169 20.0586 14.5459C20.2283 14.4748 20.415 14.4564 20.5951 14.4929C20.7751 14.5294 20.9405 14.6191 21.0702 14.7508C21.1999 14.8825 21.2882 15.0502 21.3239 15.2328C21.3597 15.4154 21.3412 15.6046 21.2709 15.7765C21.2005 15.9484 21.0815 16.0953 20.9288 16.1987C20.7761 16.3021 20.5966 16.3572 20.413 16.3572C20.291 16.3572 20.1701 16.3328 20.0573 16.2855C19.9446 16.2381 19.8421 16.1686 19.7559 16.081C19.6696 15.9935 19.6013 15.8895 19.5547 15.7752C19.5081 15.6608 19.4842 15.5382 19.4844 15.4145Z" fill="#F1F6F9"/>
<path d="M36.1472 25.6426H16.8774C15.7729 25.6426 14.8774 26.538 14.8774 27.6426V47.2296C14.8774 48.3341 15.7729 49.2296 16.8774 49.2296H36.1472C37.2518 49.2296 38.1472 48.3341 38.1472 47.2296V27.6426C38.1472 26.538 37.2518 25.6426 36.1472 25.6426Z" fill="#FFBF00"/>
<path d="M14.9429 54.9126C14.9429 56.7272 16.4139 58.1982 18.2285 58.1982C20.0431 58.1982 21.5141 56.7272 21.5141 54.9126C21.5141 53.098 20.0431 51.627 18.2285 51.627C16.4139 51.627 14.9429 53.098 14.9429 54.9126Z" fill="#636DF9"/>
<path d="M14.9429 64.1118C14.9429 65.9264 16.4139 67.3974 18.2285 67.3974C20.0431 67.3974 21.5141 65.9264 21.5141 64.1118C21.5141 62.2972 20.0431 60.8262 18.2285 60.8262C16.4139 60.8262 14.9429 62.2972 14.9429 64.1118Z" fill="#636DF9"/>
<path d="M14.9429 73.313C14.9429 75.1276 16.4139 76.5986 18.2285 76.5986C20.0431 76.5986 21.5141 75.1276 21.5141 73.313C21.5141 71.4984 20.0431 70.0273 18.2285 70.0273C16.4139 70.0273 14.9429 71.4984 14.9429 73.313Z" fill="#636DF9"/>
<path d="M62.9836 28.4394H44.4741C44.3586 28.4394 44.2443 28.4164 44.1376 28.3715C44.0309 28.3267 43.934 28.261 43.8524 28.1782C43.7708 28.0954 43.706 27.9972 43.6619 27.889C43.6178 27.7808 43.5951 27.6649 43.5952 27.5478C43.5951 27.4308 43.6178 27.3149 43.6619 27.2067C43.706 27.0985 43.7708 27.0002 43.8524 26.9174C43.934 26.8346 44.0309 26.7689 44.1376 26.7241C44.2443 26.6793 44.3586 26.6562 44.4741 26.6563H62.9836C63.2169 26.6563 63.4406 26.7502 63.6055 26.9174C63.7705 27.0846 63.8632 27.3114 63.8632 27.5478C63.8632 27.7843 63.7705 28.0111 63.6055 28.1783C63.4406 28.3455 63.2169 28.4394 62.9836 28.4394Z" fill="#D5DEEC"/>
<path d="M85.1173 28.4394H66.6071C66.3739 28.4394 66.1501 28.3455 65.9852 28.1783C65.8202 28.0111 65.7275 27.7843 65.7275 27.5478C65.7275 27.4308 65.7503 27.3148 65.7945 27.2066C65.8387 27.0985 65.9035 27.0002 65.9852 26.9174C66.0668 26.8346 66.1638 26.7689 66.2705 26.7241C66.3773 26.6793 66.4916 26.6563 66.6071 26.6563H85.1173C85.2327 26.6562 85.3471 26.6793 85.4538 26.7241C85.5604 26.7689 85.6573 26.8346 85.739 26.9174C85.8206 27.0002 85.8853 27.0985 85.9295 27.2067C85.9736 27.3149 85.9962 27.4308 85.9962 27.5478C85.9962 27.6649 85.9736 27.7808 85.9295 27.889C85.8853 27.9972 85.8206 28.0954 85.739 28.1782C85.6573 28.261 85.5604 28.3267 85.4538 28.3715C85.3471 28.4164 85.2327 28.4394 85.1173 28.4394Z" fill="#D5DEEC"/>
<path d="M66.6466 34.2574H44.1645C44.0134 34.2574 43.8685 34.1966 43.7616 34.0883C43.6548 33.9799 43.5947 33.833 43.5947 33.6799C43.5947 33.5266 43.6547 33.3796 43.7616 33.2712C43.8684 33.1628 44.0134 33.1018 44.1645 33.1016H66.6466C66.7979 33.1016 66.943 33.1625 67.05 33.2709C67.157 33.3794 67.2171 33.5265 67.2171 33.6799C67.2171 33.7558 67.2023 33.8309 67.1736 33.9011C67.1449 33.9712 67.1029 34.0349 67.0499 34.0885C66.9969 34.1422 66.934 34.1847 66.8648 34.2137C66.7956 34.2427 66.7214 34.2575 66.6466 34.2574Z" fill="#D5DEEC"/>
<path d="M75.1943 34.2574H69.2593C69.1081 34.2574 68.9632 34.1966 68.8563 34.0883C68.7495 33.9799 68.6895 33.833 68.6895 33.6798C68.6895 33.5266 68.7495 33.3796 68.8563 33.2712C68.9631 33.1628 69.1081 33.1018 69.2593 33.1016H75.1943C75.3455 33.1018 75.4904 33.1628 75.5972 33.2712C75.7041 33.3796 75.7641 33.5266 75.7641 33.6798C75.7641 33.7557 75.7494 33.8308 75.7207 33.9009C75.6921 33.971 75.6501 34.0346 75.5972 34.0883C75.5443 34.1419 75.4815 34.1844 75.4123 34.2135C75.3432 34.2425 75.2691 34.2574 75.1943 34.2574Z" fill="#D5DEEC"/>
<path d="M52.6476 37.8433H44.167C44.0921 37.8433 44.0179 37.8284 43.9488 37.7993C43.8796 37.7702 43.8167 37.7276 43.7638 37.6739C43.7109 37.6202 43.6689 37.5565 43.6403 37.4863C43.6117 37.4161 43.5971 37.341 43.5972 37.2651C43.5972 37.1119 43.6572 36.965 43.7641 36.8567C43.8709 36.7483 44.0159 36.6875 44.167 36.6875H52.6476C52.7988 36.6875 52.9437 36.7483 53.0506 36.8567C53.1574 36.965 53.2174 37.1119 53.2174 37.2651C53.2175 37.341 53.2029 37.4161 53.1743 37.4863C53.1457 37.5565 53.1037 37.6202 53.0508 37.6739C52.9979 37.7276 52.935 37.7702 52.8659 37.7993C52.7967 37.8284 52.7225 37.8433 52.6476 37.8433Z" fill="#D5DEEC"/>
<path d="M66.3872 37.8433H54.7632C54.6883 37.8433 54.6141 37.8284 54.5449 37.7993C54.4758 37.7702 54.4129 37.7276 54.36 37.6739C54.3071 37.6202 54.2651 37.5565 54.2365 37.4863C54.2079 37.4161 54.1933 37.341 54.1934 37.2651C54.1934 37.1119 54.2534 36.965 54.3603 36.8567C54.4671 36.7483 54.612 36.6875 54.7632 36.6875H66.3872C66.5383 36.6875 66.6833 36.7483 66.7901 36.8567C66.897 36.965 66.957 37.1119 66.957 37.2651C66.9571 37.341 66.9424 37.4161 66.9138 37.4863C66.8853 37.5565 66.8433 37.6202 66.7904 37.6739C66.7375 37.7276 66.6746 37.7702 66.6054 37.7993C66.5362 37.8284 66.4621 37.8433 66.3872 37.8433Z" fill="#D5DEEC"/>
<path d="M75.1943 37.8433H69.2593C69.1844 37.8433 69.1102 37.8284 69.041 37.7993C68.9719 37.7702 68.909 37.7276 68.8561 37.6739C68.8032 37.6202 68.7612 37.5565 68.7326 37.4863C68.704 37.4161 68.6894 37.341 68.6895 37.2651C68.6895 37.1119 68.7495 36.965 68.8563 36.8567C68.9632 36.7483 69.1081 36.6875 69.2593 36.6875H75.1943C75.3454 36.6875 75.4904 36.7483 75.5972 36.8567C75.7041 36.965 75.7641 37.1119 75.7641 37.2651C75.7642 37.341 75.7495 37.4161 75.7209 37.4863C75.6923 37.5565 75.6504 37.6202 75.5975 37.6739C75.5445 37.7276 75.4817 37.7702 75.4125 37.7993C75.3433 37.8284 75.2692 37.8433 75.1943 37.8433Z" fill="#D5DEEC"/>
<path d="M55.6751 40.941H44.1645C44.0134 40.941 43.8685 40.8802 43.7616 40.7719C43.6548 40.6635 43.5947 40.5166 43.5947 40.3634C43.5946 40.2875 43.6093 40.2124 43.6379 40.1422C43.6665 40.072 43.7085 40.0083 43.7614 39.9546C43.8143 39.9009 43.8771 39.8583 43.9463 39.8292C44.0155 39.8001 44.0897 39.7852 44.1645 39.7852H55.6751C55.75 39.7852 55.8241 39.8001 55.8933 39.8292C55.9625 39.8583 56.0253 39.9009 56.0782 39.9546C56.1312 40.0083 56.1731 40.072 56.2017 40.1422C56.2303 40.2124 56.245 40.2875 56.2449 40.3634C56.2449 40.5166 56.1849 40.6635 56.078 40.7719C55.9711 40.8802 55.8262 40.941 55.6751 40.941Z" fill="#D5DEEC"/>
<path d="M77.6546 40.941H58.8298C58.6786 40.941 58.5336 40.8802 58.4266 40.7719C58.3197 40.6636 58.2595 40.5167 58.2593 40.3634C58.2593 40.2101 58.3194 40.063 58.4264 39.9545C58.5334 39.8461 58.6785 39.7852 58.8298 39.7852H77.6546C77.8059 39.7852 77.951 39.8461 78.058 39.9545C78.165 40.063 78.2251 40.2101 78.2251 40.3634C78.2249 40.5167 78.1647 40.6636 78.0578 40.7719C77.9508 40.8802 77.8058 40.941 77.6546 40.941Z" fill="#D5DEEC"/>
<path d="M66.6466 45.6454H44.1645C44.0134 45.6454 43.8685 45.5846 43.7616 45.4762C43.6548 45.3679 43.5947 45.221 43.5947 45.0678C43.5947 44.9146 43.6548 44.7677 43.7616 44.6594C43.8685 44.5511 44.0134 44.4902 44.1645 44.4902H66.6466C66.7214 44.4901 66.7956 44.505 66.8648 44.534C66.934 44.563 66.9969 44.6055 67.0499 44.6592C67.1029 44.7128 67.1449 44.7765 67.1736 44.8466C67.2023 44.9167 67.2171 44.9919 67.2171 45.0678C67.2171 45.1437 67.2023 45.2189 67.1736 45.289C67.1449 45.3591 67.1029 45.4228 67.0499 45.4765C66.9969 45.5301 66.934 45.5727 66.8648 45.6016C66.7956 45.6306 66.7214 45.6455 66.6466 45.6454Z" fill="#D5DEEC"/>
<path d="M75.1943 45.6454H69.2593C69.1081 45.6454 68.9632 45.5845 68.8563 45.4762C68.7495 45.3679 68.6895 45.221 68.6895 45.0678C68.6895 44.9146 68.7495 44.7677 68.8563 44.6594C68.9632 44.5511 69.1081 44.4902 69.2593 44.4902H75.1943C75.3454 44.4902 75.4903 44.5511 75.5972 44.6594C75.7041 44.7677 75.7641 44.9146 75.7641 45.0678C75.7641 45.1437 75.7494 45.2188 75.7207 45.2888C75.6921 45.3589 75.6501 45.4226 75.5972 45.4762C75.5443 45.5299 75.4815 45.5724 75.4123 45.6014C75.3432 45.6305 75.2691 45.6454 75.1943 45.6454Z" fill="#D5DEEC"/>
<path d="M52.6476 49.2301H44.167C44.0159 49.2301 43.8709 49.1692 43.7641 49.0609C43.6572 48.9526 43.5972 48.8057 43.5972 48.6525C43.5971 48.5766 43.6117 48.5014 43.6403 48.4313C43.6689 48.3611 43.7109 48.2974 43.7638 48.2436C43.8167 48.1899 43.8796 48.1473 43.9488 48.1183C44.0179 48.0892 44.0921 48.0742 44.167 48.0742H52.6476C52.7225 48.0742 52.7967 48.0892 52.8659 48.1183C52.935 48.1473 52.9979 48.1899 53.0508 48.2436C53.1037 48.2974 53.1457 48.3611 53.1743 48.4313C53.2029 48.5014 53.2175 48.5766 53.2174 48.6525C53.2174 48.8057 53.1574 48.9526 53.0506 49.0609C52.9437 49.1692 52.7988 49.2301 52.6476 49.2301Z" fill="#D5DEEC"/>
<path d="M66.3872 49.2301H54.7632C54.612 49.2301 54.4671 49.1692 54.3603 49.0609C54.2534 48.9526 54.1934 48.8057 54.1934 48.6525C54.1933 48.5766 54.2079 48.5014 54.2365 48.4313C54.2651 48.3611 54.3071 48.2974 54.36 48.2436C54.4129 48.1899 54.4758 48.1473 54.5449 48.1183C54.6141 48.0892 54.6883 48.0742 54.7632 48.0742H66.3872C66.4621 48.0742 66.5362 48.0892 66.6054 48.1183C66.6746 48.1473 66.7375 48.1899 66.7904 48.2436C66.8433 48.2974 66.8853 48.3611 66.9138 48.4313C66.9424 48.5014 66.9571 48.5766 66.957 48.6525C66.957 48.8057 66.897 48.9526 66.7901 49.0609C66.6833 49.1692 66.5383 49.2301 66.3872 49.2301Z" fill="#D5DEEC"/>
<path d="M58.1206 54.0404H24.6868C24.543 54.0403 24.4052 53.9822 24.3037 53.8791C24.2021 53.776 24.145 53.6363 24.145 53.4906C24.145 53.3449 24.2021 53.2052 24.3037 53.1023C24.4053 52.9993 24.5431 52.9414 24.6868 52.9414H58.1206C58.2643 52.9414 58.4021 52.9993 58.5037 53.1023C58.6053 53.2052 58.6624 53.3449 58.6624 53.4906C58.6624 53.6363 58.6054 53.776 58.5038 53.8791C58.4022 53.9822 58.2644 54.0403 58.1206 54.0404Z" fill="#D5DEEC"/>
<path d="M58.1206 64.5541H24.6868C24.543 64.5539 24.4052 64.4959 24.3037 64.3928C24.2021 64.2897 24.145 64.15 24.145 64.0042C24.145 63.8586 24.2021 63.7189 24.3037 63.6159C24.4053 63.5129 24.5431 63.4551 24.6868 63.4551H58.1206C58.2643 63.4551 58.4021 63.5129 58.5037 63.6159C58.6053 63.7189 58.6624 63.8586 58.6624 64.0042C58.6624 64.15 58.6054 64.2897 58.5038 64.3928C58.4022 64.4959 58.2644 64.5539 58.1206 64.5541Z" fill="#D5DEEC"/>
<path d="M58.1206 73.7533H24.6868C24.543 73.7531 24.4052 73.6951 24.3037 73.592C24.2021 73.4889 24.145 73.3492 24.145 73.2035C24.145 73.0578 24.2021 72.9181 24.3037 72.8151C24.4053 72.7122 24.5431 72.6543 24.6868 72.6543H58.1206C58.2643 72.6543 58.4021 72.7122 58.5037 72.8151C58.6053 72.9181 58.6624 73.0578 58.6624 73.2035C58.6624 73.3492 58.6054 73.4889 58.5038 73.592C58.4022 73.6951 58.2644 73.7531 58.1206 73.7533Z" fill="#D5DEEC"/>
<path d="M42.5689 55.9772H24.6844C24.5407 55.9772 24.4029 55.9194 24.3013 55.8164C24.1997 55.7134 24.1426 55.5737 24.1426 55.4281C24.1426 55.2824 24.1997 55.1427 24.3013 55.0398C24.4029 54.9368 24.5407 54.8789 24.6844 54.8789H42.5689C42.7127 54.8789 42.8506 54.9367 42.9523 55.0397C43.054 55.1427 43.1112 55.2824 43.1114 55.4281C43.1112 55.5738 43.054 55.7135 42.9523 55.8164C42.8506 55.9194 42.7127 55.9772 42.5689 55.9772Z" fill="#D5DEEC"/>
<path d="M42.5689 66.4909H24.6844C24.5407 66.4909 24.4029 66.433 24.3013 66.3301C24.1997 66.2271 24.1426 66.0874 24.1426 65.9417C24.1426 65.7961 24.1997 65.6564 24.3013 65.5534C24.4029 65.4504 24.5407 65.3926 24.6844 65.3926H42.5689C42.7127 65.3926 42.8506 65.4504 42.9523 65.5534C43.054 65.6563 43.1112 65.796 43.1114 65.9417C43.1112 66.0875 43.054 66.2271 42.9523 66.3301C42.8506 66.4331 42.7127 66.4909 42.5689 66.4909Z" fill="#D5DEEC"/>
<path d="M42.5689 75.6921H24.6844C24.5407 75.6921 24.4029 75.6342 24.3013 75.5312C24.1997 75.4282 24.1426 75.2886 24.1426 75.1429C24.1426 74.9973 24.1997 74.8576 24.3013 74.7546C24.4029 74.6516 24.5407 74.5938 24.6844 74.5938H42.5689C42.7127 74.5937 42.8506 74.6516 42.9523 74.7546C43.054 74.8575 43.1112 74.9972 43.1114 75.1429C43.1112 75.2886 43.054 75.4283 42.9523 75.5313C42.8506 75.6342 42.7127 75.6921 42.5689 75.6921Z" fill="#D5DEEC"/>
<path d="M108.85 44V54C108.85 55.0217 108.022 55.85 107 55.85H65C63.9783 55.85 63.15 55.0217 63.15 54V44C63.15 42.9783 63.9783 42.15 65 42.15H107C108.022 42.15 108.85 42.9783 108.85 44Z" fill="white" stroke="#E3E2E7" stroke-width="0.3"/>
<path d="M108.85 61V71C108.85 72.0217 108.022 72.85 107 72.85H65C63.9783 72.85 63.15 72.0217 63.15 71V61C63.15 59.9783 63.9783 59.15 65 59.15H107C108.022 59.15 108.85 59.9783 108.85 61Z" fill="white" stroke="#E3E2E7" stroke-width="0.3"/>
<path d="M108.85 78V88C108.85 89.0217 108.022 89.85 107 89.85H65C63.9783 89.85 63.15 89.0217 63.15 88V78C63.15 76.9783 63.9783 76.15 65 76.15H107C108.022 76.15 108.85 76.9783 108.85 78Z" fill="white" stroke="#E3E2E7" stroke-width="0.3"/>
<path d="M91.9282 17.478C91.9282 17.478 92.3282 22.0686 91.2402 21.9992C90.1521 21.9298 88.0034 19.9084 83.6653 20.237C79.3273 20.5655 74.0215 21.4777 70.8138 16.0235C67.6061 10.5693 74.9162 9 74.9162 9L91.9298 17.478H91.9282Z" fill="#233862"/>
<path d="M81.9659 17.1947L103.551 19L104 18.0236L83.3053 2.48403L62.4017 0L62 0.87387L81.9659 17.1947Z" fill="#2B478B"/>
<path d="M96.9617 33.7251C96.9073 33.5349 96.7977 33.3651 96.6468 33.2372C96.4959 33.1093 96.3104 33.029 96.1139 33.0065C95.9173 32.984 95.7185 33.0203 95.5426 33.1108C95.3666 33.2013 95.2215 33.342 95.1255 33.5149C95.0296 33.6879 94.9871 33.8855 95.0034 34.0827C95.0198 34.2798 95.0942 34.4677 95.2174 34.6225C95.3406 34.7773 95.5069 34.8921 95.6953 34.9524C95.8838 35.0127 96.0859 35.0158 96.276 34.9612C96.5307 34.8878 96.7458 34.7166 96.8743 34.4849C97.0029 34.2532 97.0343 33.98 96.9617 33.7251Z" fill="#FFBF00"/>
<path d="M96.1696 34.0004C96.8441 33.9334 97 41.7884 97 41.7884C97 41.7884 96.5605 42.0533 96.344 41.9903C96.1274 41.9274 96.0176 40.8681 96.0176 40.8681L95.9965 41.9797C95.9965 41.9797 95.2568 42.0132 95 41.7827C95 41.7827 95.1003 34.1067 96.1677 34.0004H96.1696Z" fill="#FFBF00"/>
<path d="M97 34L96.8436 16.5444L96.7308 16.4596L85.4067 8L85 8.55622L96.2113 16.9311L96.4648 33.9701L97 34Z" fill="#FFBF00"/>
<path d="M95.4264 46.0983H77.5418C77.3981 46.0983 77.2603 46.0405 77.1587 45.9375C77.0571 45.8345 77 45.6948 77 45.5492C77 45.4035 77.0571 45.2638 77.1587 45.1608C77.2603 45.0579 77.3981 45 77.5418 45H95.4264C95.5701 45 95.708 45.0578 95.8097 45.1608C95.9114 45.2638 95.9686 45.4034 95.9688 45.5492C95.9686 45.6949 95.9114 45.8346 95.8097 45.9375C95.708 46.0405 95.5701 46.0983 95.4264 46.0983Z" fill="#D5DEEC"/>
<path d="M95.4264 63.0983H77.5418C77.3981 63.0983 77.2603 63.0405 77.1587 62.9375C77.0571 62.8345 77 62.6948 77 62.5492C77 62.4035 77.0571 62.2638 77.1587 62.1608C77.2603 62.0579 77.3981 62 77.5418 62H95.4264C95.5701 62 95.708 62.0578 95.8097 62.1608C95.9114 62.2638 95.9686 62.4034 95.9688 62.5492C95.9686 62.6949 95.9114 62.8346 95.8097 62.9375C95.708 63.0405 95.5701 63.0983 95.4264 63.0983Z" fill="#D5DEEC"/>
<path d="M95.4264 80.0983H77.5418C77.3981 80.0983 77.2603 80.0405 77.1587 79.9375C77.0571 79.8345 77 79.6948 77 79.5492C77 79.4035 77.0571 79.2638 77.1587 79.1608C77.2603 79.0579 77.3981 79 77.5418 79H95.4264C95.5701 79 95.708 79.0578 95.8097 79.1608C95.9114 79.2638 95.9686 79.4034 95.9688 79.5492C95.9686 79.6949 95.9114 79.8346 95.8097 79.9375C95.708 80.0405 95.5701 80.0983 95.4264 80.0983Z" fill="#D5DEEC"/>
<path d="M88.4264 49.0983H77.5418C77.3981 49.0983 77.2603 49.0405 77.1587 48.9375C77.0571 48.8345 77 48.6948 77 48.5492C77 48.4035 77.0571 48.2638 77.1587 48.1608C77.2603 48.0579 77.3981 48 77.5418 48H88.4264C88.5701 48 88.708 48.0578 88.8097 48.1608C88.9114 48.2638 88.9686 48.4034 88.9688 48.5492C88.9686 48.6949 88.9114 48.8346 88.8097 48.9375C88.708 49.0405 88.5701 49.0983 88.4264 49.0983Z" fill="#D5DEEC"/>
<path d="M88.4264 66.0983H77.5418C77.3981 66.0983 77.2603 66.0405 77.1587 65.9375C77.0571 65.8345 77 65.6948 77 65.5492C77 65.4035 77.0571 65.2638 77.1587 65.1608C77.2603 65.0579 77.3981 65 77.5418 65H88.4264C88.5701 65 88.708 65.0578 88.8097 65.1608C88.9114 65.2638 88.9686 65.4034 88.9688 65.5492C88.9686 65.6949 88.9114 65.8346 88.8097 65.9375C88.708 66.0405 88.5701 66.0983 88.4264 66.0983Z" fill="#D5DEEC"/>
<path d="M88.4264 83.0983H77.5418C77.3981 83.0983 77.2603 83.0405 77.1587 82.9375C77.0571 82.8345 77 82.6948 77 82.5492C77 82.4035 77.0571 82.2638 77.1587 82.1608C77.2603 82.0579 77.3981 82 77.5418 82H88.4264C88.5701 82 88.708 82.0578 88.8097 82.1608C88.9114 82.2638 88.9686 82.4034 88.9688 82.5492C88.9686 82.6949 88.9114 82.8346 88.8097 82.9375C88.708 83.0405 88.5701 83.0983 88.4264 83.0983Z" fill="#D5DEEC"/>
<path d="M92.4264 52.0983H77.5418C77.3981 52.0983 77.2603 52.0405 77.1587 51.9375C77.0571 51.8345 77 51.6948 77 51.5492C77 51.4035 77.0571 51.2638 77.1587 51.1608C77.2603 51.0579 77.3981 51 77.5418 51H92.4264C92.5701 51 92.708 51.0578 92.8097 51.1608C92.9114 51.2638 92.9686 51.4034 92.9688 51.5492C92.9686 51.6949 92.9114 51.8346 92.8097 51.9375C92.708 52.0405 92.5701 52.0983 92.4264 52.0983Z" fill="#D5DEEC"/>
<path d="M92.4264 69.0983H77.5418C77.3981 69.0983 77.2603 69.0405 77.1587 68.9375C77.0571 68.8345 77 68.6948 77 68.5492C77 68.4035 77.0571 68.2638 77.1587 68.1608C77.2603 68.0579 77.3981 68 77.5418 68H92.4264C92.5701 68 92.708 68.0578 92.8097 68.1608C92.9114 68.2638 92.9686 68.4034 92.9688 68.5492C92.9686 68.6949 92.9114 68.8346 92.8097 68.9375C92.708 69.0405 92.5701 69.0983 92.4264 69.0983Z" fill="#D5DEEC"/>
<path d="M92.4264 86.0983H77.5418C77.3981 86.0983 77.2603 86.0405 77.1587 85.9375C77.0571 85.8345 77 85.6948 77 85.5492C77 85.4035 77.0571 85.2638 77.1587 85.1608C77.2603 85.0579 77.3981 85 77.5418 85H92.4264C92.5701 85 92.708 85.0578 92.8097 85.1608C92.9114 85.2638 92.9686 85.4034 92.9688 85.5492C92.9686 85.6949 92.9114 85.8346 92.8097 85.9375C92.708 86.0405 92.5701 86.0983 92.4264 86.0983Z" fill="#D5DEEC"/>
<path fill-rule="evenodd" clip-rule="evenodd" d="M70.0002 52.6673C67.9751 52.6673 66.3335 51.0257 66.3335 49.0007C66.3335 46.9756 67.9751 45.334 70.0002 45.334C72.0252 45.334 73.6668 46.9756 73.6668 49.0007C73.6668 51.0257 72.0252 52.6673 70.0002 52.6673ZM70.0002 52.0006C71.657 52.0006 73.0002 50.6575 73.0002 49.0006C73.0002 47.3438 71.657 46.0006 70.0002 46.0006C68.3433 46.0006 67.0002 47.3438 67.0002 49.0006C67.0002 50.6575 68.3433 52.0006 70.0002 52.0006ZM71.0977 47.7649L69.3334 49.5292L68.5691 48.7649L68.0977 49.2363L69.3334 50.472L71.5691 48.2363L71.0977 47.7649Z" fill="#23C1B8"/>
<path fill-rule="evenodd" clip-rule="evenodd" d="M66.333 65.9987C66.333 68.0237 67.9746 69.6654 69.9997 69.6654C72.0247 69.6654 73.6663 68.0237 73.6663 65.9987C73.6663 63.9737 72.0247 62.332 69.9997 62.332C67.9746 62.332 66.333 63.9737 66.333 65.9987ZM72.9998 65.999C72.9998 67.6559 71.6566 68.999 69.9998 68.999C68.3429 68.999 66.9998 67.6559 66.9998 65.999C66.9998 64.3422 68.3429 62.999 69.9998 62.999C71.6566 62.999 72.9998 64.3422 72.9998 65.999Z" fill="#FE5858"/>
<path fill-rule="evenodd" clip-rule="evenodd" d="M69.5482 66.0175L68.666 66.8998L69.1374 67.3712L70.0196 66.4889L70.9019 67.3712L71.3733 66.8998L70.491 66.0175L71.3731 65.1355L70.9017 64.6641L70.0196 65.5461L69.1376 64.6641L68.6662 65.1355L69.5482 66.0175Z" fill="#FE5858"/>
<path fill-rule="evenodd" clip-rule="evenodd" d="M66.333 82.9987C66.333 85.0237 67.9746 86.6654 69.9997 86.6654C72.0247 86.6654 73.6663 85.0237 73.6663 82.9987C73.6663 80.9737 72.0247 79.332 69.9997 79.332C67.9746 79.332 66.333 80.9737 66.333 82.9987ZM72.9998 82.999C72.9998 84.6559 71.6566 85.999 69.9998 85.999C68.3429 85.999 66.9998 84.6559 66.9998 82.999C66.9998 81.3422 68.3429 79.999 69.9998 79.999C71.6566 79.999 72.9998 81.3422 72.9998 82.999Z" fill="#FE5858"/>
<path fill-rule="evenodd" clip-rule="evenodd" d="M69.5482 83.0175L68.666 83.8998L69.1374 84.3712L70.0196 83.4889L70.9019 84.3712L71.3733 83.8998L70.491 83.0175L71.3731 82.1355L70.9017 81.6641L70.0196 82.5461L69.1376 81.6641L68.6662 82.1355L69.5482 83.0175Z" fill="#FE5858"/>
</svg>
