<svg width="140" height="50" viewBox="0 0 140 50" fill="none" xmlns="http://www.w3.org/2000/svg">
<rect x="0.5" y="0.5" width="139" height="49" rx="9.5" stroke="#D1CFD7"/>
<path d="M20.855 38.9986C16.3901 38.9728 12.6968 29.8585 12.6968 25.2167C12.6968 17.6345 18.3848 15.9745 20.5769 15.9745C21.5648 15.9745 22.6196 16.3624 23.55 16.7057C24.2007 16.9452 24.8736 17.1924 25.2478 17.1924C25.4718 17.1924 25.9997 16.9821 26.4657 16.7976C27.4596 16.4019 28.6964 15.9102 30.1367 15.9102C30.1393 15.9102 30.1427 15.9102 30.1452 15.9102C31.2207 15.9102 34.4814 16.1462 36.4418 19.0902L36.901 19.7802L36.2401 20.2789C35.296 20.9913 33.5733 22.2908 33.5733 24.8649C33.5733 27.9136 35.5243 29.086 36.4615 29.6499C36.8753 29.8988 37.3035 30.1555 37.3035 30.7168C37.3035 31.0833 34.3784 38.9531 30.1306 38.9531C29.0912 38.9531 28.3565 38.6407 27.7085 38.3652C27.0528 38.0862 26.4871 37.8459 25.5524 37.8459C25.0786 37.8459 24.4795 38.0699 23.8452 38.3077C22.9785 38.6312 21.9974 38.9986 20.8841 38.9986H20.855Z" fill="#9A99A2"/>
<path d="M30.5867 9C30.6974 12.9888 27.8447 15.7561 24.9954 15.5825C24.5259 12.3993 27.8444 9 30.5867 9Z" fill="#9A99A2"/>
<path d="M47.42 31H49.184L50.192 28.634H54.826L55.82 31H57.64L53.328 21.13H51.732L47.42 31ZM50.822 27.108L52.502 23.188L54.196 27.108H50.822ZM59.1245 33.24H60.8185V29.852C61.3365 30.538 62.1065 31.154 63.3245 31.154C65.0885 31.154 66.7685 29.768 66.7685 27.318C66.7685 24.84 65.0745 23.454 63.3245 23.454C62.1345 23.454 61.3645 24.07 60.8185 24.84V23.608H59.1245V33.24ZM62.9325 29.684C61.7845 29.684 60.7765 28.746 60.7765 27.318C60.7765 25.876 61.7845 24.924 62.9325 24.924C64.0805 24.924 65.0465 25.862 65.0465 27.29C65.0465 28.774 64.0945 29.684 62.9325 29.684ZM68.5035 33.24H70.1975V29.852C70.7155 30.538 71.4855 31.154 72.7035 31.154C74.4675 31.154 76.1475 29.768 76.1475 27.318C76.1475 24.84 74.4535 23.454 72.7035 23.454C71.5135 23.454 70.7435 24.07 70.1975 24.84V23.608H68.5035V33.24ZM72.3115 29.684C71.1635 29.684 70.1555 28.746 70.1555 27.318C70.1555 25.876 71.1635 24.924 72.3115 24.924C73.4595 24.924 74.4255 25.862 74.4255 27.29C74.4255 28.774 73.4735 29.684 72.3115 29.684ZM85.7056 31.14C87.7636 31.14 89.2056 30.048 89.2056 28.214C89.2056 26.562 88.1276 25.82 86.0556 25.316C84.1796 24.868 83.7316 24.532 83.7316 23.776C83.7316 23.104 84.3196 22.586 85.3276 22.586C86.2236 22.586 87.1056 22.936 87.9876 23.594L88.9116 22.292C87.9176 21.494 86.7836 21.06 85.3556 21.06C83.4096 21.06 82.0096 22.222 82.0096 23.902C82.0096 25.736 83.1856 26.352 85.2716 26.842C87.0916 27.276 87.4836 27.654 87.4836 28.354C87.4836 29.124 86.8116 29.614 85.7476 29.614C84.5296 29.614 83.5916 29.152 82.6536 28.34L81.6176 29.572C82.7936 30.622 84.2076 31.14 85.7056 31.14ZM93.5127 31.126C94.1427 31.126 94.6187 30.986 95.0387 30.748V29.362C94.7027 29.53 94.3667 29.614 93.9887 29.614C93.4147 29.614 93.0787 29.348 93.0787 28.69V25.064H95.0667V23.608H93.0787V21.578H91.3847V23.608H90.4467V25.064H91.3847V28.956C91.3847 30.58 92.2667 31.126 93.5127 31.126ZM100.086 31.168C102.368 31.168 104.048 29.418 104.048 27.318C104.048 25.176 102.382 23.454 100.114 23.454C97.8458 23.454 96.1658 25.204 96.1658 27.318C96.1658 29.446 97.8318 31.168 100.086 31.168ZM100.114 29.698C98.7978 29.698 97.8598 28.606 97.8598 27.318C97.8598 26.002 98.7278 24.938 100.086 24.938C101.416 24.938 102.354 26.016 102.354 27.318C102.354 28.62 101.486 29.698 100.114 29.698ZM105.773 31H107.467V28.186C107.467 26.226 108.503 25.26 109.987 25.26H110.085V23.468C108.783 23.412 107.929 24.168 107.467 25.274V23.608H105.773V31ZM114.698 31.168C116.056 31.168 117.022 30.622 117.722 29.782L116.728 28.9C116.14 29.474 115.552 29.782 114.726 29.782C113.634 29.782 112.78 29.11 112.598 27.906H118.03C118.044 27.822 118.058 27.542 118.058 27.43C118.058 25.302 116.868 23.454 114.516 23.454C112.402 23.454 110.904 25.19 110.904 27.304C110.904 29.614 112.556 31.168 114.698 31.168ZM112.584 26.786C112.738 25.638 113.466 24.84 114.502 24.84C115.622 24.84 116.266 25.694 116.378 26.786H112.584Z" fill="#9A99A2"/>
</svg>
