<svg width="17" height="17" viewBox="0 0 17 17" fill="none" xmlns="http://www.w3.org/2000/svg">
<path fill-rule="evenodd" clip-rule="evenodd" d="M16.4168 8.50065C16.4168 12.8707 12.8622 16.4173 8.50016 16.4173L8.27868 16.4143C4.01096 16.2969 0.583496 12.7966 0.583496 8.50065C0.583496 4.13857 4.13016 0.583984 8.50016 0.583984C12.8622 0.583984 16.4168 4.13857 16.4168 8.50065ZM6.93267 5.33372C6.70308 5.57122 6.70308 5.94331 6.94058 6.17289L9.276 8.50039L6.94058 10.8279C6.70308 11.0575 6.70308 11.4375 6.93267 11.6671C7.17017 11.9046 7.54225 11.9046 7.77183 11.6671L10.5348 8.91997C10.6456 8.80914 10.7089 8.65872 10.7089 8.50039C10.7089 8.34206 10.6456 8.19164 10.5348 8.08081L7.77183 5.33372C7.661 5.21497 7.51058 5.15956 7.36017 5.15956C7.20183 5.15956 7.05142 5.21497 6.93267 5.33372Z" fill="#D1CFD7"/>
</svg>
