<svg width="243" height="40" viewBox="0 0 243 40" fill="none" xmlns="http://www.w3.org/2000/svg">
<path d="M49.8701 10.1365H51.4118V4.2697H54.1747V10.1365H55.7163V2.81606H49.8701V10.1365Z" fill="#051C2C"/>
<path d="M57.3976 10.1365H62.7333V8.70382H58.9292V7.16652H62.2327V5.7338H58.9292V4.24879H62.6832V2.81606H57.3976V10.1365Z" fill="#051C2C"/>
<path d="M64.1039 10.1365H65.6456V7.9404H66.8168C68.3885 7.9404 69.6498 7.06194 69.6498 5.36777C69.6498 3.85139 68.6388 2.81606 66.967 2.81606H64.1039V10.1365ZM65.6456 6.50768V4.2697H66.8368C67.6077 4.2697 68.0882 4.65664 68.0882 5.37823C68.0882 6.02662 67.6377 6.50768 66.8669 6.50768H65.6456Z" fill="#051C2C"/>
<path d="M80.4109 2.81606H78.8693V8.68291H76.3666V2.81606H74.825V8.68291H72.3323V2.81606H70.7907V10.1365H80.4109V2.81606Z" fill="#051C2C"/>
<path d="M81.4911 10.1365H83.0628L83.7035 8.49467H86.6666L87.3073 10.1365H88.919L85.9158 2.76377H84.4943L81.4911 10.1365ZM84.254 7.0724L85.185 4.69847L86.116 7.0724H84.254Z" fill="#051C2C"/>
<path d="M96.4054 10.262C98.5676 10.262 100.139 8.55741 100.139 6.47631C100.139 4.37428 98.5877 2.69057 96.4254 2.69057C94.2631 2.69057 92.6914 4.3952 92.6914 6.47631C92.6914 8.57833 94.2431 10.262 96.4054 10.262ZM96.4254 8.77703C95.1841 8.77703 94.3031 7.73125 94.3031 6.47631C94.3031 5.20045 95.164 4.17558 96.4054 4.17558C97.6467 4.17558 98.5276 5.22137 98.5276 6.47631C98.5276 7.75216 97.6667 8.77703 96.4254 8.77703Z" fill="#051C2C"/>
<path d="M101.507 10.1365H103.048V7.1979H105.891V10.1365H107.433V2.81606H105.891V5.71288H103.048V2.81606H101.507V10.1365Z" fill="#051C2C"/>
<path d="M110.044 2.81606V4.33245C110.044 8.27505 109.573 8.82932 108.742 8.82932C108.642 8.82932 108.572 8.81886 108.502 8.8084L108.402 10.1365C108.592 10.1888 108.962 10.2307 109.213 10.2307C110.814 10.2307 111.485 9.1326 111.485 4.82397V4.2697H113.507V10.1365H115.049V2.81606H110.044Z" fill="#051C2C"/>
<path d="M116.127 10.1365H117.699L118.34 8.49467H121.303L121.944 10.1365H123.555L120.552 2.76377H119.131L116.127 10.1365ZM118.89 7.0724L119.821 4.69847L120.752 7.0724H118.89Z" fill="#051C2C"/>
<path d="M130.673 2.81606H129.242L126.158 7.61621V2.81606H124.637V10.1365H126.088L129.152 5.3364V10.1365H130.673V2.81606ZM127.68 2.2618C128.601 2.2618 129.222 1.67616 129.362 0.672208L128.471 0.504883C128.341 0.933654 128.1 1.20556 127.68 1.20556C127.26 1.20556 127.019 0.933654 126.889 0.504883L125.998 0.672208C126.138 1.67616 126.759 2.2618 127.68 2.2618Z" fill="#051C2C"/>
<path d="M132.36 10.1365H133.901V7.1979H136.745V10.1365H138.286V2.81606H136.745V5.71288H133.901V2.81606H132.36V10.1365Z" fill="#051C2C"/>
<path d="M142.366 10.1365H143.938L144.579 8.49467H147.542L148.182 10.1365H149.794L146.791 2.76377H145.369L142.366 10.1365ZM145.129 7.0724L146.06 4.69847L146.991 7.0724H145.129Z" fill="#051C2C"/>
<path d="M150.876 10.1365H154.209C155.791 10.1365 156.832 9.46725 156.832 8.12864C156.832 7.12469 156.331 6.63317 155.52 6.30898C156.021 6.01616 156.441 5.55602 156.441 4.72985C156.441 4.20696 156.281 3.7991 155.961 3.46445C155.561 3.04614 154.93 2.81606 154.129 2.81606H150.876V10.1365ZM152.377 5.77563V4.22787H153.899C154.549 4.22787 154.91 4.49978 154.91 4.98084C154.91 5.54556 154.479 5.77563 153.799 5.77563H152.377ZM152.377 8.72474V7.11423H154.159C154.95 7.11423 155.3 7.41751 155.3 7.90903C155.3 8.47375 154.89 8.72474 154.209 8.72474H152.377Z" fill="#051C2C"/>
<path d="M159.732 10.1365H161.273V4.30108H163.406V2.81606H157.599V4.30108H159.732V10.1365Z" fill="#051C2C"/>
<path d="M167.995 10.262C170.157 10.262 171.729 8.55741 171.729 6.47631C171.729 4.37428 170.177 2.69057 168.015 2.69057C165.853 2.69057 164.281 4.3952 164.281 6.47631C164.281 8.57833 165.833 10.262 167.995 10.262ZM168.015 8.77703C166.774 8.77703 165.893 7.73125 165.893 6.47631C165.893 5.20045 166.754 4.17558 167.995 4.17558C169.236 4.17558 170.117 5.22137 170.117 6.47631C170.117 7.75216 169.256 8.77703 168.015 8.77703Z" fill="#051C2C"/>
<path d="M182.717 2.81606H181.175V8.68291H178.672V2.81606H177.131V8.68291H174.638V2.81606H173.096V10.1365H182.717V2.81606Z" fill="#051C2C"/>
<path d="M184.397 10.1365H185.939V7.89857L186.75 7.02011L188.922 10.1365H190.774L187.791 5.92204L190.644 2.81606H188.782L185.939 6.01616V2.81606H184.397V10.1365Z" fill="#051C2C"/>
<path d="M195.113 10.262C197.276 10.262 198.847 8.55741 198.847 6.47631C198.847 4.37428 197.296 2.69057 195.133 2.69057C192.971 2.69057 191.4 4.3952 191.4 6.47631C191.4 8.57833 192.951 10.262 195.113 10.262ZM195.133 8.77703C193.892 8.77703 193.011 7.73125 193.011 6.47631C193.011 5.20045 193.872 4.17558 195.113 4.17558C196.355 4.17558 197.236 5.22137 197.236 6.47631C197.236 7.75216 196.375 8.77703 195.133 8.77703Z" fill="#051C2C"/>
<path d="M201.146 2.81606V4.33245C201.146 8.27505 200.675 8.82932 199.845 8.82932C199.744 8.82932 199.674 8.81886 199.604 8.8084L199.504 10.1365C199.694 10.1888 200.065 10.2307 200.315 10.2307C201.917 10.2307 202.587 9.1326 202.587 4.82397V4.2697H204.61V10.1365H206.151V2.81606H201.146Z" fill="#051C2C"/>
<path d="M207.23 10.1365H208.801L209.442 8.49467H212.405L213.046 10.1365H214.658L211.654 2.76377H210.233L207.23 10.1365ZM209.993 7.0724L210.924 4.69847L211.855 7.0724H209.993Z" fill="#051C2C"/>
<path d="M48.7568 18.243H58.2345C60.6791 18.243 62.616 18.8741 64.0452 20.1363C65.4744 21.3984 66.189 23.2333 66.189 25.6411C66.189 27.1557 65.8975 28.4469 65.3145 29.5149C64.7316 30.5634 63.9042 31.3887 62.8323 31.9906L65.9351 38.6023H59.1935L56.5985 33.0392H55.3291V38.6023H48.7568V18.243ZM56.8241 27.8838C58.5354 27.8838 59.391 27.1363 59.391 25.6411C59.391 24.146 58.5354 23.3984 56.8241 23.3984H55.3291V27.8838H56.8241Z" fill="#051C2C"/>
<path d="M77.3399 39.0392C75.3278 39.0392 73.5037 38.5926 71.8677 37.6994C70.2504 36.8062 68.9717 35.5634 68.0315 33.9712C67.0912 32.3596 66.6211 30.5149 66.6211 28.4372C66.6211 26.3596 67.0912 24.5149 68.0315 22.9032C68.9717 21.2916 70.2504 20.0392 71.8677 19.146C73.5037 18.2528 75.3278 17.8062 77.3399 17.8062C79.3332 17.8062 81.1385 18.2528 82.7557 19.146C84.3917 20.0392 85.6798 21.2916 86.6201 22.9032C87.5603 24.5149 88.0304 26.3596 88.0304 28.4372C88.0304 30.5149 87.5603 32.3596 86.6201 33.9712C85.6798 35.5634 84.3917 36.8062 82.7557 37.6994C81.1385 38.5926 79.3332 39.0392 77.3399 39.0392ZM77.3399 32.544C78.4682 32.544 79.399 32.1751 80.1324 31.4372C80.8658 30.6994 81.2325 29.6994 81.2325 28.4372C81.2325 27.1751 80.8658 26.1751 80.1324 25.4372C79.399 24.6994 78.4682 24.3304 77.3399 24.3304C76.1928 24.3304 75.2525 24.6994 74.5191 25.4372C73.7858 26.1751 73.4191 27.1751 73.4191 28.4372C73.4191 29.6994 73.7858 30.6994 74.5191 31.4372C75.2713 32.1751 76.2116 32.544 77.3399 32.544Z" fill="#051C2C"/>
<path d="M89.4426 18.243H95.3379L100.331 29.0197L105.323 18.243H111.219V38.6023H105.041V31.0586L101.402 38.6023H99.2587L95.62 31.0586V38.6023H89.4426V18.243Z" fill="#051C2C"/>
<path d="M113.187 18.243H120.747C122.928 18.243 124.837 18.6508 126.473 19.4663C128.128 20.2819 129.407 21.4469 130.309 22.9615C131.212 24.4761 131.663 26.2625 131.663 28.3207C131.663 31.6994 130.685 34.2625 128.73 36.01C126.793 37.7382 124.132 38.6023 120.747 38.6023H113.187V18.243ZM121.198 32.1945C123.643 32.1945 124.865 30.9032 124.865 28.3207C124.865 27.1363 124.546 26.2333 123.906 25.612C123.267 24.9712 122.364 24.6508 121.198 24.6508H119.873V32.1945H121.198Z" fill="#051C2C"/>
<path d="M143.23 39.0392C141.218 39.0392 139.394 38.5926 137.758 37.6994C136.141 36.8062 134.862 35.5634 133.922 33.9712C132.982 32.3596 132.512 30.5149 132.512 28.4372C132.512 26.3596 132.982 24.5149 133.922 22.9032C134.862 21.2916 136.141 20.0392 137.758 19.146C139.394 18.2528 141.218 17.8062 143.23 17.8062C145.224 17.8062 147.029 18.2528 148.646 19.146C150.282 20.0392 151.57 21.2916 152.511 22.9032C153.451 24.5149 153.921 26.3596 153.921 28.4372C153.921 30.5149 153.451 32.3596 152.511 33.9712C151.57 35.5634 150.282 36.8062 148.646 37.6994C147.029 38.5926 145.224 39.0392 143.23 39.0392ZM143.23 32.544C144.359 32.544 145.29 32.1751 146.023 31.4372C146.756 30.6994 147.123 29.6994 147.123 28.4372C147.123 27.1751 146.756 26.1751 146.023 25.4372C145.29 24.6994 144.359 24.3304 143.23 24.3304C142.083 24.3304 141.143 24.6994 140.41 25.4372C139.676 26.1751 139.31 27.1751 139.31 28.4372C139.31 29.6994 139.676 30.6994 140.41 31.4372C141.162 32.1751 142.102 32.544 143.23 32.544Z" fill="#051C2C"/>
<path d="M155.333 18.243H161.228L166.221 29.0197L171.214 18.243H177.109V38.6023H170.932V31.0586L167.293 38.6023H165.149L161.51 31.0586V38.6023H155.333V18.243Z" fill="#051C2C"/>
<path d="M179.078 18.243H186.637C188.819 18.243 190.728 18.6508 192.364 19.4663C194.018 20.2819 195.297 21.4469 196.2 22.9615C197.102 24.4761 197.554 26.2625 197.554 28.3207C197.554 31.6994 196.576 34.2625 194.62 36.01C192.683 37.7382 190.022 38.6023 186.637 38.6023H179.078V18.243ZM187.089 32.1945C189.533 32.1945 190.756 30.9032 190.756 28.3207C190.756 27.1363 190.436 26.2333 189.797 25.612C189.157 24.9712 188.255 24.6508 187.089 24.6508H185.763V32.1945H187.089Z" fill="#051C2C"/>
<path d="M209.121 39.0392C207.109 39.0392 205.285 38.5926 203.649 37.6994C202.031 36.8062 200.753 35.5634 199.812 33.9712C198.872 32.3596 198.402 30.5149 198.402 28.4372C198.402 26.3596 198.872 24.5149 199.812 22.9032C200.753 21.2916 202.031 20.0392 203.649 19.146C205.285 18.2528 207.109 17.8062 209.121 17.8062C211.114 17.8062 212.919 18.2528 214.537 19.146C216.173 20.0392 217.461 21.2916 218.401 22.9032C219.341 24.5149 219.811 26.3596 219.811 28.4372C219.811 30.5149 219.341 32.3596 218.401 33.9712C217.461 35.5634 216.173 36.8062 214.537 37.6994C212.919 38.5926 211.114 39.0392 209.121 39.0392ZM209.121 32.544C210.249 32.544 211.18 32.1751 211.913 31.4372C212.647 30.6994 213.014 29.6994 213.014 28.4372C213.014 27.1751 212.647 26.1751 211.913 25.4372C211.18 24.6994 210.249 24.3304 209.121 24.3304C207.974 24.3304 207.034 24.6994 206.3 25.4372C205.567 26.1751 205.2 27.1751 205.2 28.4372C205.2 29.6994 205.567 30.6994 206.3 31.4372C207.052 32.1751 207.993 32.544 209.121 32.544Z" fill="#051C2C"/>
<path d="M221.224 18.243H227.119L232.112 29.0197L237.104 18.243H243V38.6023H236.822V31.0586L233.184 38.6023H231.04L227.401 31.0586V38.6023H221.224V18.243Z" fill="#051C2C"/>
<path d="M19.267 39.0389C29.9079 39.0389 38.534 30.4128 38.534 19.7719C38.534 9.13101 29.9079 0.504883 19.267 0.504883C8.69346 0.504883 0.109253 9.02221 0.0010398 19.5701L0 19.5691V39.0389H18.8614L18.8572 39.0346C18.9935 39.0374 19.1301 39.0389 19.267 39.0389Z" fill="url(#paint0_linear)"/>
<path fill-rule="evenodd" clip-rule="evenodd" d="M29.002 19.5694C29.002 24.9458 24.6436 29.3043 19.2671 29.3043C13.8907 29.3043 9.53223 24.9458 9.53223 19.5694C9.53223 14.1929 13.8907 9.83447 19.2671 9.83447C24.6436 9.83447 29.002 14.1929 29.002 19.5694ZM16.2158 25.3306C17.7676 23.6594 20.417 23.644 21.9788 25.3059C22.4634 25.8215 22.6405 26.5886 22.0549 26.9858C21.5355 27.338 20.6372 27.6648 19.0916 27.6648C17.5228 27.6648 16.6304 27.3281 16.1249 26.9699C15.5669 26.5745 15.7504 25.8317 16.2158 25.3306ZM26.2886 19.4525C26.9421 19.8807 27.2253 20.6942 26.6154 22.2358C26.0054 23.7773 25.8529 24.1627 25.1994 24.3768C23.8923 24.4839 23.1299 23.6275 22.3674 22.1287C21.8228 20.63 23.1299 19.6666 24.0012 19.4525C24.0012 19.4525 25.5262 19.0243 26.2886 19.4525ZM11.9188 22.2358C11.3089 20.6942 11.5921 19.8807 12.2456 19.4525C13.008 19.0243 14.5329 19.4525 14.5329 19.4525C15.4043 19.6666 16.7114 20.63 16.1668 22.1287C15.4043 23.6275 14.6419 24.4839 13.3348 24.3768C12.6813 24.1627 12.5288 23.7773 11.9188 22.2358ZM24.0311 17.0845C25.2411 17.3996 26.0048 17.5985 26.1053 17.1356C26.4761 15.4264 23.044 12.089 19.2678 12.089C15.4916 12.089 12.0491 15.4284 12.4304 17.1529C12.5302 17.6044 13.2853 17.4064 14.4824 17.0924C15.6968 16.7739 17.3662 16.3361 19.2678 16.3361C21.158 16.3361 22.8186 16.7687 24.0311 17.0845Z" fill="white"/>
<defs>
<linearGradient id="paint0_linear" x1="33.0581" y1="5.98077" x2="-9.85209e-07" y2="39.0389" gradientUnits="userSpaceOnUse">
<stop stop-color="#FF6900"/>
<stop offset="0.0001" stop-color="#F77D22"/>
<stop offset="1" stop-color="#E40046"/>
</linearGradient>
</defs>
</svg>
