<svg width="140" height="50" viewBox="0 0 140 50" fill="none" xmlns="http://www.w3.org/2000/svg">
<rect x="0.5" y="0.5" width="139" height="49" rx="9.5" stroke="#D1CFD7"/>
<path d="M50.908 31.168C52.644 31.168 54.03 30.468 54.996 29.642V25.526H50.824V27.024H53.33V28.858C52.728 29.306 51.888 29.6 50.964 29.6C48.962 29.6 47.632 28.116 47.632 26.1C47.632 24.196 49.004 22.614 50.81 22.614C52.056 22.614 52.798 23.02 53.554 23.664L54.646 22.362C53.638 21.508 52.588 21.032 50.88 21.032C47.926 21.032 45.826 23.356 45.826 26.1C45.826 28.984 47.842 31.168 50.908 31.168ZM60.5565 31.168C62.8385 31.168 64.5185 29.418 64.5185 27.318C64.5185 25.176 62.8525 23.454 60.5845 23.454C58.3165 23.454 56.6365 25.204 56.6365 27.318C56.6365 29.446 58.3025 31.168 60.5565 31.168ZM60.5845 29.698C59.2685 29.698 58.3305 28.606 58.3305 27.318C58.3305 26.002 59.1985 24.938 60.5565 24.938C61.8865 24.938 62.8245 26.016 62.8245 27.318C62.8245 28.62 61.9565 29.698 60.5845 29.698ZM69.7577 31.168C72.0397 31.168 73.7197 29.418 73.7197 27.318C73.7197 25.176 72.0537 23.454 69.7857 23.454C67.5177 23.454 65.8377 25.204 65.8377 27.318C65.8377 29.446 67.5037 31.168 69.7577 31.168ZM69.7857 29.698C68.4697 29.698 67.5317 28.606 67.5317 27.318C67.5317 26.002 68.3997 24.938 69.7577 24.938C71.0877 24.938 72.0257 26.016 72.0257 27.318C72.0257 28.62 71.1577 29.698 69.7857 29.698ZM78.7349 33.268C80.0649 33.268 81.1009 32.946 81.7729 32.274C82.3889 31.658 82.7109 30.734 82.7109 29.488V23.608H81.0169V24.714C80.4429 24.028 79.6729 23.454 78.4269 23.454C76.7049 23.454 75.0669 24.742 75.0669 26.926C75.0669 29.124 76.6909 30.412 78.4269 30.412C79.6449 30.412 80.4149 29.852 81.0309 29.054V29.628C81.0309 31.112 80.2049 31.896 78.6929 31.896C77.6849 31.896 76.8449 31.602 76.0609 31.112L75.4309 32.386C76.3829 32.96 77.5169 33.268 78.7349 33.268ZM78.8749 28.984C77.7129 28.984 76.7749 28.158 76.7749 26.94C76.7749 25.694 77.6989 24.882 78.8749 24.882C80.0509 24.882 81.0449 25.708 81.0449 26.926C81.0449 28.144 80.0509 28.984 78.8749 28.984ZM84.9218 31H86.6158V20.78H84.9218V31ZM92.2176 31.168C93.5756 31.168 94.5416 30.622 95.2416 29.782L94.2476 28.9C93.6596 29.474 93.0716 29.782 92.2456 29.782C91.1536 29.782 90.2996 29.11 90.1176 27.906H95.5496C95.5636 27.822 95.5776 27.542 95.5776 27.43C95.5776 25.302 94.3876 23.454 92.0356 23.454C89.9216 23.454 88.4236 25.19 88.4236 27.304C88.4236 29.614 90.0756 31.168 92.2176 31.168ZM90.1036 26.786C90.2576 25.638 90.9856 24.84 92.0216 24.84C93.1416 24.84 93.7856 25.694 93.8976 26.786H90.1036ZM101.476 33.24H103.17V29.852C103.688 30.538 104.458 31.154 105.676 31.154C107.44 31.154 109.12 29.768 109.12 27.318C109.12 24.84 107.426 23.454 105.676 23.454C104.486 23.454 103.716 24.07 103.17 24.84V23.608H101.476V33.24ZM105.284 29.684C104.136 29.684 103.128 28.746 103.128 27.318C103.128 25.876 104.136 24.924 105.284 24.924C106.432 24.924 107.398 25.862 107.398 27.29C107.398 28.774 106.446 29.684 105.284 29.684ZM110.953 31H112.647V20.78H110.953V31ZM121.063 31V26.618C121.063 24.644 119.999 23.496 117.815 23.496C116.611 23.496 115.813 23.748 115.001 24.112L115.463 25.47C116.135 25.19 116.751 25.008 117.577 25.008C118.753 25.008 119.397 25.568 119.397 26.59V26.73C118.823 26.548 118.249 26.422 117.353 26.422C115.631 26.422 114.357 27.206 114.357 28.844C114.357 30.356 115.589 31.154 116.989 31.154C118.109 31.154 118.879 30.692 119.383 30.09V31H121.063ZM119.425 28.326C119.425 29.25 118.585 29.88 117.465 29.88C116.667 29.88 116.037 29.488 116.037 28.788C116.037 28.046 116.667 27.612 117.731 27.612C118.389 27.612 118.991 27.738 119.425 27.906V28.326ZM124.316 33.282C125.506 33.282 126.164 32.722 126.752 31.21L129.692 23.608H127.928L126.01 29.096L123.91 23.608H122.104L125.184 31C124.904 31.644 124.61 31.854 124.134 31.854C123.784 31.854 123.448 31.742 123.14 31.574L122.566 32.834C123.084 33.114 123.602 33.282 124.316 33.282Z" fill="#9A99A2"/>
<path d="M14.3775 19.0039C13.3422 19.0039 12.5029 19.8432 12.5029 20.8785V29.6264C12.5029 30.6617 13.3422 31.501 14.3775 31.501C15.4128 31.501 16.252 30.6617 16.252 29.6264V20.8785C16.252 19.8432 15.4128 19.0039 14.3775 19.0039Z" fill="#9A99A2"/>
<path d="M35.6226 19.0039C34.5873 19.0039 33.748 19.8432 33.748 20.8785V29.6264C33.748 30.6617 34.5873 31.501 35.6226 31.501C36.6579 31.501 37.4972 30.6617 37.4972 29.6264V20.8785C37.4972 19.8432 36.658 19.0039 35.6226 19.0039Z" fill="#9A99A2"/>
<path d="M31.8736 19.0039H18.1268C17.7817 19.0039 17.502 19.2837 17.502 19.6288V29.6264C17.5017 31.1113 18.5465 32.3912 20.0014 32.6882V37.1246C20.0014 38.1599 20.8407 38.9992 21.8759 38.9992C22.9112 38.9992 23.7505 38.1599 23.7505 37.1246V32.7506H26.2499V37.1246C26.2499 38.1599 27.0892 38.9992 28.1245 38.9992C29.1598 38.9992 29.9991 38.1599 29.9991 37.1246V32.6882C31.454 32.3912 32.4988 31.1113 32.4985 29.6264V19.6288C32.4984 19.2837 32.2187 19.0039 31.8736 19.0039Z" fill="#9A99A2"/>
<path d="M29.5425 11.5964L31.0659 10.0743C31.3141 9.83453 31.3209 9.439 31.0812 9.19074C30.8415 8.94253 30.4459 8.93568 30.1977 9.17539C30.1924 9.18043 30.1873 9.18552 30.1823 9.19074L28.4077 10.9654C26.2343 10.0212 23.7665 10.0212 21.5931 10.9654L19.8185 9.18951C19.5703 8.94974 19.1747 8.95665 18.9349 9.20485C18.7011 9.44702 18.7011 9.8309 18.9349 10.073L20.4571 11.5964C18.6015 12.8242 17.4901 14.905 17.5016 17.1301C17.5016 17.4752 17.7813 17.755 18.1264 17.755H31.8732C32.2183 17.755 32.4981 17.4752 32.4981 17.1301C32.5095 14.9051 31.3981 12.8243 29.5425 11.5964Z" fill="#9A99A2"/>
<path d="M21.8759 15.2537C22.221 15.2537 22.5007 14.9739 22.5007 14.6288C22.5007 14.2837 22.221 14.0039 21.8759 14.0039C21.5307 14.0039 21.251 14.2837 21.251 14.6288C21.251 14.9739 21.5307 15.2537 21.8759 15.2537Z" fill="#051C2C"/>
<path d="M28.1244 15.2537C28.4695 15.2537 28.7493 14.9739 28.7493 14.6288C28.7493 14.2837 28.4695 14.0039 28.1244 14.0039C27.7793 14.0039 27.4995 14.2837 27.4995 14.6288C27.4995 14.9739 27.7793 15.2537 28.1244 15.2537Z" fill="#051C2C"/>
</svg>
