<svg width="19" height="19" viewBox="0 0 19 19" fill="none" xmlns="http://www.w3.org/2000/svg">
<path d="M16.2168 0H2.7832C1.24867 0 0 1.24867 0 2.7832V16.2168C0 17.7513 1.24867 19 2.7832 19H16.2168C17.7513 19 19 17.7513 19 16.2168V2.7832C19 1.24867 17.7513 0 16.2168 0ZM9.53711 14.4727C6.77464 14.4727 4.52734 12.2254 4.52734 9.46289C4.52734 6.70042 6.77464 4.45312 9.53711 4.45312C12.2996 4.45312 14.5469 6.70042 14.5469 9.46289C14.5469 12.2254 12.2996 14.4727 9.53711 14.4727ZM15.1035 5.56641C14.1827 5.56641 13.4336 4.81726 13.4336 3.89648C13.4336 2.97571 14.1827 2.22656 15.1035 2.22656C16.0243 2.22656 16.7734 2.97571 16.7734 3.89648C16.7734 4.81726 16.0243 5.56641 15.1035 5.56641Z" fill="#D1CFD7"/>
</svg>
