<svg width="1272" height="559" viewBox="0 0 1272 559" fill="none" xmlns="http://www.w3.org/2000/svg">
<rect width="1272" height="559" rx="20" fill="#4D38D3"/>
<mask id="mask0_9055:2571" style="mask-type:alpha" maskUnits="userSpaceOnUse" x="0" y="0" width="1272" height="559">
<rect width="1272" height="559" rx="20" fill="#4D38D3"/>
</mask>
<g mask="url(#mask0_9055:2571)">
<g opacity="0.4" clip-path="url(#clip0_9055:2571)">
<path d="M184.091 72.6235L148.304 64.641C147.81 64.5308 147.32 64.8423 147.21 65.3361L141.622 90.3872C141.512 90.881 141.823 91.3712 142.317 91.4814L178.104 99.464C178.598 99.5741 179.088 99.2627 179.198 98.7688L184.786 73.7178C184.896 73.224 184.585 72.7337 184.091 72.6235ZM177.609 97.475L143.611 89.8916L148.799 66.6299L182.797 74.2133L177.609 97.475L177.609 97.475Z" fill="white"/>
<path d="M187.477 65.8632L148.112 57.0824C147.618 56.9722 147.127 57.2837 147.017 57.7775L145.421 64.9349C145.311 65.4288 145.622 65.9191 146.116 66.0292L185.482 74.81C185.976 74.9202 186.466 74.6088 186.576 74.1149L188.173 66.9575C188.283 66.4635 187.971 65.9734 187.477 65.8632ZM184.986 72.8211L147.41 64.4394L148.607 59.0713L186.184 67.453L184.986 72.8211Z" fill="white"/>
<path d="M167.794 61.473C167.3 61.3628 166.81 61.6743 166.7 62.1681L159.516 94.3766C159.405 94.8705 159.717 95.3607 160.211 95.4709C160.705 95.5811 161.195 95.2696 161.305 94.7758L168.489 62.5673C168.599 62.0733 168.288 61.5832 167.794 61.473Z" fill="white"/>
<path d="M168.556 62.3629C168.599 57.8436 164.145 51.9908 160.627 50.5563C160.412 50.4612 160.186 50.3865 159.948 50.3334C157.975 49.8932 156.012 51.1402 155.571 53.1139C155.387 53.9388 155.496 54.8083 155.876 55.5636C155.882 55.5706 155.885 55.5808 155.889 55.5891C157.789 59.5762 166.344 62.85 167.319 63.212C167.358 63.2266 167.399 63.2394 167.438 63.2482C167.687 63.3036 167.946 63.2543 168.159 63.1084C168.405 62.9396 168.553 62.661 168.556 62.3629ZM157.527 54.7618C157.516 54.7349 157.503 54.7112 157.489 54.6875C157.316 54.3201 157.271 53.9138 157.361 53.513C157.581 52.5253 158.563 51.9029 159.549 52.1228C159.667 52.1492 159.781 52.1876 159.913 52.2434C162.494 53.2962 165.819 57.4453 166.567 60.937C163.58 59.6677 158.62 57.1544 157.527 54.7618Z" fill="white"/>
<path d="M179.631 54.7235C179.393 54.6704 179.157 54.6421 178.948 54.6368C175.13 54.4407 168.611 57.846 166.729 61.955C166.605 62.226 166.621 62.5413 166.772 62.7986C166.901 63.019 167.116 63.1759 167.363 63.2309C167.402 63.2397 167.444 63.2453 167.484 63.2506C168.521 63.337 177.656 64.0091 181.07 61.2074C181.079 61.2019 181.086 61.1941 181.095 61.1886C181.76 60.6662 182.228 59.9253 182.412 59.1005C182.852 57.1268 181.605 55.1637 179.631 54.7235ZM180.006 59.7116C179.984 59.7273 179.962 59.7429 179.94 59.7626C177.937 61.4609 172.378 61.6316 169.133 61.5107C171.297 58.6648 176.071 56.3244 178.877 56.4694C178.995 56.4731 179.114 56.4865 179.232 56.5129C180.218 56.7328 180.842 57.7136 180.622 58.7013C180.533 59.1021 180.32 59.4491 180.006 59.7116Z" fill="white"/>
</g>
<g opacity="0.4" clip-path="url(#clip1_9055:2571)">
<path d="M1140.12 42.1908L1106.23 56.1891C1105.76 56.3823 1105.54 56.9187 1105.73 57.3863L1115.53 81.1089C1115.73 81.5765 1116.26 81.7993 1116.73 81.6062L1150.62 67.6079C1151.09 67.4147 1151.31 66.8783 1151.12 66.4106L1141.32 42.6881C1141.12 42.2204 1140.59 41.9976 1140.12 42.1908ZM1149.07 66.2634L1116.88 79.5618L1107.78 57.5336L1139.97 44.2352L1149.07 66.2634L1149.07 66.2634Z" fill="white"/>
<path d="M1139.01 34.7128L1101.74 50.111C1101.27 50.3041 1101.05 50.8405 1101.24 51.3082L1104.04 58.0861C1104.23 58.5537 1104.77 58.7765 1105.24 58.5834L1142.51 43.1852C1142.98 42.9921 1143.2 42.4557 1143.01 41.988L1140.21 35.2102C1140.02 34.7424 1139.48 34.5197 1139.01 34.7128ZM1140.97 41.8407L1105.38 56.5389L1103.28 51.4554L1138.87 36.7572L1140.97 41.8407Z" fill="white"/>
<path d="M1120.38 42.4117C1119.91 42.6049 1119.69 43.1413 1119.88 43.609L1132.48 74.1095C1132.67 74.5771 1133.21 74.7999 1133.67 74.6067C1134.14 74.4136 1134.36 73.8772 1134.17 73.4095L1121.57 42.909C1121.38 42.4413 1120.84 42.2186 1120.38 42.4117Z" fill="white"/>
<path d="M1121.51 42.704C1118.95 38.9784 1111.94 36.7408 1108.24 37.5844C1108.01 37.6302 1107.78 37.6985 1107.56 37.7916C1105.69 38.5636 1104.8 40.7113 1105.57 42.5804C1105.89 43.3616 1106.48 44.0114 1107.22 44.4119C1107.23 44.4142 1107.24 44.4206 1107.25 44.4253C1111.09 46.6003 1119.98 44.3725 1120.98 44.1096C1121.02 44.0986 1121.06 44.0859 1121.1 44.0705C1121.34 43.9732 1121.52 43.7842 1121.61 43.5426C1121.72 43.2631 1121.68 42.9496 1121.51 42.704ZM1108.12 42.8075C1108.09 42.7918 1108.07 42.7801 1108.04 42.7685C1107.69 42.5672 1107.42 42.26 1107.26 41.8805C1106.88 40.9451 1107.32 39.8718 1108.26 39.4861C1108.37 39.4399 1108.48 39.4063 1108.62 39.3761C1111.34 38.7574 1116.45 40.2472 1119.06 42.6774C1115.89 43.352 1110.38 44.1398 1108.12 42.8075Z" fill="white"/>
<path d="M1126.2 30.0905C1125.97 30.1836 1125.76 30.2959 1125.59 30.4116C1122.35 32.442 1118.96 38.9715 1119.78 43.4166C1119.83 43.7099 1120.03 43.9589 1120.3 44.0829C1120.53 44.1892 1120.8 44.1944 1121.03 44.0978C1121.07 44.0824 1121.11 44.0629 1121.14 44.0442C1122.04 43.5203 1129.91 38.8288 1131.1 34.575C1131.1 34.5655 1131.1 34.5549 1131.1 34.5453C1131.35 33.736 1131.31 32.8608 1130.98 32.0797C1130.21 30.2106 1128.07 29.3185 1126.2 30.0905ZM1129.37 33.9604C1129.36 33.9861 1129.35 34.0117 1129.34 34.0401C1128.67 36.5806 1124.22 39.9102 1121.49 41.6734C1121.63 38.101 1124.2 33.4444 1126.58 31.953C1126.68 31.8886 1126.78 31.8312 1126.9 31.7851C1127.83 31.3994 1128.9 31.8442 1129.29 32.7796C1129.45 33.1591 1129.47 33.5653 1129.37 33.9604Z" fill="white"/>
</g>
<g opacity="0.4" clip-path="url(#clip2_9055:2571)">
<path d="M1017.61 156.727L994.4 147.561C994.08 147.435 993.718 147.592 993.591 147.912L987.175 164.157C987.048 164.477 987.206 164.839 987.526 164.966L1010.73 174.132C1011.05 174.259 1011.42 174.101 1011.54 173.781L1017.96 157.537C1018.08 157.217 1017.93 156.854 1017.61 156.727ZM1010.61 172.743L988.564 164.035L994.522 148.951L1016.57 157.659L1010.61 172.743L1010.61 172.743Z" fill="white"/>
<path d="M1020.6 152.546L995.073 142.464C994.753 142.337 994.39 142.494 994.264 142.815L992.431 147.456C992.304 147.776 992.462 148.139 992.782 148.265L1018.31 158.348C1018.63 158.475 1018.99 158.317 1019.12 157.997L1020.95 153.356C1021.08 153.035 1020.92 152.673 1020.6 152.546ZM1018.19 156.959L993.82 147.334L995.195 143.853L1019.56 153.478L1018.19 156.959Z" fill="white"/>
<path d="M1007.84 147.503C1007.52 147.376 1007.15 147.533 1007.03 147.854L998.777 168.739C998.651 169.06 998.808 169.422 999.128 169.549C999.448 169.675 999.811 169.518 999.937 169.198L1008.19 148.312C1008.31 147.992 1008.16 147.629 1007.84 147.503Z" fill="white"/>
<path d="M1008.25 148.182C1008.76 145.149 1006.39 140.742 1004.18 139.404C1004.04 139.317 1003.9 139.243 1003.75 139.182C1002.47 138.677 1001.01 139.306 1000.51 140.586C1000.3 141.121 1000.28 141.717 1000.45 142.265C1000.46 142.271 1000.46 142.278 1000.46 142.284C1001.31 145.165 1006.72 148.274 1007.33 148.621C1007.36 148.635 1007.38 148.648 1007.41 148.658C1007.57 148.722 1007.75 148.716 1007.91 148.641C1008.09 148.554 1008.22 148.382 1008.25 148.182ZM1001.65 141.902C1001.64 141.882 1001.64 141.865 1001.63 141.848C1001.55 141.582 1001.57 141.304 1001.67 141.045C1001.92 140.404 1002.65 140.09 1003.29 140.343C1003.36 140.373 1003.44 140.411 1003.52 140.462C1005.14 141.444 1006.94 144.586 1007.07 147.012C1005.2 145.842 1002.13 143.626 1001.65 141.902Z" fill="white"/>
<path d="M1016.51 144.224C1016.36 144.163 1016.2 144.119 1016.06 144.094C1013.51 143.556 1008.77 145.153 1007.07 147.715C1006.96 147.884 1006.93 148.097 1007.01 148.286C1007.07 148.448 1007.2 148.576 1007.36 148.64C1007.39 148.65 1007.41 148.658 1007.44 148.666C1008.13 148.834 1014.2 150.256 1016.79 148.735C1016.79 148.733 1016.8 148.728 1016.81 148.725C1017.31 148.445 1017.7 147.996 1017.91 147.462C1018.42 146.182 1017.79 144.73 1016.51 144.224ZM1016.23 147.617C1016.22 147.625 1016.2 147.633 1016.18 147.644C1014.66 148.573 1010.9 148.097 1008.73 147.671C1010.49 145.988 1013.95 144.922 1015.82 145.318C1015.9 145.333 1015.97 145.354 1016.05 145.385C1016.69 145.637 1017.01 146.363 1016.75 147.003C1016.65 147.263 1016.47 147.474 1016.23 147.617Z" fill="white"/>
</g>
<g opacity="0.2" clip-path="url(#clip3_9055:2571)">
<path d="M1228.6 193.737L1204.41 199.847C1204.08 199.932 1203.88 200.271 1203.96 200.605L1208.24 217.539C1208.32 217.873 1208.66 218.075 1208.99 217.991L1233.19 211.881C1233.52 211.796 1233.72 211.457 1233.64 211.123L1229.36 194.189C1229.28 193.855 1228.94 193.653 1228.6 193.737ZM1232.28 210.824L1209.29 216.629L1205.32 200.904L1228.3 195.1L1232.28 210.824L1232.28 210.824Z" fill="white"/>
<path d="M1228.59 188.595L1201.98 195.316C1201.65 195.4 1201.44 195.74 1201.53 196.074L1202.75 200.912C1202.83 201.246 1203.17 201.448 1203.51 201.364L1230.12 194.643C1230.45 194.559 1230.65 194.219 1230.57 193.885L1229.35 189.047C1229.26 188.713 1228.92 188.511 1228.59 188.595ZM1229.21 193.586L1203.81 200.002L1202.89 196.373L1228.29 189.957L1229.21 193.586Z" fill="white"/>
<path d="M1215.29 191.957C1214.95 192.041 1214.75 192.38 1214.83 192.714L1220.33 214.486C1220.42 214.82 1220.76 215.023 1221.09 214.938C1221.42 214.854 1221.63 214.515 1221.54 214.181L1216.04 192.409C1215.96 192.075 1215.62 191.872 1215.29 191.957Z" fill="white"/>
<path d="M1216.02 192.262C1214.66 189.503 1210.16 187.31 1207.59 187.516C1207.43 187.524 1207.27 187.548 1207.11 187.588C1205.77 187.925 1204.96 189.284 1205.3 190.618C1205.44 191.176 1205.77 191.671 1206.23 192.014C1206.24 192.016 1206.24 192.021 1206.25 192.025C1208.62 193.866 1214.82 193.235 1215.53 193.157C1215.56 193.153 1215.59 193.149 1215.61 193.142C1215.78 193.1 1215.92 192.99 1216.01 192.836C1216.1 192.659 1216.11 192.444 1216.02 192.262ZM1206.99 191.021C1206.98 191.008 1206.96 190.997 1206.94 190.987C1206.73 190.817 1206.58 190.584 1206.51 190.313C1206.34 189.645 1206.74 188.966 1207.41 188.798C1207.49 188.778 1207.57 188.766 1207.67 188.76C1209.56 188.609 1212.85 190.112 1214.37 192.004C1212.17 192.148 1208.39 192.14 1206.99 191.021Z" fill="white"/>
<path d="M1220.41 184.227C1220.25 184.268 1220.1 184.323 1219.97 184.384C1217.59 185.434 1214.67 189.5 1214.79 192.573C1214.79 192.776 1214.9 192.962 1215.07 193.072C1215.22 193.167 1215.39 193.196 1215.56 193.154C1215.59 193.147 1215.62 193.138 1215.64 193.129C1216.3 192.864 1222.05 190.475 1223.27 187.726C1223.27 187.72 1223.28 187.713 1223.28 187.707C1223.52 187.186 1223.58 186.593 1223.44 186.035C1223.1 184.701 1221.74 183.89 1220.41 184.227ZM1222.17 187.143C1222.16 187.16 1222.15 187.176 1222.14 187.194C1221.44 188.84 1218.12 190.646 1216.11 191.567C1216.55 189.175 1218.74 186.29 1220.49 185.519C1220.56 185.485 1220.64 185.457 1220.72 185.437C1221.38 185.268 1222.06 185.673 1222.23 186.341C1222.3 186.612 1222.28 186.888 1222.17 187.143Z" fill="white"/>
</g>
<g opacity="0.2" clip-path="url(#clip4_9055:2571)">
<path d="M742.85 23.556L724.847 28.1031C724.598 28.1659 724.447 28.4184 724.51 28.6669L727.693 41.2693C727.756 41.5177 728.008 41.6684 728.257 41.6056L746.26 37.0586C746.509 36.9958 746.659 36.7432 746.597 36.4948L743.414 23.8924C743.351 23.644 743.098 23.4933 742.85 23.556ZM745.583 36.2721L728.48 40.5918L725.524 28.8896L742.627 24.5699L745.583 36.2721L745.583 36.2721Z" fill="white"/>
<path d="M742.841 19.7283L723.037 24.7301C722.789 24.7928 722.638 25.0454 722.701 25.2938L723.61 28.8945C723.673 29.143 723.925 29.2937 724.174 29.2309L743.977 24.2291C744.226 24.1664 744.377 23.9138 744.314 23.6654L743.404 20.0647C743.342 19.8162 743.089 19.6655 742.841 19.7283ZM743.3 23.4426L724.397 28.2171L723.714 25.5165L742.618 20.7421L743.3 23.4426Z" fill="white"/>
<path d="M732.939 22.2281C732.69 22.2909 732.54 22.5434 732.602 22.7919L736.695 38.9949C736.758 39.2434 737.01 39.3941 737.259 39.3313C737.507 39.2686 737.658 39.016 737.595 38.7676L733.503 22.5645C733.44 22.316 733.187 22.1654 732.939 22.2281Z" fill="white"/>
<path d="M733.486 22.457C732.475 20.4035 729.127 18.7719 727.209 18.9249C727.09 18.931 726.971 18.9486 726.851 18.9789C725.858 19.2297 725.255 20.241 725.505 21.2339C725.61 21.6489 725.858 22.0174 726.202 22.2724C726.206 22.2742 726.21 22.278 726.213 22.2809C727.981 23.6509 732.596 23.1815 733.12 23.123C733.141 23.1205 733.162 23.1171 733.182 23.1121C733.307 23.0805 733.413 22.9992 733.476 22.8846C733.549 22.7522 733.552 22.5924 733.486 22.457ZM726.766 21.5333C726.755 21.5237 726.743 21.516 726.732 21.5084C726.569 21.3818 726.457 21.2082 726.406 21.0066C726.28 20.5097 726.582 20.0044 727.078 19.8791C727.138 19.8641 727.198 19.8556 727.27 19.8507C728.678 19.7386 731.127 20.8569 732.261 22.2654C730.621 22.3722 727.805 22.3662 726.766 21.5333Z" fill="white"/>
<path d="M736.753 16.4788C736.633 16.509 736.52 16.55 736.424 16.5953C734.653 17.3769 732.481 20.4027 732.567 22.6899C732.572 22.8407 732.651 22.9797 732.778 23.0616C732.887 23.1318 733.02 23.1538 733.144 23.1224C733.164 23.1174 733.184 23.1103 733.203 23.1036C733.692 22.9065 737.976 21.1282 738.881 19.083C738.884 19.0785 738.886 19.0733 738.888 19.0688C739.07 18.681 739.113 18.2394 739.008 17.8244C738.757 16.8315 737.746 16.228 736.753 16.4788ZM738.059 18.649C738.053 18.6612 738.046 18.6734 738.041 18.6871C737.522 19.9118 735.047 21.256 733.552 21.941C733.882 20.1608 735.508 18.0141 736.81 17.4402C736.864 17.415 736.921 17.394 736.98 17.379C737.476 17.2537 737.982 17.5549 738.108 18.0518C738.159 18.2534 738.142 18.4588 738.059 18.649Z" fill="white"/>
</g>
<g opacity="0.3" clip-path="url(#clip5_9055:2571)">
<path d="M556.296 7.9613L533.728 -1.85993C533.417 -1.99546 533.054 -1.85269 532.919 -1.54125L526.044 14.2563C525.908 14.5677 526.051 14.9304 526.362 15.066L548.93 24.8872C549.242 25.0228 549.604 24.88 549.74 24.5685L556.615 8.77108C556.75 8.45962 556.608 8.09684 556.296 7.9613ZM548.857 23.5133L527.418 14.1831L533.801 -0.486039L555.241 8.84414L548.857 23.5133L548.857 23.5133Z" fill="white"/>
<path d="M559.39 3.93565L534.565 -6.86774C534.254 -7.00328 533.891 -6.8605 533.755 -6.54907L531.791 -2.03551C531.656 -1.72407 531.798 -1.36129 532.11 -1.22575L556.934 9.57761C557.246 9.71314 557.609 9.57037 557.744 9.25893L559.708 4.74538C559.844 4.43389 559.701 4.07118 559.39 3.93565ZM556.861 8.20366L533.165 -2.10865L534.638 -5.49383L558.335 4.81848L556.861 8.20366Z" fill="white"/>
<path d="M546.977 -1.4654C546.666 -1.60093 546.303 -1.45816 546.168 -1.14672L537.328 19.1644C537.193 19.4758 537.336 19.8386 537.647 19.9741C537.959 20.1096 538.321 19.9669 538.457 19.6554L547.296 -0.655642C547.432 -0.967131 547.289 -1.32986 546.977 -1.4654Z" fill="white"/>
<path d="M555.638 -4.40661C555.488 -4.47192 555.336 -4.52061 555.199 -4.55077C552.708 -5.16659 547.978 -3.75305 546.214 -1.28488C546.097 -1.12215 546.068 -0.912276 546.134 -0.723472C546.192 -0.561717 546.313 -0.430985 546.469 -0.363218C546.494 -0.352422 546.521 -0.343395 546.546 -0.334821C547.218 -0.145755 553.153 1.46125 555.76 0.0499328C555.767 0.0473936 555.773 0.0432069 555.779 0.0406905C556.284 -0.218816 556.687 -0.647524 556.913 -1.16768C557.455 -2.41231 556.883 -3.86496 555.638 -4.40661ZM555.25 -1.07148C555.233 -1.06395 555.216 -1.0565 555.2 -1.04621C553.663 -0.182332 549.978 -0.778166 547.855 -1.27139C549.643 -2.8712 553.088 -3.80519 554.919 -3.35204C554.996 -3.33464 555.073 -3.3106 555.147 -3.27819C555.769 -3.0076 556.056 -2.28163 555.784 -1.65876C555.675 -1.40601 555.49 -1.2044 555.25 -1.07148Z" fill="white"/>
</g>
<g opacity="0.2" clip-path="url(#clip6_9055:2571)">
<path d="M327.071 113.406L302.65 118.521C302.313 118.591 302.096 118.922 302.167 119.259L305.747 136.354C305.817 136.691 306.148 136.907 306.485 136.837L330.907 131.722C331.244 131.652 331.46 131.321 331.389 130.984L327.809 113.889C327.739 113.552 327.408 113.336 327.071 113.406ZM330.04 130.629L306.84 135.488L303.516 119.614L326.716 114.755L330.04 130.629L330.04 130.629Z" fill="white"/>
<path d="M327.269 108.266L300.406 113.892C300.069 113.962 299.853 114.293 299.923 114.63L300.946 119.514C301.017 119.851 301.348 120.068 301.685 119.997L328.548 114.371C328.885 114.301 329.101 113.97 329.031 113.633L328.008 108.749C327.937 108.412 327.606 108.195 327.269 108.266ZM327.682 113.278L302.039 118.648L301.272 114.985L326.915 109.615L327.682 113.278Z" fill="white"/>
<path d="M313.838 111.079C313.501 111.15 313.284 111.481 313.355 111.818L317.958 133.797C318.028 134.134 318.359 134.35 318.696 134.279C319.033 134.209 319.249 133.878 319.179 133.541L314.576 111.562C314.505 111.225 314.175 111.009 313.838 111.079Z" fill="white"/>
<path d="M314.56 111.414C313.315 108.601 308.91 106.226 306.327 106.326C306.167 106.328 306.006 106.345 305.844 106.379C304.497 106.661 303.631 107.986 303.913 109.333C304.031 109.896 304.342 110.404 304.79 110.765C304.796 110.768 304.801 110.773 304.805 110.777C307.104 112.714 313.325 112.338 314.031 112.288C314.06 112.286 314.089 112.282 314.116 112.277C314.285 112.241 314.432 112.138 314.523 111.988C314.628 111.814 314.642 111.599 314.56 111.414ZM305.588 109.804C305.574 109.79 305.559 109.78 305.544 109.769C305.333 109.59 305.191 109.351 305.134 109.077C304.993 108.403 305.426 107.741 306.099 107.6C306.18 107.583 306.261 107.575 306.359 107.573C308.254 107.5 311.481 109.136 312.926 111.089C310.718 111.143 306.938 110.979 305.588 109.804Z" fill="white"/>
<path d="M319.275 103.57C319.112 103.604 318.958 103.653 318.827 103.708C316.406 104.66 313.324 108.603 313.313 111.678C313.312 111.881 313.41 112.072 313.576 112.189C313.718 112.289 313.896 112.326 314.064 112.291C314.091 112.285 314.118 112.277 314.145 112.269C314.811 112.031 320.661 109.879 321.989 107.183C321.993 107.177 321.996 107.171 322 107.165C322.265 106.654 322.346 106.063 322.228 105.5C321.946 104.154 320.622 103.288 319.275 103.57ZM320.91 106.555C320.9 106.571 320.891 106.587 320.883 106.606C320.119 108.221 316.722 109.89 314.677 110.727C315.218 108.355 317.519 105.563 319.299 104.864C319.372 104.833 319.45 104.808 319.531 104.791C320.203 104.65 320.866 105.082 321.007 105.756C321.065 106.03 321.03 106.304 320.91 106.555Z" fill="white"/>
</g>
<g opacity="0.4" clip-path="url(#clip7_9055:2571)">
<path d="M72.7295 202.382L49.2263 194.006C48.9019 193.891 48.5449 194.06 48.4293 194.384L42.5663 210.837C42.4508 211.161 42.6202 211.518 42.9445 211.634L66.4479 220.009C66.7722 220.125 67.1293 219.956 67.2449 219.631L73.1078 203.179C73.2233 202.855 73.0539 202.497 72.7295 202.382ZM66.279 218.625L43.9509 210.668L49.395 195.391L71.7232 203.348L66.279 218.625L66.279 218.625Z" fill="white"/>
<path d="M75.5799 198.102L49.7263 188.889C49.4019 188.774 49.0449 188.943 48.9293 189.267L47.2542 193.968C47.1386 194.292 47.308 194.649 47.6324 194.765L73.486 203.978C73.8103 204.094 74.1674 203.924 74.283 203.6L75.9581 198.899C76.0737 198.575 75.9043 198.218 75.5799 198.102ZM73.3172 202.594L48.6388 193.799L49.8951 190.274L74.5736 199.068L73.3172 202.594Z" fill="white"/>
<path d="M62.6525 193.495C62.3282 193.379 61.9711 193.548 61.8555 193.873L54.3175 215.026C54.2019 215.35 54.3713 215.707 54.6957 215.823C55.02 215.938 55.3771 215.769 55.4927 215.445L63.0308 194.292C63.1464 193.967 62.9769 193.61 62.6525 193.495Z" fill="white"/>
<path d="M63.093 194.16C63.4986 191.111 60.979 186.787 58.723 185.525C58.5854 185.443 58.4392 185.374 58.283 185.318C56.9867 184.856 55.557 185.535 55.095 186.831C54.902 187.373 54.9028 187.969 55.0964 188.511C55.0998 188.516 55.1012 188.523 55.1031 188.529C56.0538 191.38 61.5582 194.305 62.1864 194.63C62.2122 194.643 62.2383 194.655 62.2642 194.665C62.4275 194.723 62.6065 194.711 62.7625 194.63C62.9428 194.537 63.0664 194.361 63.093 194.16ZM56.2786 188.107C56.2735 188.088 56.2663 188.071 56.2592 188.054C56.1726 187.791 56.1764 187.513 56.2702 187.25C56.5014 186.601 57.2166 186.262 57.8641 186.493C57.9417 186.521 58.0152 186.556 58.0997 186.605C59.755 187.531 61.6547 190.611 61.8688 193.031C59.9574 191.925 56.8172 189.814 56.2786 188.107Z" fill="white"/>
<path d="M71.2094 189.924C71.0531 189.868 70.8961 189.829 70.7552 189.808C68.1929 189.357 63.5065 191.114 61.8928 193.732C61.7863 193.904 61.7708 194.119 61.8514 194.305C61.9204 194.465 62.0524 194.588 62.2145 194.646C62.2404 194.655 62.2683 194.663 62.2949 194.67C62.9876 194.814 69.1009 196.03 71.6404 194.423C71.6468 194.42 71.6524 194.415 71.6588 194.412C72.1515 194.115 72.5291 193.653 72.7222 193.112C73.1841 191.816 72.5056 190.386 71.2094 189.924ZM71.0467 193.324C71.0304 193.333 71.014 193.341 70.9979 193.353C69.5032 194.333 65.7349 193.984 63.5533 193.632C65.2519 191.891 68.6718 190.708 70.5547 191.04C70.6337 191.052 70.7131 191.071 70.7906 191.099C71.4381 191.33 71.7782 192.044 71.547 192.693C71.4532 192.956 71.2807 193.173 71.0467 193.324Z" fill="white"/>
</g>
<g opacity="0.3" clip-path="url(#clip8_9055:2571)">
<path d="M983.684 48.3831C985.138 37.9719 979.146 28.525 970.275 27.2865C961.404 26.048 953.047 33.5458 951.593 43.9569C950.318 53.0932 954.827 61.5209 961.913 64.2972L959.416 68.6058C959.273 68.8565 959.289 69.1295 959.365 69.3568C959.495 69.5916 959.685 69.7806 959.951 69.8177L962.5 70.1736C960.945 72.3934 959.583 75.9399 962.239 78.6392C965.131 81.5882 960.028 87.1034 959.968 87.1491C959.65 87.4839 959.69 87.9768 960.025 88.2943C960.169 88.4228 960.321 88.4981 960.48 88.5204C960.746 88.5575 960.973 88.4809 961.162 88.2907C961.419 88.0016 967.353 81.5735 963.366 77.551C960.847 75.0332 963.445 71.5511 964.299 70.4789L967.645 70.9461C967.911 70.9832 968.199 70.8609 968.388 70.6707C968.577 70.4805 968.621 70.1618 968.545 69.9344L967.422 65.1747C975.31 64.9221 982.357 57.8912 983.684 48.3831ZM961.402 68.3416L963.477 64.7321C964 64.8594 964.471 64.9793 965.002 65.0534C965.268 65.0905 965.48 65.1202 965.693 65.1498L966.767 69.0906L961.402 68.3416ZM965.225 63.4599C957.257 62.3475 951.859 53.6875 953.194 44.1263C954.522 34.6181 962.085 27.7677 970.053 28.8801C978.02 29.9925 983.418 38.6525 982.083 48.2137C980.756 57.7218 973.192 64.5723 965.225 63.4599Z" fill="white"/>
</g>
<g opacity="0.3" clip-path="url(#clip9_9055:2571)">
<path d="M303.684 9.38307C305.138 -1.02807 299.146 -10.475 290.275 -11.7135C281.404 -12.952 273.047 -5.45424 271.593 4.95689C270.318 14.0932 274.827 22.5209 281.913 25.2972L279.416 29.6058C279.273 29.8565 279.289 30.1295 279.365 30.3568C279.495 30.5916 279.685 30.7806 279.951 30.8177L282.5 31.1736C280.945 33.3934 279.583 36.9399 282.239 39.6392C285.131 42.5882 280.028 48.1034 279.968 48.1491C279.65 48.4839 279.69 48.9768 280.025 49.2943C280.169 49.4228 280.321 49.4981 280.48 49.5204C280.746 49.5575 280.973 49.4809 281.162 49.2907C281.419 49.0016 287.353 42.5735 283.366 38.551C280.847 36.0332 283.445 32.5511 284.299 31.4789L287.645 31.9461C287.911 31.9832 288.199 31.8609 288.388 31.6707C288.577 31.4805 288.621 31.1618 288.545 30.9344L287.422 26.1747C295.31 25.9221 302.357 18.8912 303.684 9.38307ZM281.402 29.3416L283.477 25.7321C284 25.8594 284.471 25.9793 285.002 26.0534C285.268 26.0905 285.48 26.1202 285.693 26.1498L286.767 30.0906L281.402 29.3416ZM285.225 24.4599C277.257 23.3475 271.859 14.6875 273.194 5.12626C274.522 -4.38187 282.085 -11.2323 290.053 -10.1199C298.02 -9.00753 303.418 -0.347541 302.083 9.2137C300.756 18.7218 293.192 25.5723 285.225 24.4599Z" fill="white"/>
</g>
<g opacity="0.4" clip-path="url(#clip10_9055:2571)">
<path d="M1101.61 180.765C1100.49 173.453 1094.54 168.295 1088.31 169.253C1082.08 170.21 1077.96 176.954 1079.08 184.266C1080.07 190.683 1084.81 195.453 1090.15 195.893L1089.34 199.302C1089.29 199.5 1089.36 199.681 1089.46 199.818C1089.59 199.95 1089.76 200.039 1089.94 200.011L1091.73 199.736C1091.13 201.546 1090.93 204.212 1093.27 205.495C1095.81 206.899 1093.49 211.648 1093.46 211.691C1093.31 211.981 1093.44 212.305 1093.73 212.452C1093.85 212.509 1093.97 212.529 1094.08 212.512C1094.27 212.483 1094.4 212.386 1094.49 212.219C1094.61 211.973 1097.31 206.44 1093.81 204.534C1091.6 203.346 1092.65 200.473 1093.01 199.578L1095.36 199.217C1095.54 199.188 1095.71 199.047 1095.8 198.881C1095.89 198.715 1095.86 198.491 1095.76 198.353L1094.04 195.371C1099.31 193.607 1102.64 187.443 1101.61 180.765ZM1090.62 198.722L1091.29 195.87C1091.67 195.85 1092.01 195.836 1092.39 195.778C1092.57 195.75 1092.72 195.727 1092.87 195.704L1094.39 198.143L1090.62 198.722ZM1092.21 194.659C1086.62 195.519 1081.23 190.772 1080.2 184.056C1079.17 177.378 1082.89 171.232 1088.48 170.372C1094.08 169.512 1099.47 174.259 1100.5 180.975C1101.52 187.653 1097.81 193.799 1092.21 194.659Z" fill="white"/>
</g>
<g opacity="0.4" clip-path="url(#clip11_9055:2571)">
<path d="M217.865 222.828C216.742 215.516 210.793 210.358 204.563 211.315C198.333 212.273 194.214 219.016 195.338 226.328C196.324 232.745 201.067 237.515 206.404 237.955L205.591 241.364C205.546 241.562 205.612 241.743 205.709 241.881C205.844 242.013 206.01 242.102 206.197 242.073L207.988 241.798C207.388 243.609 207.186 246.275 209.522 247.558C212.067 248.962 209.742 253.711 209.71 253.754C209.564 254.043 209.69 254.368 209.98 254.514C210.103 254.572 210.221 254.592 210.333 254.574C210.52 254.546 210.657 254.448 210.746 254.282C210.861 254.035 213.562 248.503 210.062 246.597C207.855 245.408 208.903 242.536 209.262 241.64L211.612 241.279C211.799 241.251 211.968 241.11 212.057 240.944C212.146 240.777 212.112 240.553 212.014 240.416L210.296 237.434C215.562 235.67 218.892 229.506 217.865 222.828ZM206.877 240.785L207.546 237.932C207.925 237.912 208.267 237.898 208.64 237.841C208.826 237.812 208.975 237.789 209.125 237.766L210.645 240.206L206.877 240.785ZM208.468 236.722C202.872 237.582 197.483 232.834 196.451 226.119C195.425 219.441 199.139 213.295 204.735 212.435C210.331 211.575 215.72 216.322 216.752 223.037C217.778 229.715 214.064 235.862 208.468 236.722Z" fill="white"/>
</g>
<g opacity="0.4" clip-path="url(#clip12_9055:2571)">
<path d="M61.8654 40.8279C60.7416 33.5157 54.7935 28.3579 48.5632 29.3154C42.3329 30.2729 38.2137 37.016 39.3375 44.3283C40.3237 50.7451 45.0666 55.5153 50.4042 55.9553L49.5915 59.3644C49.5455 59.5624 49.6115 59.7432 49.7091 59.8809C49.8439 60.013 50.0104 60.1019 50.1969 60.0733L51.9876 59.7981C51.3876 61.6088 51.1863 64.2747 53.522 65.5578C56.0672 66.9615 53.742 71.7106 53.7104 71.7536C53.564 72.0434 53.6903 72.3677 53.9801 72.5141C54.1035 72.5715 54.2211 72.5916 54.333 72.5744C54.5196 72.5458 54.6573 72.4482 54.7463 72.2818C54.8612 72.035 57.5624 66.5026 54.0617 64.5966C51.8551 63.4082 52.903 60.5357 53.2618 59.6404L55.6122 59.2792C55.7987 59.2506 55.9681 59.11 56.057 58.9435C56.146 58.7771 56.1116 58.5533 56.0141 58.4155L54.2956 55.4336C59.5618 53.6696 62.8917 47.5059 61.8654 40.8279ZM50.8772 58.7849L51.5463 55.9325C51.9251 55.9125 52.2666 55.8982 52.6397 55.8408C52.8262 55.8122 52.9755 55.7892 53.1247 55.7663L54.6453 58.2058L50.8772 58.7849ZM52.4677 54.7216C46.8716 55.5816 41.483 50.8343 40.451 44.119C39.4247 37.4409 43.1391 31.2946 48.7352 30.4346C54.3313 29.5746 59.7199 34.3219 60.7519 41.0372C61.7782 47.7152 58.0638 53.8616 52.4677 54.7216Z" fill="white"/>
</g>
<circle opacity="0.1" cx="369" cy="37" r="4" fill="white"/>
<circle opacity="0.1" cx="159" cy="163" r="4" fill="white"/>
<circle opacity="0.1" cx="1056" cy="89" r="4" fill="white"/>
<circle opacity="0.4" cx="85.5" cy="110.5" r="1.5" fill="white"/>
<circle opacity="0.4" cx="1165.5" cy="126.5" r="1.5" fill="white"/>
<circle opacity="0.4" cx="1134.5" cy="307.5" r="1.5" fill="white"/>
<circle opacity="0.4" cx="826.5" cy="24.5" r="1.5" fill="white"/>
<circle opacity="0.4" cx="514.5" cy="62.5" r="1.5" fill="white"/>
<circle opacity="0.4" cx="249.5" cy="133.5" r="1.5" fill="white"/>
</g>
<defs>
<clipPath id="clip0_9055:2571">
<rect width="44" height="44" fill="white" transform="translate(148.317 47.7383) rotate(12.5744)"/>
</clipPath>
<clipPath id="clip1_9055:2571">
<rect width="44" height="44" fill="white" transform="translate(1096.54 42.3398) rotate(-22.4435)"/>
</clipPath>
<clipPath id="clip2_9055:2571">
<rect width="29.9413" height="29.9413" fill="white" transform="translate(996.204 136.203) rotate(21.5535)"/>
</clipPath>
<clipPath id="clip3_9055:2571">
<rect width="29.9413" height="29.9413" fill="white" transform="translate(1199.24 189.574) rotate(-14.1747)"/>
</clipPath>
<clipPath id="clip4_9055:2571">
<rect width="22.2825" height="22.2825" fill="white" transform="translate(721 20.457) rotate(-14.1747)"/>
</clipPath>
<clipPath id="clip5_9055:2571">
<rect width="29.5348" height="29.5348" fill="white" transform="translate(535.892 -13) rotate(23.5181)"/>
</clipPath>
<clipPath id="clip6_9055:2571">
<rect width="29.9413" height="29.9413" fill="white" transform="translate(297.906 108.043) rotate(-11.8279)"/>
</clipPath>
<clipPath id="clip7_9055:2571">
<rect width="29.9413" height="29.9413" fill="white" transform="translate(50.6445 182.594) rotate(19.614)"/>
</clipPath>
<clipPath id="clip8_9055:2571">
<rect width="62" height="62" fill="white" transform="translate(939.573 23) rotate(7.94795)"/>
</clipPath>
<clipPath id="clip9_9055:2571">
<rect width="62" height="62" fill="white" transform="translate(259.573 -16) rotate(7.94795)"/>
</clipPath>
<clipPath id="clip10_9055:2571">
<rect width="43.6335" height="43.6335" fill="white" transform="translate(1066.75 172.566) rotate(-8.73704)"/>
</clipPath>
<clipPath id="clip11_9055:2571">
<rect width="43.6335" height="43.6335" fill="white" transform="translate(183 214.629) rotate(-8.73704)"/>
</clipPath>
<clipPath id="clip12_9055:2571">
<rect width="43.6335" height="43.6335" fill="white" transform="translate(27 32.6289) rotate(-8.73704)"/>
</clipPath>
</defs>
</svg>
