<svg width="19" height="19" viewBox="0 0 19 19" fill="none" xmlns="http://www.w3.org/2000/svg">
<path d="M16.625 7.91797C16.625 13.4596 9.5 18.2096 9.5 18.2096C9.5 18.2096 2.375 13.4596 2.375 7.91797C2.375 6.0283 3.12567 4.21603 4.46186 2.87983C5.79806 1.54364 7.61033 0.792969 9.5 0.792969C11.3897 0.792969 13.2019 1.54364 14.5381 2.87983C15.8743 4.21603 16.625 6.0283 16.625 7.91797Z" fill="#23C1B8"/>
<path d="M9.5 10.293C10.8117 10.293 11.875 9.22965 11.875 7.91797C11.875 6.60629 10.8117 5.54297 9.5 5.54297C8.18832 5.54297 7.125 6.60629 7.125 7.91797C7.125 9.22965 8.18832 10.293 9.5 10.293Z" fill="#051C2C"/>
</svg>
