<svg width="233" height="37" viewBox="0 0 233 37" fill="none" xmlns="http://www.w3.org/2000/svg">
<path d="M47.5518 9.75792H48.9661V4.60576H51.5008V9.75792H52.9151V3.3292H47.5518V9.75792Z" fill="white"/>
<path d="M54.4576 9.75792H59.3526V8.49973H55.8627V7.1497H58.8934V5.8915H55.8627V4.58739H59.3067V3.3292H54.4576V9.75792Z" fill="white"/>
<path d="M60.6101 9.75792H62.0244V7.8293H63.0989C64.5408 7.8293 65.698 7.05786 65.698 5.57007C65.698 4.2384 64.7704 3.3292 63.2367 3.3292H60.6101V9.75792ZM62.0244 6.57111V4.60576H63.1173C63.8245 4.60576 64.2653 4.94556 64.2653 5.57925C64.2653 6.14865 63.852 6.57111 63.1448 6.57111H62.0244Z" fill="white"/>
<path d="M75.5704 3.3292H74.156V8.48136H71.8601V3.3292H70.4457V8.48136H68.159V3.3292H66.7446V9.75792H75.5704V3.3292Z" fill="white"/>
<path d="M76.5614 9.75792H78.0032L78.591 8.31605H81.3094L81.8972 9.75792H83.3758L80.6206 3.28328H79.3165L76.5614 9.75792ZM79.0961 7.06704L79.9502 4.9823L80.8043 7.06704H79.0961Z" fill="white"/>
<path d="M90.2439 9.86812C92.2276 9.86812 93.6695 8.37115 93.6695 6.54356C93.6695 4.6976 92.246 3.21899 90.2623 3.21899C88.2786 3.21899 86.8367 4.71597 86.8367 6.54356C86.8367 8.38952 88.2602 9.86812 90.2439 9.86812ZM90.2623 8.56401C89.1235 8.56401 88.3153 7.64562 88.3153 6.54356C88.3153 5.42312 89.1051 4.5231 90.2439 4.5231C91.3827 4.5231 92.1909 5.44149 92.1909 6.54356C92.1909 7.66399 91.4011 8.56401 90.2623 8.56401Z" fill="white"/>
<path d="M94.9241 9.75792H96.3384V7.17725H98.9466V9.75792H100.361V3.3292H98.9466V5.87314H96.3384V3.3292H94.9241V9.75792Z" fill="white"/>
<path d="M102.756 3.3292V4.66086C102.756 8.12319 102.324 8.60993 101.562 8.60993C101.47 8.60993 101.406 8.60075 101.341 8.59157L101.25 9.75792C101.424 9.80384 101.764 9.84057 101.994 9.84057C103.463 9.84057 104.078 8.87627 104.078 5.0925V4.60576H105.933V9.75792H107.348V3.3292H102.756Z" fill="white"/>
<path d="M108.337 9.75792H109.779L110.367 8.31605H113.085L113.673 9.75792H115.152L112.397 3.28328H111.092L108.337 9.75792ZM110.872 7.06704L111.726 4.9823L112.58 7.06704H110.872Z" fill="white"/>
<path d="M121.682 3.3292H120.368L117.54 7.5446V3.3292H116.144V9.75792H117.476L120.286 5.54252V9.75792H121.682V3.3292ZM118.936 2.84245C119.781 2.84245 120.35 2.32816 120.479 1.4465L119.661 1.29956C119.542 1.6761 119.322 1.91488 118.936 1.91488C118.55 1.91488 118.33 1.6761 118.21 1.29956L117.393 1.4465C117.521 2.32816 118.091 2.84245 118.936 2.84245Z" fill="white"/>
<path d="M123.229 9.75792H124.643V7.17725H127.252V9.75792H128.666V3.3292H127.252V5.87314H124.643V3.3292H123.229V9.75792Z" fill="white"/>
<path d="M132.409 9.75792H133.851L134.439 8.31605H137.157L137.745 9.75792H139.224L136.468 3.28328H135.164L132.409 9.75792ZM134.944 7.06704L135.798 4.9823L136.652 7.06704H134.944Z" fill="white"/>
<path d="M140.216 9.75792H143.274C144.725 9.75792 145.68 9.17015 145.68 7.99461C145.68 7.11296 145.221 6.68132 144.477 6.39662C144.936 6.13947 145.322 5.73538 145.322 5.00985C145.322 4.55066 145.175 4.19248 144.881 3.8986C144.514 3.53124 143.935 3.3292 143.2 3.3292H140.216V9.75792ZM141.593 5.92824V4.56902H142.989C143.586 4.56902 143.917 4.8078 143.917 5.23026C143.917 5.72619 143.522 5.92824 142.897 5.92824H141.593ZM141.593 8.51809V7.10378H143.228C143.954 7.10378 144.275 7.37011 144.275 7.80175C144.275 8.29768 143.898 8.51809 143.274 8.51809H141.593Z" fill="white"/>
<path d="M148.341 9.75792H149.755V4.63331H151.711V3.3292H146.384V4.63331H148.341V9.75792Z" fill="white"/>
<path d="M155.921 9.86812C157.905 9.86812 159.347 8.37115 159.347 6.54356C159.347 4.6976 157.923 3.21899 155.94 3.21899C153.956 3.21899 152.514 4.71597 152.514 6.54356C152.514 8.38952 153.938 9.86812 155.921 9.86812ZM155.94 8.56401C154.801 8.56401 153.993 7.64562 153.993 6.54356C153.993 5.42312 154.782 4.5231 155.921 4.5231C157.06 4.5231 157.868 5.44149 157.868 6.54356C157.868 7.66399 157.078 8.56401 155.94 8.56401Z" fill="white"/>
<path d="M169.427 3.3292H168.013V8.48136H165.717V3.3292H164.303V8.48136H162.016V3.3292H160.601V9.75792H169.427V3.3292Z" fill="white"/>
<path d="M170.969 9.75792H172.383V7.79257L173.127 7.02112L175.12 9.75792H176.819L174.083 6.05681L176.7 3.3292H174.992L172.383 6.13947V3.3292H170.969V9.75792Z" fill="white"/>
<path d="M180.8 9.86812C182.784 9.86812 184.226 8.37115 184.226 6.54356C184.226 4.6976 182.802 3.21899 180.819 3.21899C178.835 3.21899 177.393 4.71597 177.393 6.54356C177.393 8.38952 178.817 9.86812 180.8 9.86812ZM180.819 8.56401C179.68 8.56401 178.872 7.64562 178.872 6.54356C178.872 5.42312 179.661 4.5231 180.8 4.5231C181.939 4.5231 182.747 5.44149 182.747 6.54356C182.747 7.66399 181.957 8.56401 180.819 8.56401Z" fill="white"/>
<path d="M186.335 3.3292V4.66086C186.335 8.12319 185.903 8.60993 185.141 8.60993C185.049 8.60993 184.984 8.60075 184.92 8.59157L184.828 9.75792C185.003 9.80384 185.343 9.84057 185.572 9.84057C187.042 9.84057 187.657 8.87627 187.657 5.0925V4.60576H189.512V9.75792H190.926V3.3292H186.335Z" fill="white"/>
<path d="M191.916 9.75792H193.358L193.946 8.31605H196.664L197.252 9.75792H198.73L195.975 3.28328H194.671L191.916 9.75792ZM194.451 7.06704L195.305 4.9823L196.159 7.06704H194.451Z" fill="white"/>
<path d="M46.7505 17.008H55.8381C58.1821 17.008 60.0393 17.6131 61.4097 18.8233C62.7801 20.0335 63.4652 21.793 63.4652 24.1016C63.4652 25.5539 63.1858 26.792 62.6268 27.816C62.0678 28.8214 61.2745 29.6127 60.2467 30.1899L63.2218 36.5294H56.7577L54.2694 31.1953H53.0523V36.5294H46.7505V17.008ZM54.4858 26.2521C56.1266 26.2521 56.947 25.5353 56.947 24.1016C56.947 22.668 56.1266 21.9512 54.4858 21.9512H53.0523V26.2521H54.4858Z" fill="white"/>
<path d="M74.1573 36.9483C72.228 36.9483 70.4789 36.5201 68.9102 35.6637C67.3596 34.8072 66.1335 33.6156 65.2319 32.0889C64.3304 30.5436 63.8796 28.7749 63.8796 26.7827C63.8796 24.7905 64.3304 23.0218 65.2319 21.4764C66.1335 19.9311 67.3596 18.7302 68.9102 17.8738C70.4789 17.0173 72.228 16.5891 74.1573 16.5891C76.0686 16.5891 77.7995 17.0173 79.3502 17.8738C80.9189 18.7302 82.154 19.9311 83.0556 21.4764C83.9571 23.0218 84.4079 24.7905 84.4079 26.7827C84.4079 28.7749 83.9571 30.5436 83.0556 32.0889C82.154 33.6156 80.9189 34.8072 79.3502 35.6637C77.7995 36.5201 76.0686 36.9483 74.1573 36.9483ZM74.1573 30.7205C75.2391 30.7205 76.1317 30.3667 76.8349 29.6592C77.5381 28.9517 77.8897 27.9929 77.8897 26.7827C77.8897 25.5725 77.5381 24.6136 76.8349 23.9061C76.1317 23.1986 75.2391 22.8449 74.1573 22.8449C73.0574 22.8449 72.1558 23.1986 71.4526 23.9061C70.7494 24.6136 70.3978 25.5725 70.3978 26.7827C70.3978 27.9929 70.7494 28.9517 71.4526 29.6592C72.1739 30.3667 73.0754 30.7205 74.1573 30.7205Z" fill="white"/>
<path d="M85.7619 17.008H91.4146L96.2019 27.3412L100.989 17.008H106.642V36.5294H100.719V29.2962L97.2296 36.5294H95.1741L91.6851 29.2962V36.5294H85.7619V17.008Z" fill="white"/>
<path d="M108.53 17.008H115.778C117.87 17.008 119.7 17.399 121.268 18.181C122.855 18.963 124.081 20.0801 124.947 21.5323C125.812 22.9845 126.245 24.6974 126.245 26.671C126.245 29.9106 125.307 32.3682 123.432 34.0439C121.575 35.7009 119.024 36.5294 115.778 36.5294H108.53V17.008ZM116.211 30.3854C118.555 30.3854 119.727 29.1472 119.727 26.671C119.727 25.5353 119.42 24.6695 118.807 24.0737C118.194 23.4593 117.329 23.1521 116.211 23.1521H114.94V30.3854H116.211Z" fill="white"/>
<path d="M137.336 36.9483C135.407 36.9483 133.658 36.5201 132.089 35.6637C130.539 34.8072 129.312 33.6156 128.411 32.0889C127.509 30.5436 127.059 28.7749 127.059 26.7827C127.059 24.7905 127.509 23.0218 128.411 21.4764C129.312 19.9311 130.539 18.7302 132.089 17.8738C133.658 17.0173 135.407 16.5891 137.336 16.5891C139.248 16.5891 140.979 17.0173 142.529 17.8738C144.098 18.7302 145.333 19.9311 146.235 21.4764C147.136 23.0218 147.587 24.7905 147.587 26.7827C147.587 28.7749 147.136 30.5436 146.235 32.0889C145.333 33.6156 144.098 34.8072 142.529 35.6637C140.979 36.5201 139.248 36.9483 137.336 36.9483ZM137.336 30.7205C138.418 30.7205 139.311 30.3667 140.014 29.6592C140.717 28.9517 141.069 27.9929 141.069 26.7827C141.069 25.5725 140.717 24.6136 140.014 23.9061C139.311 23.1986 138.418 22.8449 137.336 22.8449C136.236 22.8449 135.335 23.1986 134.632 23.9061C133.928 24.6136 133.577 25.5725 133.577 26.7827C133.577 27.9929 133.928 28.9517 134.632 29.6592C135.353 30.3667 136.254 30.7205 137.336 30.7205Z" fill="white"/>
<path d="M148.941 17.008H154.594L159.381 27.3412L164.168 17.008H169.821V36.5294H163.898V29.2962L160.409 36.5294H158.353L154.864 29.2962V36.5294H148.941V17.008Z" fill="white"/>
<path d="M171.709 17.008H178.957C181.049 17.008 182.879 17.399 184.447 18.181C186.034 18.963 187.26 20.0801 188.126 21.5323C188.991 22.9845 189.424 24.6974 189.424 26.671C189.424 29.9106 188.486 32.3682 186.611 34.0439C184.754 35.7009 182.203 36.5294 178.957 36.5294H171.709V17.008ZM179.39 30.3854C181.734 30.3854 182.906 29.1472 182.906 26.671C182.906 25.5353 182.599 24.6695 181.986 24.0737C181.373 23.4593 180.508 23.1521 179.39 23.1521H178.119V30.3854H179.39Z" fill="white"/>
<path d="M200.515 36.9483C198.586 36.9483 196.837 36.5201 195.268 35.6637C193.717 34.8072 192.491 33.6156 191.59 32.0889C190.688 30.5436 190.238 28.7749 190.238 26.7827C190.238 24.7905 190.688 23.0218 191.59 21.4764C192.491 19.9311 193.717 18.7302 195.268 17.8738C196.837 17.0173 198.586 16.5891 200.515 16.5891C202.426 16.5891 204.157 17.0173 205.708 17.8738C207.277 18.7302 208.512 19.9311 209.413 21.4764C210.315 23.0218 210.766 24.7905 210.766 26.7827C210.766 28.7749 210.315 30.5436 209.413 32.0889C208.512 33.6156 207.277 34.8072 205.708 35.6637C204.157 36.5201 202.426 36.9483 200.515 36.9483ZM200.515 30.7205C201.597 30.7205 202.49 30.3667 203.193 29.6592C203.896 28.9517 204.248 27.9929 204.248 26.7827C204.248 25.5725 203.896 24.6136 203.193 23.9061C202.49 23.1986 201.597 22.8449 200.515 22.8449C199.415 22.8449 198.514 23.1986 197.811 23.9061C197.107 24.6136 196.756 25.5725 196.756 26.7827C196.756 27.9929 197.107 28.9517 197.811 29.6592C198.532 30.3667 199.433 30.7205 200.515 30.7205Z" fill="white"/>
<path d="M212.12 17.008H217.773L222.56 27.3412L227.347 17.008H233V36.5294H227.077V29.2962L223.588 36.5294H221.532L218.043 29.2962V36.5294H212.12V17.008Z" fill="white"/>
<path d="M18.4741 36.9482C28.6771 36.9482 36.9482 28.6771 36.9482 18.4741C36.9482 8.27115 28.6771 0 18.4741 0C8.3357 0 0.104757 8.16682 0.00099701 18.2807L0 18.2797V36.9482H18.0852L18.0812 36.9441C18.2119 36.9469 18.3428 36.9482 18.4741 36.9482Z" fill="url(#paint0_linear)"/>
<path fill-rule="evenodd" clip-rule="evenodd" d="M27.8082 18.2798C27.8082 23.435 23.6291 27.6141 18.4739 27.6141C13.3188 27.6141 9.13965 23.435 9.13965 18.2798C9.13965 13.1247 13.3188 8.94556 18.4739 8.94556C23.6291 8.94556 27.8082 13.1247 27.8082 18.2798ZM15.5482 23.804C17.0362 22.2016 19.5765 22.1868 21.0741 23.7803C21.5387 24.2747 21.7085 25.0102 21.147 25.391C20.649 25.7287 19.7876 26.0421 18.3056 26.0421C16.8014 26.0421 15.9457 25.7193 15.461 25.3758C14.926 24.9967 15.1019 24.2845 15.5482 23.804ZM25.2065 18.1676C25.8331 18.5781 26.1046 19.3582 25.5198 20.8363C24.9349 22.3144 24.7887 22.684 24.1621 22.8893C22.9088 22.9919 22.1777 22.1707 21.4466 20.7337C20.9245 19.2967 22.1777 18.3729 23.0132 18.1676C23.0132 18.1676 24.4754 17.757 25.2065 18.1676ZM11.428 20.8363C10.8432 19.3582 11.1147 18.5781 11.7414 18.1676C12.4724 17.757 13.9346 18.1676 13.9346 18.1676C14.7701 18.3729 16.0234 19.2967 15.5012 20.7337C14.7701 22.1707 14.039 22.9919 12.7858 22.8893C12.1591 22.684 12.0129 22.3144 11.428 20.8363ZM23.0419 15.897C24.202 16.1992 24.9343 16.3899 25.0307 15.946C25.3862 14.3072 22.0954 11.1072 18.4746 11.1072C14.8538 11.1072 11.553 14.3091 11.9186 15.9626C12.0143 16.3956 12.7383 16.2057 13.8861 15.9047C15.0506 15.5993 16.6512 15.1795 18.4746 15.1795C20.287 15.1795 21.8792 15.5942 23.0419 15.897Z" fill="white"/>
<defs>
<linearGradient id="paint0_linear" x1="31.6977" y1="5.25054" x2="-9.44665e-07" y2="36.9482" gradientUnits="userSpaceOnUse">
<stop stop-color="#FF6900"/>
<stop offset="0.0001" stop-color="#F77D22"/>
<stop offset="1" stop-color="#E40046"/>
</linearGradient>
</defs>
</svg>
