<svg width="59" height="19" viewBox="0 0 59 19" fill="none" xmlns="http://www.w3.org/2000/svg">
<path d="M24.2494 0L21.3424 18.0898H25.9888L28.894 0H24.2494ZM38.2647 7.36877C36.641 6.56694 35.6456 6.02576 35.6456 5.20567C35.6654 4.46001 36.4873 3.6961 38.3226 3.6961C39.8322 3.65818 40.9418 4.01294 41.7835 4.36591L42.2052 4.55411L42.8369 0.769276C41.9191 0.414516 40.4639 0.0236234 38.6665 0.0236234C34.078 0.0236234 30.8471 2.40927 30.827 5.82128C30.7891 8.33915 33.1402 9.73636 34.8997 10.5745C36.6971 11.4343 37.309 11.9918 37.309 12.7557C37.2891 13.9286 35.8556 14.4697 34.518 14.4697C32.6645 14.4697 31.6689 14.191 30.1576 13.5375L29.5457 13.2587L28.896 17.1921C29.9875 17.6773 31.9947 18.1043 34.0782 18.1261C38.9545 18.1261 42.1275 15.7766 42.1674 12.1403C42.1833 10.1455 40.9435 8.61768 38.2647 7.36877ZM54.7488 0.055983H51.154C50.0462 0.055983 49.2045 0.374613 48.7248 1.51135L41.823 18.0898H46.6993L48.0423 14.5005H53.4979L54.1948 18.1043H58.4956L54.7488 0.055983ZM49.3947 10.8783C49.4888 10.8874 51.2663 5.01905 51.2663 5.01905L52.6818 10.8783C52.6818 10.8783 50.3124 10.8783 49.3947 10.8783ZM17.4599 0L12.9075 12.2904L12.4116 9.86658C11.5699 7.06999 8.93093 4.03101 5.98584 2.52144L10.1544 18.0717H15.0706L22.3761 0.00198414H17.4599V0Z" fill="#797788"/>
<path d="M10.8807 2.33337C10.526 0.954037 9.39459 0.0237585 7.85802 0.00390625H0.648466L0.574219 0.338615C6.19817 1.7251 10.9187 5.99136 12.4501 10.0043L10.8807 2.33337Z" fill="#9A99A2"/>
</svg>
