<svg width="28" height="28" viewBox="0 0 28 28" fill="none" xmlns="http://www.w3.org/2000/svg">
<path d="M13.9999 2.33398C17.1698 2.33398 17.5653 2.34565 18.8089 2.40398C20.0514 2.46232 20.8973 2.65715 21.6416 2.94648C22.4116 3.24282 23.0603 3.64415 23.7089 4.29165C24.3022 4.87486 24.7612 5.58034 25.0541 6.35898C25.3423 7.10215 25.5383 7.94915 25.5966 9.19165C25.6514 10.4353 25.6666 10.8308 25.6666 14.0007C25.6666 17.1705 25.6549 17.566 25.5966 18.8097C25.5383 20.0522 25.3423 20.898 25.0541 21.6423C24.762 22.4214 24.3029 23.127 23.7089 23.7097C23.1255 24.3027 22.4201 24.7617 21.6416 25.0548C20.8984 25.343 20.0514 25.539 18.8089 25.5973C17.5653 25.6522 17.1698 25.6673 13.9999 25.6673C10.8301 25.6673 10.4346 25.6557 9.19092 25.5973C7.94842 25.539 7.10259 25.343 6.35825 25.0548C5.5793 24.7625 4.8737 24.3034 4.29092 23.7097C3.69756 23.1265 3.23851 22.421 2.94575 21.6423C2.65642 20.8992 2.46159 20.0522 2.40325 18.8097C2.34842 17.566 2.33325 17.1705 2.33325 14.0007C2.33325 10.8308 2.34492 10.4353 2.40325 9.19165C2.46159 7.94798 2.65642 7.10332 2.94575 6.35898C3.23769 5.57986 3.69686 4.87419 4.29092 4.29165C4.87387 3.69809 5.57942 3.239 6.35825 2.94648C7.10259 2.65715 7.94725 2.46232 9.19092 2.40398C10.4346 2.34915 10.8301 2.33398 13.9999 2.33398ZM13.9999 8.16732C12.4528 8.16732 10.9691 8.7819 9.87513 9.87586C8.78117 10.9698 8.16659 12.4536 8.16659 14.0007C8.16659 15.5477 8.78117 17.0315 9.87513 18.1254C10.9691 19.2194 12.4528 19.834 13.9999 19.834C15.547 19.834 17.0307 19.2194 18.1247 18.1254C19.2187 17.0315 19.8333 15.5477 19.8333 14.0007C19.8333 12.4536 19.2187 10.9698 18.1247 9.87586C17.0307 8.7819 15.547 8.16732 13.9999 8.16732ZM21.5833 7.87565C21.5833 7.48888 21.4296 7.11794 21.1561 6.84445C20.8826 6.57096 20.5117 6.41732 20.1249 6.41732C19.7381 6.41732 19.3672 6.57096 19.0937 6.84445C18.8202 7.11794 18.6666 7.48888 18.6666 7.87565C18.6666 8.26243 18.8202 8.63336 19.0937 8.90685C19.3672 9.18034 19.7381 9.33398 20.1249 9.33398C20.5117 9.33398 20.8826 9.18034 21.1561 8.90685C21.4296 8.63336 21.5833 8.26243 21.5833 7.87565ZM13.9999 10.5007C14.9282 10.5007 15.8184 10.8694 16.4748 11.5258C17.1312 12.1822 17.4999 13.0724 17.4999 14.0007C17.4999 14.9289 17.1312 15.8191 16.4748 16.4755C15.8184 17.1319 14.9282 17.5007 13.9999 17.5007C13.0717 17.5007 12.1814 17.1319 11.525 16.4755C10.8687 15.8191 10.4999 14.9289 10.4999 14.0007C10.4999 13.0724 10.8687 12.1822 11.525 11.5258C12.1814 10.8694 13.0717 10.5007 13.9999 10.5007Z" fill="#FE5858"/>
</svg>
