<svg width="26" height="26" viewBox="0 0 26 26" fill="none" xmlns="http://www.w3.org/2000/svg">
<g clip-path="url(#clip0_9302:10724)">
<path d="M25.4643 6.75866C25.1646 5.64484 24.2864 4.76689 23.1728 4.46696C21.1382 3.91016 12.9997 3.91016 12.9997 3.91016C12.9997 3.91016 4.86149 3.91016 2.82688 4.44574C1.73469 4.74546 0.83511 5.64504 0.535383 6.75866C0 8.79307 0 13.0123 0 13.0123C0 13.0123 0 17.2527 0.535383 19.2659C0.835308 20.3795 1.71326 21.2576 2.82708 21.5576C4.88291 22.1144 12.9999 22.1144 12.9999 22.1144C12.9999 22.1144 21.1382 22.1144 23.1728 21.5788C24.2866 21.2791 25.1646 20.4009 25.4645 19.2873C25.9999 17.2527 25.9999 13.0337 25.9999 13.0337C25.9999 13.0337 26.0213 8.79307 25.4643 6.75866Z" fill="#FE5858"/>
<path d="M10.408 16.911L17.1756 13.0131L10.408 9.11523V16.911Z" fill="#F6F6F8"/>
</g>
<defs>
<clipPath id="clip0_9302:10724">
<rect width="26" height="26" fill="white"/>
</clipPath>
</defs>
</svg>
