<svg width="19" height="19" viewBox="0 0 19 19" fill="none" xmlns="http://www.w3.org/2000/svg">
<path d="M17.4166 13.3938V15.7688C17.4175 15.9893 17.3724 16.2075 17.284 16.4095C17.1957 16.6115 17.0662 16.7929 16.9037 16.9419C16.7412 17.091 16.5494 17.2045 16.3406 17.2751C16.1317 17.3457 15.9104 17.372 15.6908 17.3521C13.2547 17.0874 10.9147 16.255 8.85872 14.9217C6.94591 13.7062 5.32419 12.0845 4.10872 10.1717C2.77078 8.1064 1.93816 5.75498 1.6783 3.30794C1.65852 3.08902 1.68454 2.86838 1.7547 2.66006C1.82486 2.45174 1.93763 2.26032 2.08582 2.09797C2.23402 1.93563 2.4144 1.80592 2.61547 1.7171C2.81654 1.62829 3.0339 1.58232 3.25372 1.58211H5.62872C6.01292 1.57833 6.38539 1.71438 6.6767 1.9649C6.96801 2.21543 7.15828 2.56334 7.21205 2.94377C7.31229 3.70383 7.4982 4.4501 7.76622 5.16836C7.87273 5.45171 7.89578 5.75967 7.83264 6.05572C7.7695 6.35178 7.62282 6.62353 7.40997 6.83878L6.40455 7.84419C7.53153 9.82617 9.17258 11.4672 11.1546 12.5942L12.16 11.5888C12.3752 11.3759 12.647 11.2292 12.943 11.1661C13.2391 11.103 13.547 11.126 13.8304 11.2325C14.5486 11.5005 15.2949 11.6865 16.055 11.7867C16.4395 11.8409 16.7907 12.0346 17.0418 12.331C17.2929 12.6273 17.4263 13.0055 17.4166 13.3938Z" fill="#23C1B8"/>
</svg>
