<svg width="68" height="40" viewBox="0 0 68 40" fill="none" xmlns="http://www.w3.org/2000/svg">
<path d="M67.4154 19.9718C67.4154 9.00901 58.5149 0 47.4436 0C42.6677 0 38.326 1.62814 34.8527 4.45024C37.4577 6.94671 39.52 10.0944 40.4969 13.6763H38.8688C37.7833 10.5286 36.0466 7.70651 33.6587 5.42712C31.2708 7.70651 29.5341 10.5286 28.4487 13.6763H26.8206C27.906 10.0944 29.8597 6.94671 32.4648 4.45024C28.9914 1.62814 24.7582 0 19.9824 0C9.01961 0 0.119141 9.00901 0.119141 19.9718C0.119141 30.9346 9.01961 39.9436 20.0909 39.9436C24.8668 39.9436 29.2085 38.2069 32.5733 35.4933C29.9683 32.9969 28.0145 29.8491 26.9291 26.2672H28.5572C29.6427 29.415 31.3793 32.2371 33.7673 34.5165C36.1552 32.2371 38.0004 29.415 38.9773 26.2672H40.6054C39.52 29.8491 37.5662 32.9969 34.9612 35.4933C38.4346 38.3154 42.7763 39.9436 47.5521 39.9436C58.5149 39.9436 67.4154 30.9346 67.4154 19.9718Z" fill="#797788"/>
<path d="M52.7627 24.6387L54.1737 17.2578H55.9104L56.1275 18.0176C56.4531 17.692 56.9958 17.2578 58.0813 17.2578L57.5386 19.2116C56.9958 19.2116 56.1275 19.103 55.4763 21.2739L54.825 24.6387H52.7627Z" fill="#051C2C"/>
<path d="M26.1694 15.4141H28.1232L27.689 17.3678H28.7745L28.4488 18.8874H27.472L26.9292 21.8181C26.8207 22.3608 26.9292 22.9035 28.0147 22.6864L27.7976 24.3145C27.3634 24.6402 26.8207 24.6402 26.278 24.6402C25.8438 24.6402 24.3242 24.3145 24.6499 22.3608L26.1694 15.4141Z" fill="#051C2C"/>
<path d="M34.8531 21.3824C35.0702 20.1885 35.6129 17.2578 32.1395 17.2578C28.8833 17.2578 28.4491 20.5141 28.4491 20.9483C28.3406 21.3824 28.3406 24.6387 31.8139 24.6387C32.6823 24.6387 33.8762 24.5302 34.4189 24.3131L34.7446 22.7935C34.4189 22.902 33.3335 23.0106 32.4652 23.0106C31.7054 23.0106 30.4029 23.0106 30.62 21.3824H34.8531Z" fill="#051C2C"/>
<path d="M24.2162 18.9937L24.6503 17.4741C23.6735 17.1484 22.9137 17.1484 22.6966 17.1484C22.371 17.1484 19.983 17.1484 19.6574 18.8851C19.3318 20.2962 19.8745 20.8389 20.3087 21.056C21.0685 21.3816 21.5026 21.7072 21.9368 21.9243C22.4795 22.1414 22.371 23.0097 21.7197 23.0097C21.3941 23.0097 20.0916 23.1183 19.1147 22.7926L18.7891 24.3122C19.7659 24.5293 20.4172 24.5293 21.177 24.5293C21.7197 24.5293 24.1076 24.6379 24.4333 22.467C24.6503 21.3816 24.1076 20.9474 23.782 20.6218C23.3478 20.4047 22.8051 19.9705 22.371 19.862C21.9368 19.6449 21.6112 18.9937 22.371 18.7766C22.6966 18.8851 23.6735 18.8851 24.2162 18.9937Z" fill="#051C2C"/>
<path d="M11.1911 24.6387L12.9278 15.7383H9.56295L7.17502 21.1654L6.74085 15.7383H3.59312L1.85645 24.6387H3.81021L5.11272 18.2348L5.65543 24.6387H7.50065L10.3227 18.3433L9.12878 24.6387H11.1911Z" fill="#051C2C"/>
<path d="M13.47 17.4767L13.1444 19.1048C13.6871 19.1048 14.9896 18.8878 15.6409 18.8878C16.2921 18.8878 17.1605 18.7792 16.8349 19.8646C16.2921 19.8646 12.7102 19.3219 12.1675 22.4697C11.9504 23.9892 13.253 24.749 14.2298 24.749C15.2067 24.749 15.5323 24.532 15.858 24.3149L16.0751 24.749H17.9203L18.6801 20.733C18.8972 19.7561 19.2228 17.3682 15.858 17.3682C15.4238 17.2596 14.7725 17.2596 13.47 17.4767Z" fill="#051C2C"/>
<path d="M45.9242 17.8007C45.3815 17.4751 45.0559 17.4751 44.4046 17.4751C43.7534 17.4751 42.2338 18.1263 42.0167 19.863C41.6911 22.0339 43.1021 23.0107 45.1644 22.3595L45.7071 24.2047C45.0559 24.5303 44.4046 24.6389 43.3192 24.6389C41.2569 24.6389 38.9775 22.7937 39.9544 18.9947C40.7142 16.2811 43.1021 15.1957 44.5132 15.3042C46.1413 15.4128 46.7926 15.9555 47.2267 16.4982L45.9242 17.8007Z" fill="#051C2C"/>
<path d="M62.9653 18.1268C62.5311 17.8012 62.314 17.2584 61.4457 17.2584C60.3602 17.2584 58.6236 17.0414 57.6467 20.4062C56.9954 22.6856 58.2979 24.6393 59.709 24.6393C60.3602 24.6393 61.0115 24.3137 61.4457 24.0966L61.6627 24.6393H63.8336L65.5703 15.3047H63.508L62.9653 18.1268Z" fill="#051C2C"/>
<path d="M47.3363 17.4767L47.0106 19.1048C47.5533 19.1048 48.8559 18.8878 49.5071 18.8878C50.1584 18.8878 50.9182 18.7792 50.7011 19.8646C50.1584 19.8646 46.5765 19.3219 46.0337 22.4697C45.8167 23.9892 47.1192 24.749 48.0961 24.749C49.0729 24.749 49.3986 24.532 49.7242 24.3149L49.9413 24.749H51.7865L52.5463 20.733C52.7634 19.7561 53.089 17.3682 49.7242 17.3682C49.3986 17.2596 48.6388 17.2596 47.3363 17.4767Z" fill="#051C2C"/>
<path d="M30.6191 19.9705H33.1156C33.2242 19.2107 33.0071 18.668 32.2473 18.668C31.3789 18.668 30.8362 19.1021 30.6191 19.9705Z" fill="#797788"/>
<path d="M16.5087 21.3824C16.1831 21.3824 15.4233 21.1653 14.772 21.5995C14.1207 22.0336 13.9037 22.7934 14.6635 23.0105C15.3147 23.2276 16.183 22.7934 16.4001 22.1422L16.5087 21.3824Z" fill="#797788"/>
<path d="M62.3133 21.1647C62.5304 20.5134 62.4219 19.6451 62.2048 19.3195C61.5535 18.4511 60.1424 19.1024 59.7082 20.7305C59.3826 21.816 60.0338 22.5758 60.6851 22.5758C61.4449 22.5758 61.8791 22.033 62.3133 21.1647Z" fill="#797788"/>
<path d="M50.4823 21.3824C50.1567 21.3824 49.3969 21.1653 48.7456 21.5995C48.0944 22.0336 47.8773 22.7934 48.6371 23.0105C49.2883 23.2276 50.2652 22.7934 50.3738 22.1422L50.4823 21.3824Z" fill="#797788"/>
<path d="M34.853 24.6395L36.2641 17.3672H38.0008L38.2178 18.127C38.5435 17.8014 39.0862 17.3672 40.1716 17.3672L39.6289 19.3209C39.1947 19.3209 38.2178 19.2124 37.5666 21.3833L36.9153 24.7481H34.853" fill="#051C2C"/>
<path d="M20.091 0C11.299 0 3.80961 5.75274 1.20459 13.6763H27.0377C28.1231 10.0944 30.0768 6.94671 32.6819 4.45024C29.1 1.73668 24.7583 0 20.091 0Z" fill="#9A99A2"/>
<path d="M33.7667 5.53516C31.3787 7.81454 29.6421 10.5281 28.5566 13.7844H38.9767C37.8913 10.6366 36.1546 7.81454 33.7667 5.53516Z" fill="#9A99A2"/>
<path d="M47.4434 0C42.6676 0 38.3259 1.62814 34.8525 4.45024C37.4576 6.94671 39.4113 10.0944 40.4967 13.6763H66.3298C63.8333 5.75274 56.3439 0 47.4434 0Z" fill="#9A99A2"/>
</svg>
